<svg width="591" height="632" viewBox="0 0 591 632" fill="none" xmlns="http://www.w3.org/2000/svg">
<g clip-path="url(#clip0_31_51)">
<g opacity="0.45" filter="url(#filter0_f_31_51)">
<circle cx="1031.5" cy="1004.5" r="754.5" fill="#3ACA8E"/>
</g>
<path fill-rule="evenodd" clip-rule="evenodd" d="M426.037 691.98C466.407 691.208 502.327 667.504 525.829 630.829C560.642 608.52 583.767 575.022 586.687 537.15C586.895 534.994 587 532.82 587 530.63L586.999 530.325C586.999 530.185 586.998 530.045 586.996 529.906L586.999 529.453L587 529L586.999 528.491L587 528.185C587 527.777 586.993 527.369 586.98 526.963C586.208 486.593 562.504 450.673 525.829 427.171C502.327 390.496 466.407 366.792 426.037 366.019C425.631 366.007 425.223 366 424.815 366L424.509 366.001L424 366C423.698 366 423.396 366.001 423.094 366.004C422.853 366.001 422.612 366 422.37 366C420.18 366 418.006 366.105 415.85 366.313C377.978 369.232 344.48 392.358 322.171 427.171C285.496 450.673 261.792 486.593 261.019 526.963C261.007 527.369 261 527.777 261 528.185L261.001 528.491L261 529C261 529.302 261.001 529.604 261.004 529.906C261.001 530.147 261 530.388 261 530.63C261 532.82 261.105 534.994 261.313 537.15C264.232 575.022 287.358 608.52 322.171 630.829C344.48 665.642 377.978 688.767 415.85 691.687C418.006 691.895 420.18 692 422.37 692L422.675 691.999C422.815 691.999 422.955 691.998 423.094 691.996L423.547 691.999L424 692L424.509 691.999L424.815 692C425.223 692 425.631 691.993 426.037 691.98ZM447.355 687.295C476.854 680.476 502.921 660.977 521.705 633.387C513.277 638.443 504.218 642.862 494.637 646.553C481.645 666.058 465.426 680.355 447.355 687.295ZM579.737 561.517C571.298 587.241 553.084 609.891 528.387 626.705C532.659 619.585 536.475 612.014 539.782 604.058C558.011 592.286 571.886 577.749 579.737 561.517ZM524.359 629.359C529.016 622.052 533.177 614.223 536.777 605.95C528.362 611.112 519.083 615.703 509.094 619.624C505.398 628.242 501.19 636.278 496.537 643.627C506.449 639.628 515.765 634.836 524.359 629.359ZM583.522 544.338C578.96 565.885 563.78 585.451 541.128 600.729C543.884 593.711 546.248 586.408 548.185 578.866C565.458 569.123 577.844 557.323 583.522 544.338ZM538.162 602.678C541.119 595.493 543.657 587.989 545.735 580.216C537.646 584.573 528.557 588.493 518.641 591.893C516.288 600.675 513.458 609.067 510.2 616.989C520.35 612.884 529.728 608.076 538.162 602.678ZM584.948 529.224C584.445 546.646 571.32 563.045 548.867 576.128C552.466 561.208 554.4 545.386 554.4 529C554.4 511.915 552.297 495.445 548.398 479.97C568.562 491.611 581.308 505.909 584.288 521.231C584.669 523.87 584.89 526.535 584.948 529.224ZM552.362 529C552.362 511.368 550.109 494.427 545.949 478.59C543.524 477.254 540.998 475.956 538.377 474.698C532.316 471.788 525.768 469.107 518.795 466.685C523.883 485.883 526.69 506.929 526.69 529C526.69 550.386 524.054 570.81 519.262 589.522C526.06 587.143 532.451 584.516 538.377 581.672C541.175 580.329 543.863 578.941 546.438 577.51C550.285 562.221 552.362 545.929 552.362 529ZM580.056 505.521C573.418 494.976 562.268 485.371 547.684 477.223C546.261 471.911 544.626 466.721 542.79 461.669C560.521 473.994 573.472 488.999 580.056 505.521ZM545.214 475.875C543.672 470.341 541.896 464.948 539.901 459.712C539.326 459.332 538.745 458.955 538.16 458.581C530.158 453.459 521.308 448.87 511.753 444.907C514.151 451.116 516.292 457.596 518.151 464.309C528.045 467.675 537.123 471.558 545.214 475.875ZM582.295 505.645C575.355 487.574 561.058 471.355 541.553 458.363C537.862 448.782 533.443 439.723 528.387 431.295C555.977 450.079 575.476 476.146 582.295 505.645ZM538.627 456.463C534.628 446.551 529.836 437.235 524.359 428.641C515.765 423.164 506.449 418.372 496.537 414.373C501.886 422.821 506.647 432.178 510.718 442.282C520.822 446.353 530.179 451.114 538.627 456.463ZM447.355 370.705C476.854 377.524 502.921 397.023 521.705 424.613C513.277 419.557 504.218 415.138 494.637 411.447C481.645 391.942 465.426 377.645 447.355 370.705ZM447.479 372.944C464.001 379.528 479.006 392.479 491.331 410.21C486.279 408.374 481.089 406.739 475.777 405.316C467.629 390.732 458.024 379.582 447.479 372.944ZM477.125 407.786C482.659 409.328 488.052 411.104 493.288 413.099C493.668 413.674 494.045 414.255 494.419 414.84C499.541 422.842 504.13 431.692 508.093 441.247C501.884 438.849 495.404 436.708 488.691 434.849C485.325 424.955 481.442 415.877 477.125 407.786ZM489.47 437.183C496.296 439.121 502.869 441.352 509.15 443.85C511.648 450.131 513.879 456.704 515.817 463.529C509.275 461.385 502.391 459.463 495.213 457.787C493.537 450.609 491.615 443.725 489.47 437.183ZM495.72 460C502.966 461.721 509.9 463.693 516.473 465.893C521.735 485.259 524.652 506.585 524.652 529C524.652 550.726 521.911 571.429 516.952 590.316C510.352 592.542 503.384 594.538 496.1 596.28C500.077 578.021 502.485 557.963 502.966 536.855C503.294 534.009 503.462 531.116 503.462 528.185C503.462 525.097 503.275 522.053 502.912 519.061C502.305 498.053 499.789 478.118 495.72 460ZM500.273 506.491C499.164 489.869 496.846 474.068 493.514 459.486C475.507 455.372 455.64 452.802 434.663 452.148C465.968 455.896 491.572 477.657 500.273 506.491ZM500.878 519.22C496.343 482.296 464.147 453.612 425.019 453.612C383.017 453.612 349.004 486.663 348.616 527.479C348.614 527.8 348.613 528.122 348.613 528.443C348.756 569.465 382.863 602.757 425.019 602.757C464.303 602.757 496.599 573.845 500.931 536.708C500.988 534.154 501.017 531.584 501.017 529C501.017 525.716 500.971 522.455 500.878 519.22ZM500.405 549.438C491.833 578.491 466.128 600.455 434.662 604.222C455.79 603.563 475.791 600.961 493.901 596.795C497.16 582.085 499.394 566.166 500.405 549.438ZM416.002 604.294C394.56 603.794 374.234 601.294 355.816 597.184C352.391 581.834 350.083 565.158 349.12 547.616C357.19 577.764 383.596 600.673 416.002 604.294ZM346.575 528.445C346.575 528.63 346.575 528.815 346.575 529C346.575 553.148 349.095 576.069 353.618 596.684C344.369 594.539 335.618 591.984 327.466 589.072C322.71 570.522 320.087 550.25 320.087 529C320.087 507.062 322.883 486.166 327.934 467.131C336.066 464.248 344.788 461.72 354.001 459.597C349.336 480.219 346.686 503.209 346.578 527.464C346.576 527.704 346.575 527.944 346.575 528.185C346.575 528.272 346.575 528.359 346.575 528.445ZM349.241 508.31C350.307 490.873 352.704 474.318 356.205 459.099C374.52 455.041 394.71 452.572 416.002 452.076C383.755 455.68 357.45 478.381 349.241 508.31ZM495.609 598.49C502.828 596.793 509.747 594.847 516.318 592.676C513.874 601.575 510.934 610.057 507.555 618.036C501.384 620.428 494.938 622.563 488.256 624.418C491.072 616.305 493.538 607.63 495.609 598.49ZM487.428 626.757C493.991 624.981 500.335 622.938 506.426 620.648C502.86 628.722 498.837 636.257 494.419 643.16C494.045 643.745 493.668 644.326 493.288 644.901C488.052 646.896 482.659 648.672 477.125 650.214C480.912 643.116 484.365 635.259 487.428 626.757ZM475.777 652.684C481.089 651.261 486.279 649.626 491.331 647.79C479.006 665.521 464.001 678.472 447.479 685.056C458.024 678.418 467.629 667.268 475.777 652.684ZM478.302 643.377C477.044 645.998 475.746 648.524 474.41 650.949C458.573 655.109 441.632 657.362 424 657.362C407.071 657.362 390.779 655.285 375.49 651.437C374.059 648.863 372.671 646.175 371.328 643.377C368.989 638.505 366.798 633.318 364.77 627.849C383.129 632.434 403.105 634.95 424 634.95C445.579 634.95 466.179 632.266 485.029 627.392C482.954 633.029 480.706 638.369 478.302 643.377ZM424 659.4C407.613 659.4 391.792 657.466 376.872 653.867C389.955 676.32 406.354 689.445 423.776 689.948C426.465 689.89 429.13 689.669 431.769 689.288C447.091 686.308 461.389 673.562 473.03 653.398C457.555 657.297 441.085 659.4 424 659.4ZM362.375 627.237C365.471 635.763 368.959 643.634 372.784 650.735C365.011 648.657 357.507 646.119 350.322 643.162C345.627 635.826 341.378 627.776 337.65 619.125C345.471 622.258 353.738 624.978 362.375 627.237ZM374.134 653.185C366.592 651.248 359.289 648.884 352.271 646.128C367.549 668.78 387.115 683.96 408.662 688.522C395.677 682.844 383.877 670.458 374.134 653.185ZM334.971 618.029C338.524 626.528 342.572 634.478 347.05 641.777C338.777 638.177 330.948 634.016 323.641 629.359C318.984 622.052 314.823 614.223 311.223 605.95C318.522 610.428 326.472 614.476 334.971 618.029ZM348.942 644.782C340.986 641.475 333.415 637.659 326.295 633.387C343.109 658.084 365.759 676.298 391.483 684.737C375.251 676.886 360.714 663.011 348.942 644.782ZM308.218 604.058C311.525 612.014 315.341 619.585 319.613 626.705C294.916 609.891 276.702 587.241 268.263 561.517C276.114 577.749 289.989 592.286 308.218 604.058ZM309.838 602.678C306.881 595.493 304.343 587.989 302.265 580.216C309.366 584.041 317.237 587.529 325.763 590.625C328.022 599.262 330.742 607.529 333.875 615.35C325.224 611.622 317.174 607.373 309.838 602.678ZM306.872 600.729C304.116 593.711 301.752 586.408 299.815 578.866C282.542 569.123 270.156 557.323 264.478 544.338C269.04 565.886 284.22 585.451 306.872 600.729ZM309.623 581.672C306.825 580.329 304.137 578.941 301.563 577.51C297.715 562.221 295.637 545.929 295.637 529C295.637 511.368 297.891 494.427 302.051 478.59C304.476 477.254 307.002 475.956 309.623 474.698C314.631 472.294 319.971 470.046 325.608 467.971C320.734 486.821 318.05 507.421 318.05 529C318.05 549.895 320.566 569.871 325.151 588.23C319.682 586.202 314.495 584.011 309.623 581.672ZM293.6 529C293.6 511.915 295.703 495.445 299.602 479.97C279.438 491.611 266.692 505.909 263.712 521.23C263.331 523.87 263.11 526.535 263.052 529.224C263.555 546.646 276.68 563.045 299.133 576.128C295.534 561.208 293.6 545.386 293.6 529ZM326.243 465.572C317.741 468.635 309.884 472.088 302.786 475.875C304.328 470.341 306.104 464.948 308.099 459.712C308.674 459.332 309.255 458.955 309.84 458.581C316.743 454.163 324.278 450.14 332.351 446.574C330.062 452.665 328.019 459.009 326.243 465.572ZM300.316 477.223C301.739 471.911 303.374 466.721 305.21 461.669C287.479 473.994 274.528 488.999 267.944 505.52C274.582 494.976 285.732 485.371 300.316 477.223ZM333.376 443.906C324.758 447.602 316.722 451.81 309.373 456.463C313.372 446.551 318.164 437.235 323.641 428.641C330.948 423.984 338.777 419.823 347.05 416.223C341.888 424.638 337.297 433.917 333.376 443.906ZM306.447 458.363C310.138 448.782 314.557 439.723 319.613 431.295C292.023 450.079 272.524 476.146 265.705 505.645C272.645 487.574 286.942 471.355 306.447 458.363ZM348.942 413.218C340.986 416.525 333.415 420.341 326.295 424.613C343.109 399.916 365.759 381.702 391.483 373.263C375.251 381.114 360.714 394.989 348.942 413.218ZM350.322 414.838C357.507 411.881 365.011 409.343 372.784 407.265C368.427 415.354 364.507 424.443 361.106 434.359C352.325 436.712 343.933 439.542 336.011 442.8C340.116 432.65 344.924 423.272 350.322 414.838ZM352.271 411.872C359.289 409.116 366.592 406.752 374.134 404.815C383.877 387.542 395.677 375.156 408.662 369.478C387.114 374.04 367.549 389.22 352.271 411.872ZM371.328 414.623C372.671 411.825 374.059 409.137 375.49 406.563C390.779 402.715 407.071 400.637 424 400.637C441.632 400.637 458.573 402.891 474.41 407.051C475.746 409.476 477.044 412.002 478.302 414.623C481.212 420.684 483.893 427.232 486.315 434.205C467.117 429.117 446.071 426.31 424 426.31C402.614 426.31 382.19 428.946 363.478 433.738C365.857 426.94 368.483 420.549 371.328 414.623ZM424 398.6C441.085 398.6 457.555 400.703 473.03 404.602C461.389 384.438 447.091 371.692 431.77 368.712C429.13 368.331 426.464 368.11 423.776 368.052C406.354 368.555 389.955 381.68 376.872 404.133C391.792 400.534 407.613 398.6 424 398.6ZM424 428.347C446.415 428.347 467.741 431.265 487.107 436.527C489.307 443.1 491.279 450.034 493 457.28C472.046 452.574 448.663 449.945 424 449.945C400.01 449.945 377.231 452.433 356.72 456.9C358.462 449.616 360.458 442.648 362.684 436.048C381.571 431.089 402.274 428.347 424 428.347ZM424 606.425C448.821 606.425 472.346 603.762 493.403 598.999C491.28 608.212 488.752 616.934 485.869 625.066C466.834 630.117 445.938 632.912 424 632.912C402.75 632.912 382.478 630.29 363.928 625.534C361.016 617.382 358.461 608.631 356.316 599.382C376.931 603.905 399.852 606.425 424 606.425ZM354.111 598.889C356.206 608.067 358.699 616.773 361.546 624.909C352.783 622.558 344.417 619.727 336.53 616.47C333.273 608.583 330.442 600.217 328.091 591.454C336.227 594.301 344.933 596.794 354.111 598.889ZM354.51 457.391C345.37 459.462 336.695 461.928 328.582 464.744C330.437 458.062 332.572 451.616 334.963 445.445C342.943 442.066 351.425 439.126 360.324 436.682C358.153 443.253 356.207 450.172 354.51 457.391Z" fill="url(#paint0_linear_31_51)"/>
</g>
<defs>
<filter id="filter0_f_31_51" x="13" y="-14" width="2037" height="2037" filterUnits="userSpaceOnUse" color-interpolation-filters="sRGB">
<feFlood flood-opacity="0" result="BackgroundImageFix"/>
<feBlend mode="normal" in="SourceGraphic" in2="BackgroundImageFix" result="shape"/>
<feGaussianBlur stdDeviation="132" result="effect1_foregroundBlur_31_51"/>
</filter>
<linearGradient id="paint0_linear_31_51" x1="297.675" y1="412.863" x2="529.95" y2="687.925" gradientUnits="userSpaceOnUse">
<stop stop-color="white"/>
<stop offset="0.376612" stop-color="white"/>
<stop offset="1" stop-color="white" stop-opacity="0"/>
</linearGradient>
<clipPath id="clip0_31_51">
<path d="M0 0H591V614C591 623.941 582.941 632 573 632H0V0Z" fill="white"/>
</clipPath>
</defs>
</svg>
