<svg width="99" height="52" viewBox="0 0 99 52" fill="none" xmlns="http://www.w3.org/2000/svg">
<g clip-path="url(#clip0_2_315)">
<path d="M73.1925 51.6154C87.4457 51.6154 99.0001 40.0609 99.0001 25.8077C99.0001 11.5545 87.4457 0 73.1925 0C58.9393 0 47.3848 11.5545 47.3848 25.8077C47.3848 40.0609 58.9393 51.6154 73.1925 51.6154Z" fill="#3D9671"/>
<path d="M52.0387 51.6154C66.2918 51.6154 77.8463 40.0609 77.8463 25.8077C77.8463 11.5545 66.2918 0 52.0387 0C37.7855 0 26.231 11.5545 26.231 25.8077C26.231 40.0609 37.7855 51.6154 52.0387 51.6154Z" fill="#91D78F" fill-opacity="0.8"/>
<path d="M9.94238 47.3847V41.0385H11.9732V41.2839H10.2216V43.3485H10.2978C10.8336 43.3485 11.3075 43.5488 11.7193 43.9493C12.1311 44.3498 12.337 44.8236 12.337 45.3708C12.337 45.9181 12.1255 46.3919 11.7024 46.7924C11.2793 47.1873 10.7857 47.3847 10.2216 47.3847H9.94238ZM10.2216 43.5855V47.1478H10.2893C10.7519 47.1478 11.1608 46.9729 11.5162 46.6232C11.8773 46.2678 12.0578 45.8504 12.0578 45.3708C12.0578 44.8857 11.8857 44.4683 11.5416 44.1185C11.1975 43.7632 10.7801 43.5855 10.2893 43.5855H10.2216ZM16.0481 41.2839H14.0511V44.7362H15.7181V44.9816H14.0511V47.1393H16.0481V47.3847H13.7719V41.0385H16.0481V41.2839ZM20.06 42.1978C20.06 42.6716 19.8343 43.0383 19.3831 43.2978C19.84 43.3993 20.2151 43.6559 20.5085 44.0678C20.8074 44.4739 20.9569 44.9167 20.9569 45.3962C20.9569 45.9716 20.7454 46.4652 20.3223 46.877C19.8992 47.2888 19.3888 47.4947 18.7908 47.4947C18.4297 47.4947 18.0941 47.4157 17.7839 47.2578C17.4792 47.0942 17.2395 46.8685 17.0646 46.5808V46.107C17.2169 46.4455 17.4454 46.7219 17.75 46.9362C18.0603 47.145 18.41 47.2493 18.7992 47.2493C19.3126 47.2493 19.7526 47.0659 20.1192 46.6993C20.4916 46.3327 20.6777 45.8927 20.6777 45.3793C20.6777 44.8604 20.4943 44.4119 20.1277 44.0339C19.7667 43.6559 19.3239 43.467 18.7992 43.467H18.4777V43.2301H18.7485C19.0362 43.2301 19.2788 43.1285 19.4762 42.9255C19.6792 42.7224 19.7808 42.4798 19.7808 42.1978C19.7808 41.9157 19.6792 41.6759 19.4762 41.4785C19.2788 41.2755 19.0503 41.1739 18.7908 41.1739C18.5313 41.1739 18.3057 41.2388 18.1139 41.3685C17.922 41.4983 17.7923 41.6675 17.7246 41.8762V41.4362C17.9785 41.0978 18.3028 40.9285 18.6977 40.9285C19.0926 40.9285 19.4169 41.0527 19.6708 41.3008C19.9303 41.549 20.06 41.8481 20.06 42.1978ZM25.4598 47.4862C24.5854 47.4862 23.8268 47.1562 23.1837 46.4962C22.5462 45.8362 22.2275 45.0662 22.2275 44.1862C22.2275 43.3006 22.5519 42.5362 23.2006 41.8932C23.8493 41.2444 24.6277 40.9201 25.536 40.9201C26.4442 40.9201 27.2198 41.2416 27.8629 41.8847C28.506 42.5278 28.8275 43.295 28.8275 44.1862C28.8275 45.0719 28.5088 45.8447 27.8714 46.5047C27.2339 47.159 26.4723 47.4862 25.5868 47.4862H25.4598ZM28.5483 44.2032C28.5483 43.3683 28.2521 42.6547 27.6598 42.0624C27.0731 41.4644 26.3623 41.1655 25.5275 41.1655C24.6983 41.1655 23.9875 41.4644 23.3952 42.0624C22.8029 42.6547 22.5068 43.3683 22.5068 44.2032C22.5068 45.0324 22.8029 45.7459 23.3952 46.3439C23.9875 46.9419 24.6983 47.2408 25.5275 47.2408C26.3568 47.2408 27.0675 46.9419 27.6598 46.3439C28.2521 45.7459 28.5483 45.0324 28.5483 44.2032ZM30.3919 41.0385H34.3857V47.3847H34.1065V41.2839H30.6711V47.3847H30.3919V41.0385ZM38.9048 40.8862L42.0779 47.3847H41.7817L40.5802 44.9647H37.1871L36.0025 47.3847H35.7402L38.9048 40.8862ZM38.8794 41.4701L37.2971 44.7193H40.4786L38.8794 41.4701ZM45.966 47.4778H45.873C45.292 47.4778 44.7504 47.3255 44.2483 47.0208C43.7463 46.7162 43.3486 46.3129 43.0553 45.8108C42.7676 45.3032 42.6237 44.7644 42.6237 44.1947C42.6237 43.2978 42.9481 42.5278 43.5968 41.8847C44.2455 41.2359 45.0212 40.9116 45.9237 40.9116C46.5274 40.9116 47.0999 41.0696 47.6414 41.3855V41.6985C47.1112 41.3375 46.5386 41.157 45.9237 41.157C45.0945 41.157 44.3837 41.4559 43.7914 42.0539C43.1991 42.6462 42.903 43.3598 42.903 44.1947C42.903 45.0239 43.1991 45.7375 43.7914 46.3355C44.3837 46.9334 45.0945 47.2324 45.9237 47.2324C46.5386 47.2324 47.1112 47.0519 47.6414 46.6908V47.0039C47.1281 47.3198 46.5697 47.4778 45.966 47.4778ZM53.7061 41.0385H53.9854V47.3847H53.7061V44.9647H49.3569V47.3847H49.0777V41.0385H49.3569V44.7193H53.7061V41.0385ZM58.787 47.4862C57.9126 47.4862 57.154 47.1562 56.5109 46.4962C55.8734 45.8362 55.5547 45.0662 55.5547 44.1862C55.5547 43.3006 55.8791 42.5362 56.5278 41.8932C57.1765 41.2444 57.9549 40.9201 58.8632 40.9201C59.7714 40.9201 60.547 41.2416 61.1901 41.8847C61.8332 42.5278 62.1547 43.295 62.1547 44.1862C62.1547 45.0719 61.836 45.8447 61.1986 46.5047C60.5611 47.159 59.7995 47.4862 58.914 47.4862H58.787ZM61.8755 44.2032C61.8755 43.3683 61.5793 42.6547 60.987 42.0624C60.4003 41.4644 59.6895 41.1655 58.8547 41.1655C58.0255 41.1655 57.3147 41.4644 56.7224 42.0624C56.1301 42.6547 55.834 43.3683 55.834 44.2032C55.834 45.0324 56.1301 45.7459 56.7224 46.3439C57.3147 46.9419 58.0255 47.2408 58.8547 47.2408C59.684 47.2408 60.3947 46.9419 60.987 46.3439C61.5793 45.7459 61.8755 45.0324 61.8755 44.2032ZM66.8499 47.4778H66.7568C66.1757 47.4778 65.6342 47.3255 65.1322 47.0208C64.6301 46.7162 64.2325 46.3129 63.9391 45.8108C63.6514 45.3032 63.5076 44.7644 63.5076 44.1947C63.5076 43.2978 63.8319 42.5278 64.4806 41.8847C65.1294 41.2359 65.905 40.9116 66.8076 40.9116C67.4111 40.9116 67.9837 41.0696 68.5253 41.3855V41.6985C67.995 41.3375 67.4225 41.157 66.8076 41.157C65.9783 41.157 65.2676 41.4559 64.6753 42.0539C64.0829 42.6462 63.7868 43.3598 63.7868 44.1947C63.7868 45.0239 64.0829 45.7375 64.6753 46.3355C65.2676 46.9334 65.9783 47.2324 66.8076 47.2324C67.4225 47.2324 67.995 47.0519 68.5253 46.6908V47.0039C68.0119 47.3198 67.4534 47.4778 66.8499 47.4778ZM72.7284 41.0385V41.2839H71.2814V47.3847H71.0022V41.2839H69.5384V41.0385H72.7284ZM74.0802 41.0385H74.3594V43.5178H74.4356C74.8981 43.5178 75.3325 43.7096 75.7386 44.0932C76.1448 44.4767 76.3479 44.9281 76.3479 45.447C76.3479 45.9659 76.1477 46.4201 75.7471 46.8093C75.3523 47.1929 74.8897 47.3847 74.3594 47.3847H74.0802V41.0385ZM74.4271 43.7632H74.3594V47.1393H74.4271C74.8502 47.1393 75.2281 46.9701 75.5609 46.6316C75.8994 46.2932 76.0686 45.8983 76.0686 45.447C76.0686 44.9957 75.9023 44.6036 75.5694 44.2708C75.2366 43.9324 74.8558 43.7632 74.4271 43.7632Z" fill="black"/>
<path d="M9.94267 47.3846H9.77344V47.5538H9.94267V47.3846ZM9.94267 41.0384V40.8692H9.77344V41.0384H9.94267ZM11.9734 41.0384H12.1427V40.8692H11.9734V41.0384ZM11.9734 41.2838V41.453H12.1427V41.2838H11.9734ZM10.2219 41.2838V41.1146H10.0527V41.2838H10.2219ZM10.2219 43.3484H10.0527V43.5176H10.2219V43.3484ZM11.7196 43.9492L11.8375 43.8278L11.7196 43.9492ZM11.7027 46.7923L11.8182 46.916L11.819 46.9151L11.7027 46.7923ZM10.2219 43.5853V43.4161H10.0527V43.5853H10.2219ZM10.2219 47.1476H10.0527V47.3169H10.2219V47.1476ZM11.5165 46.623L11.6352 46.7436L11.5165 46.623ZM11.5419 44.1184L11.4203 44.2361L11.4212 44.2371L11.5419 44.1184ZM10.1119 47.3846V41.0384H9.77344V47.3846H10.1119ZM9.94267 41.2076H11.9734V40.8692H9.94267V41.2076ZM11.8042 41.0384V41.2838H12.1427V41.0384H11.8042ZM11.9734 41.1146H10.2219V41.453H11.9734V41.1146ZM10.0527 41.2838V43.3484H10.3911V41.2838H10.0527ZM10.2219 43.5176H10.2981V43.1792H10.2219V43.5176ZM10.2981 43.5176C10.7865 43.5176 11.2189 43.6983 11.6016 44.0705L11.8375 43.8278C11.3967 43.3991 10.8814 43.1792 10.2981 43.1792V43.5176ZM11.6016 44.0705C11.9825 44.4409 12.1681 44.8717 12.1681 45.3707H12.5065C12.5065 44.7754 12.2803 44.2584 11.8375 43.8278L11.6016 44.0705ZM12.1681 45.3707C12.1681 45.8682 11.9781 46.2985 11.5863 46.6694L11.819 46.9151C12.2734 46.485 12.5065 45.9677 12.5065 45.3707H12.1681ZM11.5872 46.6685C11.1946 47.035 10.7419 47.2153 10.2219 47.2153V47.5538C10.8301 47.5538 11.3646 47.3393 11.8182 46.916L11.5872 46.6685ZM10.2219 47.2153H9.94267V47.5538H10.2219V47.2153ZM10.0527 43.5853V47.1476H10.3911V43.5853H10.0527ZM10.2219 47.3169H10.2896V46.9784H10.2219V47.3169ZM10.2896 47.3169C10.8002 47.3169 11.2509 47.1218 11.6352 46.7436L11.3978 46.5024C11.0714 46.8236 10.704 46.9784 10.2896 46.9784V47.3169ZM11.6352 46.7436C12.0266 46.3584 12.2273 45.8983 12.2273 45.3707H11.8888C11.8888 45.8021 11.7286 46.1768 11.3978 46.5024L11.6352 46.7436ZM12.2273 45.3707C12.2273 44.8406 12.0374 44.3807 11.6626 43.9997L11.4212 44.2371C11.7347 44.5556 11.8888 44.9305 11.8888 45.3707H12.2273ZM11.6635 44.0007C11.2878 43.6127 10.8266 43.4161 10.2896 43.4161V43.7546C10.7342 43.7546 11.1078 43.9134 11.4203 44.2361L11.6635 44.0007ZM10.2896 43.4161H10.2219V43.7546H10.2896V43.4161ZM16.0483 41.2838V41.453H16.2176V41.2838H16.0483ZM14.0514 41.2838V41.1146H13.8822V41.2838H14.0514ZM14.0514 44.7361H13.8822V44.9053H14.0514V44.7361ZM15.7183 44.7361H15.8876V44.5669H15.7183V44.7361ZM15.7183 44.9815V45.1507H15.8876V44.9815H15.7183ZM14.0514 44.9815V44.8123H13.8822V44.9815H14.0514ZM14.0514 47.1392H13.8822V47.3084H14.0514V47.1392ZM16.0483 47.1392H16.2176V46.9699H16.0483V47.1392ZM16.0483 47.3846V47.5538H16.2176V47.3846H16.0483ZM13.7722 47.3846H13.603V47.5538H13.7722V47.3846ZM13.7722 41.0384V40.8692H13.603V41.0384H13.7722ZM16.0483 41.0384H16.2176V40.8692H16.0483V41.0384ZM16.0483 41.1146H14.0514V41.453H16.0483V41.1146ZM13.8822 41.2838V44.7361H14.2207V41.2838H13.8822ZM14.0514 44.9053H15.7183V44.5669H14.0514V44.9053ZM15.5491 44.7361V44.9815H15.8876V44.7361H15.5491ZM15.7183 44.8123H14.0514V45.1507H15.7183V44.8123ZM13.8822 44.9815V47.1392H14.2207V44.9815H13.8822ZM14.0514 47.3084H16.0483V46.9699H14.0514V47.3084ZM15.8791 47.1392V47.3846H16.2176V47.1392H15.8791ZM16.0483 47.2153H13.7722V47.5538H16.0483V47.2153ZM13.9414 47.3846V41.0384H13.603V47.3846H13.9414ZM13.7722 41.2076H16.0483V40.8692H13.7722V41.2076ZM15.8791 41.0384V41.2838H16.2176V41.0384H15.8791ZM19.3834 43.2976L19.299 43.1509L18.921 43.3683L19.3467 43.4628L19.3834 43.2976ZM20.5088 44.0676L20.3709 44.1659L20.3724 44.168L20.5088 44.0676ZM20.3226 46.8769L20.2046 46.7556L20.3226 46.8769ZM17.7841 47.2576L17.704 47.4067L17.7074 47.4084L17.7841 47.2576ZM17.0649 46.5807H16.8957V46.6281L16.9203 46.6686L17.0649 46.5807ZM17.0649 46.1069L17.2193 46.0374L16.8957 46.1069H17.0649ZM17.7503 46.9361L17.6529 47.0745L17.6559 47.0765L17.7503 46.9361ZM20.1195 46.6992L20.0007 46.5786L19.9999 46.5795L20.1195 46.6992ZM20.128 44.0338L20.0056 44.1507L20.0065 44.1517L20.128 44.0338ZM18.478 43.4669H18.3088V43.6361H18.478V43.4669ZM18.478 43.2299V43.0607H18.3088V43.2299H18.478ZM19.4765 42.9253L19.3568 42.8057L19.3551 42.8074L19.4765 42.9253ZM19.4765 41.4784L19.355 41.5964L19.3585 41.5997L19.4765 41.4784ZM18.1141 41.3684L18.2089 41.5086L18.1141 41.3684ZM17.7249 41.8761H17.5557L17.8859 41.9283L17.7249 41.8761ZM17.7249 41.4361L17.5895 41.3346L17.5557 41.3797V41.4361H17.7249ZM19.6711 41.3007L19.5528 41.4217L19.554 41.423L19.6711 41.3007ZM19.8911 42.1976C19.8911 42.604 19.7041 42.9181 19.299 43.1509L19.4677 43.4444C19.9652 43.1583 20.2295 42.739 20.2295 42.1976H19.8911ZM19.3467 43.4628C19.7593 43.5545 20.0997 43.7851 20.3709 44.1658L20.6466 43.9695C20.3311 43.5265 19.9213 43.2438 19.4201 43.1325L19.3467 43.4628ZM20.3724 44.168C20.6513 44.5466 20.788 44.9547 20.788 45.3961H21.1265C21.1265 44.8786 20.9642 44.4009 20.6451 43.9673L20.3724 44.168ZM20.788 45.3961C20.788 45.9245 20.5958 46.3748 20.2046 46.7556L20.4406 46.9981C20.8955 46.5554 21.1265 46.0184 21.1265 45.3961H20.788ZM20.2046 46.7556C19.8136 47.1362 19.3456 47.3253 18.7911 47.3253V47.6638C19.4325 47.6638 19.9855 47.4411 20.4406 46.9981L20.2046 46.7556ZM18.7911 47.3253C18.4557 47.3253 18.1465 47.2522 17.8609 47.1069L17.7074 47.4084C18.0423 47.5789 18.4044 47.6638 18.7911 47.6638V47.3253ZM17.8642 47.1085C17.5854 46.9589 17.3683 46.754 17.2095 46.4928L16.9203 46.6686C17.1113 46.9828 17.3736 47.2293 17.7041 47.4067L17.8642 47.1085ZM17.2341 46.5807V46.1069H16.8957V46.5807H17.2341ZM16.9106 46.1763C17.0754 46.5426 17.3236 46.8428 17.6529 47.0745L17.8477 46.7977C17.5678 46.6008 17.359 46.3481 17.2193 46.0374L16.9106 46.1763ZM17.6559 47.0765C17.9952 47.3049 18.3781 47.4184 18.7995 47.4184V47.0799C18.4425 47.0799 18.1259 46.9848 17.8447 46.7957L17.6559 47.0765ZM18.7995 47.4184C19.3582 47.4184 19.8411 47.2169 20.2392 46.8188L19.9999 46.5795C19.6646 46.9148 19.2675 47.0799 18.7995 47.0799V47.4184ZM20.2382 46.8198C20.6422 46.4219 20.8472 45.9387 20.8472 45.3792H20.5088C20.5088 45.8463 20.3415 46.2431 20.0007 46.5786L20.2382 46.8198ZM20.8472 45.3792C20.8472 44.8155 20.6463 44.325 20.2494 43.9159L20.0065 44.1517C20.3431 44.4985 20.5088 44.9049 20.5088 45.3792H20.8472ZM20.2503 43.9169C19.8572 43.5054 19.3702 43.2976 18.7995 43.2976V43.6361C19.2781 43.6361 19.6767 43.8063 20.0056 44.1506L20.2503 43.9169ZM18.7995 43.2976H18.478V43.6361H18.7995V43.2976ZM18.6472 43.4669V43.2299H18.3088V43.4669H18.6472ZM18.478 43.3992H18.7488V43.0607H18.478V43.3992ZM18.7488 43.3992C19.0813 43.3992 19.3679 43.2797 19.5978 43.0433L19.3551 42.8074C19.1901 42.9771 18.9915 43.0607 18.7488 43.0607V43.3992ZM19.5961 43.045C19.8302 42.8108 19.9503 42.5255 19.9503 42.1976H19.6118C19.6118 42.4339 19.5287 42.6337 19.3568 42.8057L19.5961 43.045ZM19.9503 42.1976C19.9503 41.8697 19.8301 41.5862 19.5944 41.3571L19.3585 41.5997C19.5289 41.7655 19.6118 41.9615 19.6118 42.1976H19.9503ZM19.5978 41.3605C19.3717 41.1279 19.1007 41.0046 18.7911 41.0046V41.343C19.0004 41.343 19.1863 41.4227 19.3551 41.5964L19.5978 41.3605ZM18.7911 41.0046C18.502 41.0046 18.2424 41.0773 18.0193 41.2282L18.2089 41.5086C18.3694 41.4001 18.5612 41.343 18.7911 41.343V41.0046ZM18.0193 41.2282C17.7981 41.3779 17.6439 41.5772 17.5639 41.8239L17.8859 41.9283C17.9413 41.7576 18.0465 41.6184 18.2089 41.5086L18.0193 41.2282ZM17.8941 41.8761V41.4361H17.5557V41.8761H17.8941ZM17.8603 41.5376C18.0849 41.2383 18.3606 41.0976 18.698 41.0976V40.7592C18.2456 40.7592 17.8727 40.957 17.5895 41.3346L17.8603 41.5376ZM18.698 41.0976C19.0541 41.0976 19.3342 41.2081 19.5528 41.4217L19.7894 41.1797C19.5002 40.897 19.1316 40.7592 18.698 40.7592V41.0976ZM19.554 41.423C19.7812 41.6403 19.8911 41.8955 19.8911 42.1976H20.2295C20.2295 41.8004 20.0799 41.4576 19.788 41.1784L19.554 41.423ZM23.184 46.4961L23.0622 46.6136L23.0627 46.6142L23.184 46.4961ZM23.2009 41.893L23.32 42.0132L23.3205 42.0127L23.2009 41.893ZM27.8632 41.8846L27.7435 42.0042L27.8632 41.8846ZM27.8717 46.5046L27.9928 46.6227L27.9933 46.6221L27.8717 46.5046ZM27.6601 42.0623L27.5393 42.1808L27.5404 42.1819L27.6601 42.0623ZM23.3955 42.0623L23.5151 42.1819L23.5157 42.1813L23.3955 42.0623ZM23.3955 46.3438L23.2753 46.4628L23.3955 46.3438ZM27.6601 46.3438L27.7803 46.4628L27.6601 46.3438ZM25.4601 47.3169C24.634 47.3169 23.9183 47.0073 23.3051 46.378L23.0627 46.6142C23.7357 47.3049 24.5374 47.6553 25.4601 47.6553V47.3169ZM23.3056 46.3786C22.6973 45.7486 22.397 45.0202 22.397 44.1861H22.0586C22.0586 45.112 22.3957 45.9236 23.0622 46.6136L23.3056 46.3786ZM22.397 44.1861C22.397 43.3471 22.7022 42.6256 23.32 42.0132L23.0817 41.7729C22.402 42.4466 22.0586 43.2537 22.0586 44.1861H22.397ZM23.3205 42.0127C23.9379 41.3953 24.6734 41.0892 25.5363 41.0892V40.7507C24.5827 40.7507 23.7613 41.0932 23.0812 41.7734L23.3205 42.0127ZM25.5363 41.0892C26.3995 41.0892 27.1321 41.3929 27.7435 42.0042L27.9828 41.7649C27.308 41.0901 26.4894 40.7507 25.5363 40.7507V41.0892ZM27.7435 42.0042C28.3556 42.6163 28.6586 43.3407 28.6586 44.1861H28.997C28.997 43.2489 28.6569 42.439 27.9828 41.7649L27.7435 42.0042ZM28.6586 44.1861C28.6586 45.0262 28.3581 45.7573 27.7499 46.387L27.9933 46.6221C28.66 45.9318 28.997 45.1173 28.997 44.1861H28.6586ZM27.7504 46.3864C27.1437 47.0093 26.4254 47.3169 25.587 47.3169V47.6553C26.5198 47.6553 27.3247 47.3086 27.9928 46.6227L27.7504 46.3864ZM25.587 47.3169H25.4601V47.6553H25.587V47.3169ZM28.7178 44.203C28.7178 43.3231 28.4036 42.5665 27.7798 41.9426L27.5404 42.1819C28.1011 42.7426 28.3793 43.4132 28.3793 44.203H28.7178ZM27.7809 41.9437C27.1625 41.3135 26.4082 40.9961 25.5278 40.9961V41.3346C26.317 41.3346 26.9843 41.6151 27.5393 42.1808L27.7809 41.9437ZM25.5278 40.9961C24.6526 40.9961 23.8988 41.3137 23.2753 41.9432L23.5157 42.1813C24.0767 41.615 24.7444 41.3346 25.5278 41.3346V40.9961ZM23.2758 41.9426C22.6519 42.5665 22.3378 43.3231 22.3378 44.203H22.6763C22.6763 43.4132 22.9544 42.7426 23.5151 42.1819L23.2758 41.9426ZM22.3378 44.203C22.3378 45.0776 22.6521 45.8338 23.2753 46.4628L23.5157 46.2247C22.9542 45.6579 22.6763 44.9869 22.6763 44.203H22.3378ZM23.2753 46.4628C23.8988 47.0924 24.6526 47.4099 25.5278 47.4099V47.0715C24.7444 47.0715 24.0767 46.7911 23.5157 46.2247L23.2753 46.4628ZM25.5278 47.4099C26.4029 47.4099 27.1567 47.0924 27.7803 46.4628L27.5399 46.2247C26.9788 46.7911 26.3111 47.0715 25.5278 47.0715V47.4099ZM27.7803 46.4628C28.4035 45.8338 28.7178 45.0776 28.7178 44.203H28.3793C28.3793 44.9869 28.1013 45.6579 27.5399 46.2247L27.7803 46.4628ZM30.3922 41.0384V40.8692H30.2229V41.0384H30.3922ZM34.386 41.0384H34.5553V40.8692H34.386V41.0384ZM34.386 47.3846V47.5538H34.5553V47.3846H34.386ZM34.1068 47.3846H33.9376V47.5538H34.1068V47.3846ZM34.1068 41.2838H34.276V41.1146H34.1068V41.2838ZM30.6714 41.2838V41.1146H30.5022V41.2838H30.6714ZM30.6714 47.3846V47.5538H30.8406V47.3846H30.6714ZM30.3922 47.3846H30.2229V47.5538H30.3922V47.3846ZM30.3922 41.2076H34.386V40.8692H30.3922V41.2076ZM34.2168 41.0384V47.3846H34.5553V41.0384H34.2168ZM34.386 47.2153H34.1068V47.5538H34.386V47.2153ZM34.276 47.3846V41.2838H33.9376V47.3846H34.276ZM34.1068 41.1146H30.6714V41.453H34.1068V41.1146ZM30.5022 41.2838V47.3846H30.8406V41.2838H30.5022ZM30.6714 47.2153H30.3922V47.5538H30.6714V47.2153ZM30.5614 47.3846V41.0384H30.2229V47.3846H30.5614ZM38.9051 40.8861L39.0571 40.8118L38.9048 40.5L38.7529 40.812L38.9051 40.8861ZM42.0782 47.3846V47.5538H42.3491L42.2302 47.3103L42.0782 47.3846ZM41.782 47.3846L41.6304 47.4598L41.6771 47.5538H41.782V47.3846ZM40.5805 44.9646L40.732 44.8893L40.6854 44.7953H40.5805V44.9646ZM37.1874 44.9646V44.7953H37.0818L37.0353 44.8902L37.1874 44.9646ZM36.0028 47.3846V47.5538H36.1084L36.1547 47.4589L36.0028 47.3846ZM35.7405 47.3846L35.5883 47.3104L35.4698 47.5538H35.7405V47.3846ZM38.8797 41.4699L39.0315 41.3952L38.8788 41.0851L38.7276 41.3958L38.8797 41.4699ZM37.2974 44.7192L37.1452 44.6451L37.0267 44.8884H37.2974V44.7192ZM40.4789 44.7192V44.8884H40.7508L40.6307 44.6445L40.4789 44.7192ZM38.753 40.9604L41.9261 47.4589L42.2302 47.3103L39.0571 40.8118L38.753 40.9604ZM42.0782 47.2153H41.782V47.5538H42.0782V47.2153ZM41.9335 47.3093L40.732 44.8893L40.4288 45.0398L41.6304 47.4598L41.9335 47.3093ZM40.5805 44.7953H37.1874V45.1338H40.5805V44.7953ZM37.0353 44.8902L35.8507 47.3102L36.1547 47.4589L37.3394 45.0389L37.0353 44.8902ZM36.0028 47.2153H35.7405V47.5538H36.0028V47.2153ZM35.8926 47.4587L39.0572 40.9602L38.7529 40.812L35.5883 47.3104L35.8926 47.4587ZM38.7276 41.3958L37.1452 44.6451L37.4495 44.7933L39.0318 41.5441L38.7276 41.3958ZM37.2974 44.8884H40.4789V44.5499H37.2974V44.8884ZM40.6307 44.6445L39.0315 41.3952L38.7278 41.5447L40.327 44.7939L40.6307 44.6445ZM44.2486 47.0207L44.1609 47.1654L44.2486 47.0207ZM43.0555 45.8107L42.9083 45.8941L42.9095 45.8961L43.0555 45.8107ZM43.5971 41.8846L43.7162 42.0047L43.7168 42.0042L43.5971 41.8846ZM47.6417 41.3853H47.8109V41.2881L47.727 41.2391L47.6417 41.3853ZM47.6417 41.6984L47.5465 41.8383L47.8109 42.0183V41.6984H47.6417ZM43.7917 42.0538L43.9114 42.1734L43.9119 42.1728L43.7917 42.0538ZM43.7917 46.3353L43.9119 46.2163L43.7917 46.3353ZM47.6417 46.6907H47.8109V46.3708L47.5465 46.5508L47.6417 46.6907ZM47.6417 47.0038L47.7305 47.1479L47.8109 47.0984V47.0038H47.6417ZM45.9663 47.3084H45.8732V47.6469H45.9663V47.3084ZM45.8732 47.3084C45.3236 47.3084 44.8123 47.1647 44.3365 46.876L44.1609 47.1654C44.689 47.4859 45.261 47.6469 45.8732 47.6469V47.3084ZM44.3365 46.876C43.8582 46.5859 43.4807 46.2028 43.2017 45.7253L42.9095 45.8961C43.2172 46.4227 43.635 46.8463 44.1609 47.1654L44.3365 46.876ZM43.2028 45.7273C42.9291 45.2444 42.7932 44.7343 42.7932 44.1946H42.4548C42.4548 44.7943 42.6066 45.3617 42.9083 45.8941L43.2028 45.7273ZM42.7932 44.1946C42.7932 43.3437 43.099 42.6167 43.7162 42.0047L43.4779 41.7644C42.7979 42.4385 42.4548 43.2516 42.4548 44.1946H42.7932ZM43.7168 42.0042C44.3343 41.3867 45.0672 41.0807 45.924 41.0807V40.7423C44.9758 40.7423 44.1573 41.085 43.4774 41.7649L43.7168 42.0042ZM45.924 41.0807C46.4965 41.0807 47.0397 41.2301 47.5565 41.5315L47.727 41.2391C47.1607 40.9088 46.5588 40.7423 45.924 40.7423V41.0807ZM47.4725 41.3853V41.6984H47.8109V41.3853H47.4725ZM47.737 41.5585C47.18 41.1793 46.5744 40.9876 45.924 40.9876V41.3261C46.5035 41.3261 47.043 41.4955 47.5465 41.8383L47.737 41.5585ZM45.924 40.9876C45.0489 40.9876 44.2951 41.3052 43.6715 41.9347L43.9119 42.1728C44.473 41.6065 45.1407 41.3261 45.924 41.3261V40.9876ZM43.6721 41.9341C43.0481 42.558 42.734 43.3146 42.734 44.1946H43.0725C43.0725 43.4048 43.3507 42.7342 43.9114 42.1734L43.6721 41.9341ZM42.734 44.1946C42.734 45.0691 43.0484 45.8254 43.6715 46.4544L43.9119 46.2163C43.3505 45.6494 43.0725 44.9784 43.0725 44.1946H42.734ZM43.6715 46.4544C44.2951 47.0839 45.0489 47.4015 45.924 47.4015V47.063C45.1407 47.063 44.473 46.7826 43.9119 46.2163L43.6715 46.4544ZM45.924 47.4015C46.5744 47.4015 47.18 47.2098 47.737 46.8306L47.5465 46.5508C47.043 46.8936 46.5035 47.063 45.924 47.063V47.4015ZM47.4725 46.6907V47.0038H47.8109V46.6907H47.4725ZM47.553 46.8597C47.0664 47.1591 46.5387 47.3084 45.9663 47.3084V47.6469C46.6012 47.6469 47.1904 47.4803 47.7305 47.1479L47.553 46.8597ZM53.7064 41.0384V40.8692H53.5372V41.0384H53.7064ZM53.9857 41.0384H54.1549V40.8692H53.9857V41.0384ZM53.9857 47.3846V47.5538H54.1549V47.3846H53.9857ZM53.7064 47.3846H53.5372V47.5538H53.7064V47.3846ZM53.7064 44.9646H53.8757V44.7953H53.7064V44.9646ZM49.3572 44.9646V44.7953H49.188V44.9646H49.3572ZM49.3572 47.3846V47.5538H49.5264V47.3846H49.3572ZM49.078 47.3846H48.9087V47.5538H49.078V47.3846ZM49.078 41.0384V40.8692H48.9087V41.0384H49.078ZM49.3572 41.0384H49.5264V40.8692H49.3572V41.0384ZM49.3572 44.7192H49.188V44.8884H49.3572V44.7192ZM53.7064 44.7192V44.8884H53.8757V44.7192H53.7064ZM53.7064 41.2076H53.9857V40.8692H53.7064V41.2076ZM53.8164 41.0384V47.3846H54.1549V41.0384H53.8164ZM53.9857 47.2153H53.7064V47.5538H53.9857V47.2153ZM53.8757 47.3846V44.9646H53.5372V47.3846H53.8757ZM53.7064 44.7953H49.3572V45.1338H53.7064V44.7953ZM49.188 44.9646V47.3846H49.5264V44.9646H49.188ZM49.3572 47.2153H49.078V47.5538H49.3572V47.2153ZM49.2472 47.3846V41.0384H48.9087V47.3846H49.2472ZM49.078 41.2076H49.3572V40.8692H49.078V41.2076ZM49.188 41.0384V44.7192H49.5264V41.0384H49.188ZM49.3572 44.8884H53.7064V44.5499H49.3572V44.8884ZM53.8757 44.7192V41.0384H53.5372V44.7192H53.8757ZM56.5112 46.4961L56.3894 46.6136L56.3899 46.6142L56.5112 46.4961ZM56.5281 41.893L56.6472 42.0132L56.6477 42.0127L56.5281 41.893ZM61.1904 41.8846L61.0707 42.0042L61.1904 41.8846ZM61.1989 46.5046L61.32 46.6227L61.3205 46.6221L61.1989 46.5046ZM60.9873 42.0623L60.8665 42.1808L60.8676 42.1819L60.9873 42.0623ZM56.7227 42.0623L56.8424 42.1819L56.8429 42.1813L56.7227 42.0623ZM56.7227 46.3438L56.6025 46.4628L56.7227 46.3438ZM60.9873 46.3438L61.1076 46.4628L60.9873 46.3438ZM58.7873 47.3169C57.9612 47.3169 57.2455 47.0073 56.6323 46.378L56.3899 46.6142C57.0629 47.3049 57.8646 47.6553 58.7873 47.6553V47.3169ZM56.6328 46.3786C56.0245 45.7486 55.7243 45.0202 55.7243 44.1861H55.3858C55.3858 45.112 55.723 45.9236 56.3894 46.6136L56.6328 46.3786ZM55.7243 44.1861C55.7243 43.3471 56.0295 42.6256 56.6472 42.0132L56.409 41.7729C55.7292 42.4466 55.3858 43.2537 55.3858 44.1861H55.7243ZM56.6477 42.0127C57.2651 41.3953 58.0007 41.0892 58.8635 41.0892V40.7507C57.9099 40.7507 57.0885 41.0932 56.4084 41.7734L56.6477 42.0127ZM58.8635 41.0892C59.7267 41.0892 60.4593 41.3929 61.0707 42.0042L61.3101 41.7649C60.6352 41.0901 59.8166 40.7507 58.8635 40.7507V41.0892ZM61.0707 42.0042C61.6828 42.6163 61.9858 43.3407 61.9858 44.1861H62.3243C62.3243 43.2489 61.9841 42.439 61.3101 41.7649L61.0707 42.0042ZM61.9858 44.1861C61.9858 45.0262 61.6853 45.7573 61.0771 46.387L61.3205 46.6221C61.9872 45.9318 62.3243 45.1173 62.3243 44.1861H61.9858ZM61.0776 46.3864C60.4709 47.0093 59.7526 47.3169 58.9143 47.3169V47.6553C59.8471 47.6553 60.6519 47.3086 61.32 46.6227L61.0776 46.3864ZM58.9143 47.3169H58.7873V47.6553H58.9143V47.3169ZM62.045 44.203C62.045 43.3231 61.7309 42.5665 61.107 41.9426L60.8676 42.1819C61.4283 42.7426 61.7066 43.4132 61.7066 44.203H62.045ZM61.1081 41.9437C60.4897 41.3135 59.7354 40.9961 58.855 40.9961V41.3346C59.6442 41.3346 60.3115 41.6151 60.8665 42.1808L61.1081 41.9437ZM58.855 40.9961C57.9798 40.9961 57.226 41.3137 56.6025 41.9432L56.8429 42.1813C57.4039 41.615 58.0716 41.3346 58.855 41.3346V40.9961ZM56.603 41.9426C55.9791 42.5665 55.665 43.3231 55.665 44.203H56.0035C56.0035 43.4132 56.2817 42.7426 56.8424 42.1819L56.603 41.9426ZM55.665 44.203C55.665 45.0776 55.9793 45.8338 56.6025 46.4628L56.8429 46.2247C56.2814 45.6579 56.0035 44.9869 56.0035 44.203H55.665ZM56.6025 46.4628C57.226 47.0924 57.9798 47.4099 58.855 47.4099V47.0715C58.0716 47.0715 57.4039 46.7911 56.8429 46.2247L56.6025 46.4628ZM58.855 47.4099C59.7301 47.4099 60.4839 47.0924 61.1076 46.4628L60.8671 46.2247C60.306 46.7911 59.6383 47.0715 58.855 47.0715V47.4099ZM61.1076 46.4628C61.7307 45.8338 62.045 45.0776 62.045 44.203H61.7066C61.7066 44.9869 61.4285 45.6579 60.8671 46.2247L61.1076 46.4628ZM65.1325 47.0207L65.0447 47.1654L65.1325 47.0207ZM63.9394 45.8107L63.7922 45.8941L63.7933 45.8961L63.9394 45.8107ZM64.4809 41.8846L64.6001 42.0047L64.6006 42.0042L64.4809 41.8846ZM68.5255 41.3853H68.6948V41.2881L68.6108 41.2391L68.5255 41.3853ZM68.5255 41.6984L68.4303 41.8383L68.6948 42.0183V41.6984H68.5255ZM64.6755 42.0538L64.7952 42.1734L64.7958 42.1728L64.6755 42.0538ZM64.6755 46.3353L64.7958 46.2163L64.6755 46.3353ZM68.5255 46.6907H68.6948V46.3708L68.4303 46.5508L68.5255 46.6907ZM68.5255 47.0038L68.6142 47.1479L68.6948 47.0984V47.0038H68.5255ZM66.8502 47.3084H66.7571V47.6469H66.8502V47.3084ZM66.7571 47.3084C66.2073 47.3084 65.6962 47.1647 65.2202 46.876L65.0447 47.1654C65.5729 47.4859 66.1447 47.6469 66.7571 47.6469V47.3084ZM65.2202 46.876C64.7421 46.5859 64.3645 46.2028 64.0855 45.7253L63.7933 45.8961C64.1009 46.4227 64.5188 46.8463 65.0447 47.1654L65.2202 46.876ZM64.0866 45.7273C63.813 45.2444 63.6771 44.7343 63.6771 44.1946H63.3386C63.3386 44.7943 63.4904 45.3617 63.7922 45.8941L64.0866 45.7273ZM63.6771 44.1946C63.6771 43.3437 63.9827 42.6167 64.6001 42.0047L64.3618 41.7644C63.6816 42.4385 63.3386 43.2516 63.3386 44.1946H63.6771ZM64.6006 42.0042C65.2182 41.3867 65.9509 41.0807 66.8078 41.0807V40.7423C65.8596 40.7423 65.0412 41.085 64.3613 41.7649L64.6006 42.0042ZM66.8078 41.0807C67.3803 41.0807 67.9236 41.2301 68.4402 41.5315L68.6108 41.2391C68.0444 40.9088 67.4425 40.7423 66.8078 40.7423V41.0807ZM68.3563 41.3853V41.6984H68.6948V41.3853H68.3563ZM68.6208 41.5585C68.0637 41.1793 67.4582 40.9876 66.8078 40.9876V41.3261C67.3872 41.3261 67.9268 41.4955 68.4303 41.8383L68.6208 41.5585ZM66.8078 40.9876C65.9327 40.9876 65.1788 41.3052 64.5553 41.9347L64.7958 42.1728C65.3569 41.6065 66.0246 41.3261 66.8078 41.3261V40.9876ZM64.5559 41.9341C63.9319 42.558 63.6179 43.3146 63.6179 44.1946H63.9563C63.9563 43.4048 64.2345 42.7342 64.7952 42.1734L64.5559 41.9341ZM63.6179 44.1946C63.6179 45.0691 63.9321 45.8254 64.5553 46.4544L64.7958 46.2163C64.2344 45.6494 63.9563 44.9784 63.9563 44.1946H63.6179ZM64.5553 46.4544C65.1788 47.0839 65.9327 47.4015 66.8078 47.4015V47.063C66.0246 47.063 65.3569 46.7826 64.7958 46.2163L64.5553 46.4544ZM66.8078 47.4015C67.4582 47.4015 68.0637 47.2098 68.6208 46.8306L68.4303 46.5508C67.9268 46.8936 67.3872 47.063 66.8078 47.063V47.4015ZM68.3563 46.6907V47.0038H68.6948V46.6907H68.3563ZM68.4369 46.8597C67.9502 47.1591 67.4225 47.3084 66.8502 47.3084V47.6469C67.485 47.6469 68.0742 47.4803 68.6142 47.1479L68.4369 46.8597ZM72.7286 41.0384H72.8979V40.8692H72.7286V41.0384ZM72.7286 41.2838V41.453H72.8979V41.2838H72.7286ZM71.2817 41.2838V41.1146H71.1125V41.2838H71.2817ZM71.2817 47.3846V47.5538H71.4509V47.3846H71.2817ZM71.0025 47.3846H70.8333V47.5538H71.0025V47.3846ZM71.0025 41.2838H71.1717V41.1146H71.0025V41.2838ZM69.5386 41.2838H69.3694V41.453H69.5386V41.2838ZM69.5386 41.0384V40.8692H69.3694V41.0384H69.5386ZM72.5594 41.0384V41.2838H72.8979V41.0384H72.5594ZM72.7286 41.1146H71.2817V41.453H72.7286V41.1146ZM71.1125 41.2838V47.3846H71.4509V41.2838H71.1125ZM71.2817 47.2153H71.0025V47.5538H71.2817V47.2153ZM71.1717 47.3846V41.2838H70.8333V47.3846H71.1717ZM71.0025 41.1146H69.5386V41.453H71.0025V41.1146ZM69.7079 41.2838V41.0384H69.3694V41.2838H69.7079ZM69.5386 41.2076H72.7286V40.8692H69.5386V41.2076ZM74.0805 41.0384V40.8692H73.9112V41.0384H74.0805ZM74.3597 41.0384H74.5289V40.8692H74.3597V41.0384ZM74.3597 43.5176H74.1905V43.6869H74.3597V43.5176ZM75.7389 44.093L75.8551 43.97L75.7389 44.093ZM75.7474 46.8092L75.8653 46.9306V46.9305L75.7474 46.8092ZM74.0805 47.3846H73.9112V47.5538H74.0805V47.3846ZM74.3597 43.763V43.5938H74.1905V43.763H74.3597ZM74.3597 47.1392H74.1905V47.3084H74.3597V47.1392ZM75.5612 46.6315L75.4416 46.5118L75.4406 46.5129L75.5612 46.6315ZM75.5697 44.2707L75.449 44.3893L75.45 44.3904L75.5697 44.2707ZM74.0805 41.2076H74.3597V40.8692H74.0805V41.2076ZM74.1905 41.0384V43.5176H74.5289V41.0384H74.1905ZM74.3597 43.6869H74.4358V43.3484H74.3597V43.6869ZM74.4358 43.6869C74.8466 43.6869 75.2411 43.8556 75.6227 44.2161L75.8551 43.97C75.4245 43.5632 74.9503 43.3484 74.4358 43.3484V43.6869ZM75.6227 44.2161C75.9979 44.5704 76.1789 44.9783 76.1789 45.4469H76.5174C76.5174 44.8775 76.2922 44.3828 75.8551 43.97L75.6227 44.2161ZM76.1789 45.4469C76.1789 45.9164 76 46.3277 75.6294 46.6878L75.8653 46.9305C76.2959 46.5122 76.5174 46.0153 76.5174 45.4469H76.1789ZM75.6295 46.6878C75.2648 47.042 74.8441 47.2153 74.3597 47.2153V47.5538C74.9358 47.5538 75.4402 47.3435 75.8653 46.9306L75.6295 46.6878ZM74.3597 47.2153H74.0805V47.5538H74.3597V47.2153ZM74.2497 47.3846V41.0384H73.9112V47.3846H74.2497ZM74.4274 43.5938H74.3597V43.9323H74.4274V43.5938ZM74.1905 43.763V47.1392H74.5289V43.763H74.1905ZM74.3597 47.3084H74.4274V46.9699H74.3597V47.3084ZM74.4274 47.3084C74.9016 47.3084 75.3215 47.1167 75.6819 46.7501L75.4406 46.5129C75.1354 46.8232 74.7993 46.9699 74.4274 46.9699V47.3084ZM75.6809 46.7511C76.0489 46.3831 76.2381 45.9459 76.2381 45.4469H75.8997C75.8997 45.8503 75.7504 46.203 75.4416 46.5118L75.6809 46.7511ZM76.2381 45.4469C76.2381 44.9486 76.0524 44.5141 75.6893 44.1511L75.45 44.3904C75.7526 44.6929 75.8997 45.0426 75.8997 45.4469H76.2381ZM75.6903 44.1521C75.3295 43.785 74.9066 43.5938 74.4274 43.5938V43.9323C74.8056 43.9323 75.1442 44.0795 75.449 44.3893L75.6903 44.1521Z" fill="black"/>
<path d="M16.0837 29.6154H2.03076V9.3077H2.9243V28.8302H13.8905V9.3077H14.784V28.8302H16.8689V32.2418H16.0837V29.6154ZM36.8365 9.3077V29.6154H35.9429V10.5803L21.7817 29.6154H20.9423V9.3077H21.8358V28.2886L35.9429 9.3077H36.8365ZM51.1143 9.3077V10.0929H46.4841V29.6154H45.5906V10.0929H40.9063V9.3077H51.1143ZM55.1692 9.3077H56.0628C57.9401 9.3077 59.5377 9.95754 60.8554 11.2572C62.1731 12.5389 62.832 14.0552 62.832 15.8062C62.832 17.5571 62.146 19.0644 60.7741 20.328C59.4203 21.5916 57.922 22.2234 56.2794 22.2234H56.0628V29.6154H55.1692V9.3077ZM56.0628 21.4652H56.2794C57.7957 21.4652 59.1134 20.9057 60.2326 19.7865C61.3698 18.6673 61.9384 17.3405 61.9384 15.8062C61.9384 14.2718 61.3608 12.936 60.2055 11.7988C59.0683 10.6615 57.7596 10.0929 56.2794 10.0929H56.0628V21.4652ZM72.9643 8.82031L83.1181 29.6154H82.1704L78.3255 21.8714H67.4676L63.6769 29.6154H62.8375L72.9643 8.82031ZM72.883 10.6886L67.8196 21.0862H78.0006L72.883 10.6886Z" fill="black"/>
<path d="M16.0841 29.6155H16.5917V29.1078H16.0841V29.6155ZM2.03113 29.6155H1.52344V30.1232H2.03113V29.6155ZM2.03113 9.30783V8.80014H1.52344V9.30783H2.03113ZM2.92467 9.30783H3.43236V8.80014H2.92467V9.30783ZM2.92467 28.8303H2.41698V29.338H2.92467V28.8303ZM13.8908 28.8303V29.338H14.3985V28.8303H13.8908ZM13.8908 9.30783V8.80014H13.3831V9.30783H13.8908ZM14.7844 9.30783H15.2921V8.80014H14.7844V9.30783ZM14.7844 28.8303H14.2767V29.338H14.7844V28.8303ZM16.8693 28.8303H17.377V28.3226H16.8693V28.8303ZM16.8693 32.242V32.7497H17.377V32.242H16.8693ZM16.0841 32.242H15.5764V32.7497H16.0841V32.242ZM16.0841 29.1078H2.03113V30.1232H16.0841V29.1078ZM2.53882 29.6155V9.30783H1.52344V29.6155H2.53882ZM2.03113 9.81552H2.92467V8.80014H2.03113V9.81552ZM2.41698 9.30783V28.8303H3.43236V9.30783H2.41698ZM2.92467 29.338H13.8908V28.3226H2.92467V29.338ZM14.3985 28.8303V9.30783H13.3831V28.8303H14.3985ZM13.8908 9.81552H14.7844V8.80014H13.8908V9.81552ZM14.2767 9.30783V28.8303H15.2921V9.30783H14.2767ZM14.7844 29.338H16.8693V28.3226H14.7844V29.338ZM16.3616 28.8303V32.242H17.377V28.8303H16.3616ZM16.8693 31.7343H16.0841V32.7497H16.8693V31.7343ZM16.5917 32.242V29.6155H15.5764V32.242H16.5917ZM36.8368 9.30783H37.3445V8.80014H36.8368V9.30783ZM36.8368 29.6155V30.1232H37.3445V29.6155H36.8368ZM35.9433 29.6155H35.4356V30.1232H35.9433V29.6155ZM35.9433 10.5804H36.451V9.04747L35.5359 10.2774L35.9433 10.5804ZM21.7821 29.6155V30.1232H22.0372L22.1894 29.9185L21.7821 29.6155ZM20.9427 29.6155H20.435V30.1232H20.9427V29.6155ZM20.9427 9.30783V8.80014H20.435V9.30783H20.9427ZM21.8362 9.30783H22.3439V8.80014H21.8362V9.30783ZM21.8362 28.2888H21.3285V29.8229L22.2437 28.5916L21.8362 28.2888ZM35.9433 9.30783V8.80014H35.6881L35.5358 9.00499L35.9433 9.30783ZM36.3291 9.30783V29.6155H37.3445V9.30783H36.3291ZM36.8368 29.1078H35.9433V30.1232H36.8368V29.1078ZM36.451 29.6155V10.5804H35.4356V29.6155H36.451ZM35.5359 10.2774L21.3747 29.3125L22.1894 29.9185L36.3506 10.8835L35.5359 10.2774ZM21.7821 29.1078H20.9427V30.1232H21.7821V29.1078ZM21.4504 29.6155V9.30783H20.435V29.6155H21.4504ZM20.9427 9.81552H21.8362V8.80014H20.9427V9.81552ZM21.3285 9.30783V28.2888H22.3439V9.30783H21.3285ZM22.2437 28.5916L36.3508 9.61067L35.5358 9.00499L21.4287 27.9859L22.2437 28.5916ZM35.9433 9.81552H36.8368V8.80014H35.9433V9.81552ZM51.1147 9.30783H51.6223V8.80014H51.1147V9.30783ZM51.1147 10.0931V10.6008H51.6223V10.0931H51.1147ZM46.4845 10.0931V9.58537H45.9768V10.0931H46.4845ZM46.4845 29.6155V30.1232H46.9922V29.6155H46.4845ZM45.591 29.6155H45.0833V30.1232H45.591V29.6155ZM45.591 10.0931H46.0987V9.58537H45.591V10.0931ZM40.9067 10.0931H40.399V10.6008H40.9067V10.0931ZM40.9067 9.30783V8.80014H40.399V9.30783H40.9067ZM50.607 9.30783V10.0931H51.6223V9.30783H50.607ZM51.1147 9.58537H46.4845V10.6008H51.1147V9.58537ZM45.9768 10.0931V29.6155H46.9922V10.0931H45.9768ZM46.4845 29.1078H45.591V30.1232H46.4845V29.1078ZM46.0987 29.6155V10.0931H45.0833V29.6155H46.0987ZM45.591 9.58537H40.9067V10.6008H45.591V9.58537ZM41.4143 10.0931V9.30783H40.399V10.0931H41.4143ZM40.9067 9.81552H51.1147V8.80014H40.9067V9.81552ZM55.1696 9.30783V8.80014H54.6619V9.30783H55.1696ZM60.8557 11.2574L60.4993 11.6188L60.5018 11.6213L60.8557 11.2574ZM60.7745 20.3281L60.4306 19.9547L60.4281 19.957L60.7745 20.3281ZM56.0631 22.2235V21.7158H55.5554V22.2235H56.0631ZM56.0631 29.6155V30.1232H56.5708V29.6155H56.0631ZM55.1696 29.6155H54.6619V30.1232H55.1696V29.6155ZM56.0631 21.4654H55.5554V21.9731H56.0631V21.4654ZM60.233 19.7866L59.8768 19.4247L59.8739 19.4276L60.233 19.7866ZM60.2059 11.7989L59.8469 12.1579L59.8498 12.1607L60.2059 11.7989ZM56.0631 10.0931V9.58537H55.5554V10.0931H56.0631ZM55.1696 9.81552H56.0631V8.80014H55.1696V9.81552ZM56.0631 9.81552C57.8092 9.81552 59.278 10.4143 60.4993 11.6188L61.2122 10.8959C59.798 9.501 58.0717 8.80014 56.0631 8.80014V9.81552ZM60.5018 11.6213C61.7267 12.8127 62.3247 14.1999 62.3247 15.8063H63.3401C63.3401 13.9107 62.6202 12.2653 61.2097 10.8934L60.5018 11.6213ZM62.3247 15.8063C62.3247 17.4053 61.7057 18.7802 60.4306 19.9547L61.1185 20.7015C62.5871 19.3489 63.3401 17.7092 63.3401 15.8063H62.3247ZM60.4281 19.957C59.1553 21.1449 57.7772 21.7158 56.2797 21.7158V22.7312C58.0677 22.7312 59.686 22.0386 61.1209 20.6993L60.4281 19.957ZM56.2797 21.7158H56.0631V22.7312H56.2797V21.7158ZM55.5554 22.2235V29.6155H56.5708V22.2235H55.5554ZM56.0631 29.1078H55.1696V30.1232H56.0631V29.1078ZM55.6773 29.6155V9.30783H54.6619V29.6155H55.6773ZM56.0631 21.9731H56.2797V20.9577H56.0631V21.9731ZM56.2797 21.9731C57.9371 21.9731 59.3823 21.3554 60.592 20.1456L59.8739 19.4276C58.8454 20.4562 57.655 20.9577 56.2797 20.9577V21.9731ZM60.5891 20.1484C61.8189 18.9381 62.4465 17.4827 62.4465 15.8063H61.4311C61.4311 17.1986 60.9215 18.3967 59.8768 19.4248L60.5891 20.1484ZM62.4465 15.8063C62.4465 14.1275 61.8082 12.6638 60.562 11.4371L59.8498 12.1607C60.9142 13.2085 61.4311 14.4163 61.4311 15.8063H62.4465ZM60.5649 11.4399C59.3416 10.2165 57.9069 9.58537 56.2797 9.58537V10.6008C57.6129 10.6008 58.7958 11.1068 59.8469 12.1579L60.5649 11.4399ZM56.2797 9.58537H56.0631V10.6008H56.2797V9.58537ZM55.5554 10.0931V21.4654H56.5708V10.0931H55.5554ZM72.9646 8.82044L73.4209 8.59765L72.964 7.66211L72.5082 8.59816L72.9646 8.82044ZM83.1185 29.6155V30.1232H83.9314L83.5747 29.3927L83.1185 29.6155ZM82.1708 29.6155L81.7161 29.8413L81.856 30.1232H82.1708V29.6155ZM78.3259 21.8715L78.7806 21.6458L78.6406 21.3638H78.3259V21.8715ZM67.468 21.8715V21.3638H67.1513L67.012 21.6483L67.468 21.8715ZM63.6772 29.6155V30.1232H63.994L64.1332 29.8387L63.6772 29.6155ZM62.8379 29.6155L62.3814 29.3932L62.026 30.1232H62.8379V29.6155ZM72.8834 10.6888L73.3389 10.4645L72.8809 9.53417L72.427 10.4665L72.8834 10.6888ZM67.82 21.0863L67.3636 20.864L67.0081 21.594H67.82V21.0863ZM78.0009 21.0863V21.594H78.8167L78.4564 20.8621L78.0009 21.0863ZM72.5084 9.04324L82.6622 29.8383L83.5747 29.3927L73.4209 8.59765L72.5084 9.04324ZM83.1185 29.1078H82.1708V30.1232H83.1185V29.1078ZM82.6255 29.3898L78.7806 21.6458L77.8711 22.0973L81.7161 29.8413L82.6255 29.3898ZM78.3259 21.3638H67.468V22.3792H78.3259V21.3638ZM67.012 21.6483L63.2212 29.3923L64.1332 29.8387L67.924 22.0947L67.012 21.6483ZM63.6772 29.1078H62.8379V30.1232H63.6772V29.1078ZM63.2943 29.8378L73.421 9.04273L72.5082 8.59816L62.3814 29.3932L63.2943 29.8378ZM72.427 10.4665L67.3636 20.864L68.2764 21.3086L73.3398 10.911L72.427 10.4665ZM67.82 21.594H78.0009V20.5786H67.82V21.594ZM78.4564 20.8621L73.3389 10.4645L72.4279 10.913L77.5455 21.3105L78.4564 20.8621Z" fill="black"/>
<path d="M1.69238 34.4807H83.7693" stroke="black" stroke-width="0.5"/>
<path d="M11.8462 36.1731H73.6154" stroke="black" stroke-width="0.5"/>
</g>
<defs>
<clipPath id="clip0_2_315">
<rect width="99" height="51.6154" fill="white"/>
</clipPath>
</defs>
</svg>
