<svg width="1440" height="5017" viewBox="0 0 1440 5017" fill="none" xmlns="http://www.w3.org/2000/svg">
<path d="M2709.13 1441.28C3136.74 1751.96 3471.5 2105.26 3667.06 2425.31C3764.84 2585.34 3827.81 2737.03 3850.2 2870.91C3872.6 3004.78 3854.41 3120.8 3789.93 3209.55C3725.45 3298.3 3620.73 3351.45 3486.49 3371.52C3352.24 3391.6 3188.52 3378.58 3006.11 3335.04C2641.29 3247.95 2201.83 3038.75 1774.22 2728.07C1346.61 2417.39 1011.85 2064.09 816.288 1744.04C718.505 1584.01 655.535 1432.32 633.143 1298.45C610.752 1164.57 628.942 1048.55 693.422 959.805C757.902 871.057 862.62 817.905 996.861 797.831C1131.1 777.757 1294.83 790.77 1477.24 834.317C1842.06 921.408 2281.52 1130.61 2709.13 1441.28Z" stroke="black" stroke-opacity="0.07"/>
<path d="M2720.28 1449.54C3142.41 1767.63 3470.95 2126.72 3660.9 2450.14C3755.87 2611.85 3816.19 2764.61 3836.24 2898.86C3856.29 3033.1 3836.08 3148.79 3770.06 3236.4C3704.04 3324.01 3598.41 3375.32 3463.84 3393.05C3329.27 3410.78 3165.79 3394.91 2984.17 3348.19C2620.93 3254.74 2185.19 3037.91 1763.06 2719.82C1340.94 2401.72 1012.4 2042.63 822.45 1719.21C727.475 1557.51 667.162 1404.74 647.11 1270.49C627.058 1136.25 647.27 1020.57 713.289 932.956C779.308 845.346 884.938 794.031 1019.51 776.303C1154.08 758.575 1317.55 774.443 1499.18 821.166C1862.42 914.611 2298.16 1131.45 2720.28 1449.54Z" stroke="black" stroke-opacity="0.07"/>
<path d="M2731.3 1457.99C3147.8 1783.4 3470.03 2148.17 3654.3 2474.85C3746.44 2638.19 3804.08 2791.99 3821.79 2926.57C3839.49 3061.14 3817.26 3176.45 3749.73 3262.9C3682.19 3349.34 3575.68 3398.8 3440.82 3414.18C3305.96 3429.56 3142.79 3410.84 2962.01 3360.95C2600.45 3261.18 2168.56 3036.78 1752.05 2711.36C1335.54 2385.95 1013.32 2021.18 829.045 1694.5C736.906 1531.16 679.269 1377.36 661.563 1242.79C643.857 1108.21 666.085 992.902 733.623 906.457C801.161 820.013 907.67 770.548 1042.53 755.172C1177.39 739.795 1340.56 758.514 1521.34 808.4C1882.9 908.17 2314.79 1132.58 2731.3 1457.99Z" stroke="black" stroke-opacity="0.07"/>
<path d="M2742.16 1466.63C3152.92 1799.26 3468.73 2169.6 3647.28 2499.45C3736.55 2664.37 3791.5 2819.15 3806.85 2954.02C3822.21 3088.88 3797.97 3203.78 3728.93 3289.04C3659.9 3374.29 3552.54 3421.89 3417.43 3434.91C3282.32 3447.93 3119.5 3426.36 2939.62 3373.33C2579.86 3267.27 2151.95 3035.36 1741.19 2702.73C1330.43 2370.1 1014.62 1999.75 836.07 1669.91C746.796 1504.98 691.851 1350.2 676.497 1215.34C661.142 1080.48 685.379 965.572 754.416 880.319C823.452 795.066 930.809 747.468 1065.92 734.448C1201.03 721.427 1363.85 742.991 1543.73 796.024C1903.49 902.089 2331.4 1134 2742.16 1466.63Z" stroke="black" stroke-opacity="0.07"/>
<path d="M2752.87 1475.46C3157.77 1815.21 3467.06 2191 3639.83 2523.91C3726.21 2690.37 3778.44 2846.09 3791.44 2981.2C3804.44 3116.31 3778.2 3230.77 3707.69 3314.81C3637.17 3398.84 3529 3444.56 3393.69 3455.22C3258.37 3465.88 3095.95 3441.48 2917.03 3385.31C2559.17 3272.99 2135.37 3033.64 1730.48 2693.9C1325.58 2354.15 1016.28 1978.35 843.521 1645.44C757.139 1478.98 704.904 1323.27 691.906 1188.16C678.907 1053.05 705.146 938.58 775.66 854.545C846.173 770.51 954.345 724.793 1089.66 714.132C1224.97 703.472 1387.39 727.874 1566.32 784.038C1924.18 896.366 2347.97 1135.71 2752.87 1475.46Z" stroke="black" stroke-opacity="0.07"/>
<path d="M2763.42 1484.47C3162.33 1831.24 3465.02 2212.37 3631.95 2548.25C3715.41 2716.19 3764.92 2872.79 3775.56 3008.11C3786.2 3143.42 3757.97 3257.42 3686 3340.21C3614.03 3423 3505.07 3466.82 3369.6 3475.12C3234.11 3483.42 3072.15 3456.18 2894.22 3396.9C2538.38 3278.35 2118.83 3031.64 1719.92 2684.88C1321.02 2338.12 1018.33 1956.98 851.401 1621.1C767.938 1453.16 718.428 1296.56 707.789 1161.25C697.151 1025.93 725.383 911.938 797.353 829.147C869.322 746.356 978.275 702.533 1113.75 694.236C1249.24 685.938 1411.2 713.172 1589.12 772.45C1944.97 891.006 2364.52 1137.71 2763.42 1484.47Z" stroke="black" stroke-opacity="0.07"/>
<path d="M2773.82 1493.67C3166.61 1847.34 3462.61 2233.7 3623.65 2572.44C3704.17 2741.81 3750.93 2899.25 3759.21 3034.74C3767.49 3170.22 3737.27 3283.7 3663.86 3365.22C3590.46 3446.74 3480.76 3488.66 3345.16 3494.59C3209.55 3500.52 3048.08 3470.47 2871.22 3408.09C2517.51 3283.34 2102.32 3029.35 1709.53 2675.68C1316.74 2322.01 1020.74 1935.65 859.703 1596.91C779.183 1427.54 732.414 1270.1 724.139 1134.61C715.864 999.134 746.082 885.653 819.485 804.13C892.888 722.607 1002.59 680.693 1138.19 674.761C1273.8 668.829 1435.27 698.885 1612.13 761.26C1965.84 886.008 2381.03 1140 2773.82 1493.67Z" stroke="black" stroke-opacity="0.07"/>
<path d="M2784.05 1503.04C3170.61 1863.52 3459.82 2254.99 3614.92 2596.48C3692.47 2767.23 3736.49 2925.47 3742.4 3061.08C3748.31 3196.68 3716.11 3309.62 3641.3 3389.85C3566.48 3470.07 3456.07 3510.07 3320.38 3513.63C3184.69 3517.2 3023.78 3484.33 2848.03 3418.88C2496.55 3287.97 2085.86 3026.78 1699.3 2666.31C1312.74 2305.83 1023.53 1914.36 868.427 1572.86C790.875 1402.11 746.861 1243.88 740.951 1108.27C735.042 972.669 767.236 859.733 842.051 779.504C916.866 699.275 1027.28 659.281 1162.97 655.717C1298.66 652.153 1459.58 685.022 1635.32 750.474C1986.8 881.376 2397.49 1142.57 2784.05 1503.04Z" stroke="black" stroke-opacity="0.07"/>
<path d="M2794.12 1512.6C3174.33 1879.76 3456.66 2276.22 3605.78 2620.37C3680.34 2792.45 3721.59 2951.43 3725.13 3087.12C3728.67 3222.8 3694.51 3335.16 3618.31 3414.07C3542.1 3492.98 3431.01 3531.04 3295.28 3532.24C3159.55 3533.44 2999.23 3497.76 2824.65 3429.25C2475.51 3292.24 2069.44 3023.92 1689.23 2656.75C1309.02 2289.59 1026.69 1893.13 877.569 1548.98C803.009 1376.9 761.763 1217.92 758.221 1082.23C754.679 946.544 788.839 834.186 865.042 755.275C941.246 676.364 1052.34 638.304 1188.07 637.108C1323.8 635.912 1484.12 671.585 1658.7 740.094C2007.84 877.111 2413.91 1145.43 2794.12 1512.6Z" stroke="black" stroke-opacity="0.07"/>
<path d="M2804.02 1522.33C3177.77 1896.07 3453.14 2297.4 3596.22 2644.1C3667.77 2817.45 3706.23 2977.13 3707.41 3112.86C3708.58 3248.58 3672.47 3360.33 3594.9 3437.9C3517.33 3515.47 3405.58 3551.58 3269.86 3550.41C3134.13 3549.24 2974.45 3510.77 2801.1 3439.23C2454.4 3296.14 2053.07 3020.77 1679.33 2647.02C1305.58 2273.28 1030.21 1871.96 887.125 1525.25C815.58 1351.9 777.115 1192.23 775.941 1056.5C774.768 920.767 810.883 809.023 888.453 731.454C966.022 653.884 1077.77 617.769 1213.49 618.942C1349.22 620.116 1508.9 658.581 1682.25 730.126C2028.95 873.215 2430.28 1148.58 2804.02 1522.33Z" stroke="black" stroke-opacity="0.07"/>
<path d="M2813.75 1532.23C3180.91 1912.44 3449.24 2318.51 3586.25 2667.65C3654.76 2842.23 3690.44 3002.55 3689.24 3138.28C3688.04 3274.01 3649.98 3385.11 3571.07 3461.31C3492.16 3537.51 3379.8 3571.67 3244.12 3568.13C3108.43 3564.59 2949.45 3523.34 2777.37 3448.78C2433.22 3299.66 2036.76 3017.33 1669.6 2637.12C1302.43 2256.91 1034.11 1850.85 897.093 1501.7C828.584 1327.12 792.912 1166.8 794.108 1031.07C795.303 895.344 833.363 784.247 912.275 708.043C991.186 631.839 1103.54 597.68 1239.23 601.222C1374.92 604.764 1533.9 646.01 1705.98 720.569C2050.13 869.688 2446.58 1152.02 2813.75 1532.23Z" stroke="black" stroke-opacity="0.07"/>
<path d="M2823.31 1542.3C3183.78 1928.86 3444.97 2339.55 3575.88 2691.03C3641.33 2866.78 3674.2 3027.69 3670.63 3163.38C3667.07 3299.07 3627.08 3409.48 3546.85 3484.3C3466.62 3559.11 3353.68 3591.31 3218.08 3585.4C3082.47 3579.49 2924.24 3535.48 2753.49 3457.92C2411.99 3302.82 2020.52 3013.61 1660.05 2627.05C1299.57 2240.49 1038.38 1829.81 907.475 1478.32C842.023 1302.58 809.154 1141.66 812.718 1005.97C816.283 870.281 856.276 759.866 936.505 685.051C1016.73 610.236 1129.67 578.042 1265.27 583.952C1400.88 589.861 1559.12 633.875 1729.87 711.427C2071.36 866.529 2462.83 1155.74 2823.31 1542.3Z" stroke="black" stroke-opacity="0.07"/>
<path d="M2832.68 1552.53C3186.36 1945.32 3440.34 2360.51 3565.09 2714.22C3627.47 2891.08 3657.52 3052.55 3651.59 3188.16C3645.66 3323.76 3603.74 3433.46 3522.22 3506.86C3440.7 3580.27 3327.22 3610.49 3191.74 3602.21C3056.25 3593.93 2898.81 3547.17 2729.44 3466.65C2390.7 3305.61 2004.34 3009.61 1650.67 2616.82C1297 2224.03 1043.01 1808.84 918.261 1455.13C855.886 1278.27 825.831 1116.8 831.763 981.193C837.694 845.589 879.608 735.888 961.131 662.485C1042.65 589.082 1156.13 558.864 1291.62 567.139C1427.1 575.415 1584.54 622.184 1753.91 702.703C2092.65 863.742 2479.01 1159.74 2832.68 1552.53Z" stroke="black" stroke-opacity="0.07"/>
<path d="M2841.88 1562.92C3188.65 1961.83 3435.35 2381.38 3553.9 2737.22C3613.18 2915.14 3640.42 3077.11 3632.12 3212.59C3623.82 3348.07 3580 3457.03 3497.21 3529C3414.42 3600.97 3300.42 3629.2 3165.11 3618.56C3029.79 3607.92 2873.19 3558.41 2705.25 3474.95C2369.37 3308.02 1988.24 3005.33 1641.47 2606.42C1294.71 2207.52 1048.01 1787.96 929.451 1432.12C870.172 1254.2 842.939 1092.23 851.237 956.753C859.534 821.274 903.357 712.322 986.148 640.352C1068.94 568.383 1182.93 540.15 1318.25 550.789C1453.56 561.427 1610.17 610.937 1778.11 694.4C2113.98 861.326 2495.12 1164.02 2841.88 1562.92Z" stroke="black" stroke-opacity="0.07"/>
<path d="M2850.89 1573.48C3190.64 1978.38 3429.99 2402.17 3542.31 2760.03C3598.48 2938.95 3622.88 3101.37 3612.22 3236.69C3601.56 3372 3555.84 3480.17 3471.81 3550.69C3387.77 3621.2 3273.31 3647.44 3138.2 3634.44C3003.08 3621.44 2847.37 3569.21 2680.91 3482.83C2348 3310.06 1972.2 3000.77 1632.46 2595.87C1292.71 2190.97 1053.36 1767.18 941.036 1409.32C884.872 1230.39 860.47 1067.98 871.131 932.659C881.791 797.345 927.508 689.174 1011.54 618.661C1095.58 548.147 1210.04 521.908 1345.15 534.907C1480.27 547.905 1635.98 600.14 1802.44 686.522C2135.35 859.284 2511.15 1168.58 2850.89 1573.48Z" stroke="black" stroke-opacity="0.07"/>
<path d="M2859.72 1584.19C3192.35 1994.95 3424.26 2422.86 3530.33 2782.62C3583.36 2962.51 3604.93 3125.33 3591.91 3260.43C3578.88 3395.54 3531.29 3502.9 3446.03 3571.93C3360.78 3640.97 3245.87 3665.21 3111.01 3649.85C2976.15 3634.5 2821.37 3579.55 2656.45 3490.28C2326.6 3311.73 1956.26 2995.93 1623.63 2585.16C1291 2174.4 1059.09 1746.49 953.022 1386.73C899.989 1206.85 878.425 1044.03 891.445 908.916C904.466 773.809 952.064 666.452 1037.32 597.416C1122.57 528.38 1237.48 504.143 1372.34 519.497C1507.2 534.852 1661.98 589.797 1826.91 679.07C2156.75 857.616 2527.09 1173.43 2859.72 1584.19Z" stroke="black" stroke-opacity="0.07"/>
<path d="M2868.36 1595.05C3193.78 2011.56 3418.18 2443.45 3517.95 2805.01C3567.84 2985.79 3586.56 3148.96 3571.18 3283.82C3555.8 3418.68 3506.34 3525.19 3419.9 3592.73C3333.45 3660.26 3218.14 3682.49 3083.57 3664.79C2948.99 3647.08 2795.19 3589.44 2631.85 3497.31C2305.17 3313.03 1940.4 2990.8 1614.99 2574.3C1289.58 2157.79 1065.17 1725.9 965.4 1364.34C915.514 1183.56 896.795 1020.39 912.172 885.531C927.548 750.672 977.013 644.162 1063.46 576.624C1149.9 509.086 1265.21 486.858 1399.79 504.564C1534.36 522.27 1688.16 579.907 1851.5 672.046C2178.18 856.321 2542.95 1178.55 2868.36 1595.05Z" stroke="black" stroke-opacity="0.07"/>
<path d="M2876.81 1606.06C3194.91 2028.19 3411.74 2463.93 3505.19 2827.17C3551.91 3008.79 3567.78 3172.27 3550.05 3306.84C3532.32 3441.41 3481.01 3547.04 3393.4 3613.06C3305.79 3679.08 3190.1 3699.29 3055.86 3679.24C2921.61 3659.19 2768.85 3598.87 2607.14 3503.9C2283.72 3313.95 1924.63 2985.41 1606.54 2563.29C1288.44 2141.16 1071.61 1705.42 978.164 1342.18C931.441 1160.56 915.573 997.083 933.301 862.51C951.029 727.94 1002.34 622.309 1089.95 556.29C1177.56 490.271 1293.25 470.059 1427.49 490.111C1561.74 510.163 1714.5 570.476 1876.21 665.451C2199.63 855.4 2558.72 1183.94 2876.81 1606.06Z" stroke="black" stroke-opacity="0.07"/>
<path d="M2885.07 1617.22C3195.75 2044.83 3404.94 2484.29 3492.04 2849.11C3535.58 3031.52 3548.6 3195.25 3528.52 3329.49C3508.45 3463.73 3455.3 3568.45 3366.55 3632.93C3277.8 3697.41 3161.78 3715.6 3027.91 3693.21C2894.03 3670.81 2742.34 3607.84 2582.31 3510.06C2262.26 3314.5 1908.96 2979.74 1598.28 2552.13C1287.61 2124.52 1078.41 1685.06 991.316 1320.24C947.77 1137.83 934.757 974.104 954.831 839.861C974.905 705.621 1028.06 600.902 1116.81 536.422C1205.55 471.943 1321.57 453.752 1455.45 476.144C1589.32 498.536 1741.01 561.506 1901.04 659.288C2221.09 854.853 2574.39 1189.61 2885.07 1617.22Z" stroke="black" stroke-opacity="0.07"/>
<path d="M2893.13 1628.52C3196.3 2061.49 3397.79 2504.53 3478.5 2870.82C3518.86 3053.96 3529.01 3217.89 3506.6 3351.76C3484.19 3485.63 3429.22 3589.4 3339.36 3652.32C3249.49 3715.24 3133.18 3731.41 2999.71 3706.68C2866.25 3681.96 2715.68 3616.35 2557.39 3515.79C2240.8 3314.67 1893.39 2973.8 1590.22 2540.83C1287.06 2107.86 1085.56 1664.82 1004.85 1298.54C964.492 1115.39 954.338 951.465 976.752 817.593C999.166 683.723 1054.14 579.948 1144 517.027C1233.86 454.106 1350.18 437.943 1483.64 462.668C1617.1 487.393 1767.67 553 1925.97 653.561C2242.56 854.681 2589.96 1195.56 2893.13 1628.52Z" stroke="black" stroke-opacity="0.07"/>
<path d="M2900.99 1639.96C3196.55 2078.15 3390.29 2524.65 3464.59 2892.28C3501.75 3076.1 3509.04 3240.18 3484.29 3373.64C3459.55 3507.1 3402.77 3609.9 3311.83 3671.24C3220.88 3732.59 3104.3 3746.72 2971.29 3719.67C2838.28 3692.62 2688.88 3624.39 2532.36 3521.08C2219.33 3314.47 1877.92 2967.58 1582.36 2529.39C1286.79 2091.2 1093.06 1644.71 1018.75 1277.07C981.601 1093.25 974.31 929.171 999.057 795.71C1023.8 662.252 1080.58 559.452 1171.52 498.109C1262.47 436.766 1379.05 422.636 1512.06 449.686C1645.07 476.736 1794.47 544.962 1950.99 648.27C2264.02 854.884 2605.43 1201.77 2900.99 1639.96Z" stroke="black" stroke-opacity="0.07"/>
<path d="M2908.65 1651.53C3196.52 2094.82 3382.44 2544.62 3450.32 2913.5C3484.25 3097.94 3488.68 3262.12 3461.61 3395.13C3434.54 3528.14 3375.98 3629.93 3283.98 3689.68C3191.97 3749.42 3075.16 3761.52 2942.65 3732.15C2810.13 3702.78 2661.94 3631.96 2507.25 3525.93C2197.87 3313.89 1862.57 2961.1 1574.7 2517.81C1286.83 2074.53 1100.92 1624.73 1033.04 1255.85C999.097 1071.41 994.671 907.227 1021.74 774.219C1048.81 641.213 1107.37 539.419 1199.38 479.673C1291.38 419.926 1408.19 407.833 1540.71 437.2C1673.23 466.567 1821.41 537.39 1976.1 643.414C2285.48 855.46 2620.78 1208.25 2908.65 1651.53Z" stroke="black" stroke-opacity="0.07"/>
<path d="M2916.11 1663.24C3196.2 2111.48 3374.23 2564.46 3435.67 2934.47C3466.38 3119.47 3467.94 3283.71 3438.55 3416.22C3409.16 3548.74 3348.84 3649.49 3255.81 3707.62C3162.78 3765.76 3045.77 3775.81 2913.79 3744.13C2781.8 3712.46 2634.87 3639.06 2482.05 3530.35C2176.42 3312.94 1847.33 2954.35 1567.24 2506.11C1287.15 2057.87 1109.12 1604.89 1047.69 1234.88C1016.97 1049.88 1015.41 885.644 1044.8 753.129C1074.19 620.615 1134.51 519.859 1227.55 461.728C1320.58 403.596 1437.58 393.543 1569.57 425.218C1701.55 456.894 1848.48 530.292 2001.3 639C2306.93 856.413 2636.02 1215 2916.11 1663.24Z" stroke="black" stroke-opacity="0.07"/>
<path d="M2923.36 1675.08C3195.59 2128.14 3365.69 2584.15 3420.65 2955.18C3448.14 3140.69 3446.83 3304.92 3415.13 3436.91C3383.43 3568.89 3321.36 3668.57 3227.33 3725.07C3133.3 3781.57 3016.13 3789.58 2884.72 3755.61C2753.31 3721.63 2607.68 3645.68 2456.79 3534.33C2155 3311.61 1832.21 2947.33 1559.99 2494.27C1287.76 2041.21 1117.66 1585.19 1062.7 1214.17C1035.22 1028.66 1036.52 864.424 1068.22 732.442C1099.92 600.462 1161.99 500.774 1256.02 444.275C1350.06 387.775 1467.22 379.766 1598.63 413.74C1730.04 447.715 1875.67 523.666 2026.56 635.024C2328.35 857.738 2651.14 1222.02 2923.36 1675.08Z" stroke="black" stroke-opacity="0.07"/>
<path d="M2930.41 1687.04C3194.69 2144.78 3356.8 2603.7 3405.28 2975.62C3429.52 3161.58 3425.35 3325.77 3391.35 3457.18C3357.36 3588.59 3293.55 3687.18 3198.55 3742.03C3103.55 3796.88 2986.26 3802.84 2855.46 3766.58C2724.66 3730.32 2580.38 3651.83 2431.45 3537.86C2133.6 3309.91 1817.22 2940.06 1552.94 2482.31C1288.67 2024.57 1126.55 1565.65 1078.07 1193.73C1053.83 1007.77 1058 843.578 1092 712.169C1125.99 580.762 1189.8 482.173 1284.8 427.323C1379.81 372.474 1497.09 366.51 1627.89 402.773C1758.69 439.036 1902.97 517.517 2051.9 631.491C2349.75 859.438 2666.13 1229.29 2930.41 1687.04Z" stroke="black" stroke-opacity="0.07"/>
<path d="M2937.24 1699.12C3193.49 2161.4 3347.57 2623.08 3389.55 2995.79C3410.55 3182.15 3403.51 3346.24 3367.22 3477.04C3330.94 3607.83 3265.42 3705.29 3169.48 3758.47C3073.53 3811.66 2956.16 3815.57 2826.02 3777.03C2695.87 3738.49 2552.98 3657.51 2406.06 3540.95C2112.23 3307.84 1802.36 2932.52 1546.11 2470.23C1289.86 2007.95 1135.78 1546.27 1093.8 1173.56C1072.81 987.201 1079.84 823.11 1116.13 692.314C1152.41 561.521 1217.93 464.06 1313.87 410.877C1409.82 357.694 1527.19 353.778 1657.34 392.318C1787.48 430.858 1930.37 511.845 2077.29 628.401C2371.12 861.512 2680.99 1236.83 2937.24 1699.12Z" stroke="black" stroke-opacity="0.07"/>
<path d="M2943.86 1711.31C3192.01 2178 3338.01 2642.3 3373.48 3015.69C3391.21 3202.38 3381.31 3366.33 3342.75 3496.47C3304.19 3626.61 3236.98 3722.91 3140.12 3774.41C3043.26 3825.91 2925.84 3827.78 2796.39 3786.97C2666.93 3746.17 2525.48 3662.7 2380.62 3543.6C2090.9 3305.39 1787.63 2924.72 1539.48 2458.04C1291.34 1991.35 1145.34 1527.05 1109.87 1153.66C1092.14 966.968 1102.04 803.025 1140.6 672.882C1179.16 542.742 1246.37 446.44 1343.23 394.939C1440.08 343.438 1557.5 341.571 1686.96 382.376C1816.42 423.182 1957.87 506.651 2102.73 625.753C2392.45 863.957 2695.72 1244.63 2943.86 1711.31Z" stroke="black" stroke-opacity="0.07"/>
<path d="M2950.27 1723.62C3190.23 2194.57 3328.11 2661.34 3357.06 3035.3C3371.53 3222.27 3358.77 3386.02 3317.95 3515.47C3277.12 3644.92 3208.24 3740.03 3110.5 3789.83C3012.75 3839.64 2895.32 3839.45 2766.6 3796.39C2637.87 3753.34 2497.9 3667.41 2355.14 3545.8C2069.62 3302.58 1773.04 2916.67 1533.08 2445.72C1293.12 1974.78 1155.24 1508 1126.29 1134.05C1111.82 947.074 1124.58 783.329 1165.41 653.879C1206.23 524.432 1275.11 429.317 1372.85 379.515C1470.6 329.712 1588.03 329.895 1716.75 372.953C1845.48 416.012 1985.45 501.936 2128.21 623.549C2413.73 866.772 2710.32 1252.68 2950.27 1723.62Z" stroke="black" stroke-opacity="0.07"/>
<path d="M2956.47 1736.05C3188.17 2211.11 3317.88 2680.22 3340.3 3054.62C3351.51 3241.82 3335.89 3405.32 3292.81 3534.03C3249.73 3662.75 3179.2 3756.65 3080.61 3804.74C2982.01 3852.83 2864.59 3850.59 2736.64 3805.3C2608.69 3760 2470.24 3671.64 2329.62 3547.56C2048.39 3299.39 1758.59 2908.36 1526.88 2433.3C1295.18 1958.24 1165.47 1489.13 1143.05 1114.73C1131.85 927.53 1147.46 764.032 1190.54 635.315C1233.62 506.599 1304.15 412.701 1402.75 364.612C1501.34 316.523 1618.76 318.755 1746.71 364.054C1874.66 409.352 2013.11 497.707 2153.73 621.792C2434.96 869.961 2724.76 1260.99 2956.47 1736.05Z" stroke="black" stroke-opacity="0.07"/>
<path d="M2962.44 1748.58C3185.82 2227.61 3307.32 2698.91 3323.2 3073.65C3331.14 3261.01 3312.67 3424.21 3267.35 3552.16C3222.03 3680.1 3149.88 3772.76 3050.46 3819.12C2951.04 3865.48 2833.68 3861.2 2706.54 3813.67C2579.39 3766.15 2442.5 3675.39 2304.08 3548.87C2027.22 3295.83 1744.28 2899.81 1520.91 2420.78C1297.53 1941.74 1176.03 1470.44 1160.15 1095.71C1152.21 908.338 1170.67 745.138 1215.99 617.191C1261.31 489.248 1333.47 396.595 1432.89 350.234C1532.31 303.873 1649.67 308.154 1776.81 355.678C1903.95 403.203 2040.84 493.96 2179.27 620.481C2456.13 873.521 2739.06 1269.54 2962.44 1748.58Z" stroke="black" stroke-opacity="0.07"/>
<path d="M2968.2 1761.21C3183.18 2244.06 3296.44 2717.42 3305.78 3092.37C3310.45 3279.85 3289.13 3442.7 3241.59 3569.84C3194.04 3696.97 3120.28 3788.35 3020.07 3832.97C2919.85 3877.59 2802.58 3871.26 2676.29 3821.52C2550 3771.79 2414.71 3678.65 2278.51 3549.74C2006.12 3291.9 1730.13 2891 1515.15 2408.14C1300.17 1925.29 1186.91 1451.93 1177.57 1076.98C1172.9 889.502 1194.22 726.649 1241.76 599.513C1289.31 472.38 1363.07 381.001 1463.28 336.382C1563.5 291.763 1680.77 298.092 1807.06 347.828C1933.35 397.564 2068.64 490.697 2204.84 619.614C2477.23 877.447 2753.22 1278.35 2968.2 1761.21Z" stroke="black" stroke-opacity="0.07"/>
<path d="M2973.73 1773.93C3180.26 2260.47 3285.23 2735.73 3288.03 3110.79C3289.42 3298.32 3265.27 3460.77 3215.52 3587.06C3165.76 3713.34 3090.41 3803.42 2989.43 3846.29C2888.46 3889.15 2771.32 3880.77 2645.91 3828.84C2520.51 3776.91 2386.87 3681.43 2252.94 3550.15C1985.08 3287.61 1716.14 2881.95 1509.62 2395.41C1303.09 1908.88 1198.11 1433.62 1195.32 1058.56C1193.93 871.031 1218.08 708.575 1267.83 582.288C1317.59 456.004 1392.94 365.926 1493.92 323.063C1594.89 280.2 1712.03 288.574 1837.44 340.507C1962.84 392.44 2096.48 487.919 2230.41 619.194C2498.26 881.741 2767.21 1287.4 2973.73 1773.93Z" stroke="black" stroke-opacity="0.07"/>
<path d="M2979.05 1786.76C3177.05 2276.83 3273.71 2753.84 3269.96 3128.89C3268.08 3316.42 3241.1 3478.43 3189.15 3603.83C3137.19 3729.23 3060.29 3817.97 2958.58 3859.07C2856.87 3900.16 2739.89 3889.75 2615.41 3835.63C2490.93 3781.52 2358.98 3683.72 2227.36 3550.13C1964.13 3282.95 1702.31 2872.66 1504.31 2382.59C1306.31 1892.52 1209.64 1415.51 1213.39 1040.46C1215.27 852.931 1242.25 690.921 1294.2 565.522C1346.16 440.126 1423.06 351.376 1524.77 310.282C1626.49 269.188 1743.46 279.605 1867.94 333.718C1992.42 387.832 2124.37 485.629 2255.99 619.221C2519.22 886.404 2781.05 1296.69 2979.05 1786.76Z" stroke="black" stroke-opacity="0.07"/>
<path d="M2984.13 1799.67C3173.55 2293.12 3261.88 2771.75 3251.58 3146.68C3246.43 3334.14 3216.63 3495.66 3162.49 3620.13C3108.36 3744.6 3029.91 3832 2927.5 3871.31C2825.09 3910.62 2708.31 3898.17 2584.8 3841.89C2461.28 3785.61 2331.06 3685.52 2201.79 3549.66C1943.26 3277.92 1688.64 2863.13 1499.22 2369.68C1309.8 1876.23 1221.47 1397.6 1231.77 1022.67C1236.92 835.205 1266.73 673.691 1320.86 549.217C1374.99 424.747 1453.44 337.353 1555.85 298.04C1658.26 258.727 1775.04 271.184 1898.55 327.462C2022.07 383.74 2152.3 483.825 2281.56 619.694C2540.09 891.43 2794.72 1306.22 2984.13 1799.67Z" stroke="black" stroke-opacity="0.07"/>
<path d="M2988.99 1812.67C3169.77 2309.35 3249.73 2789.45 3232.89 3164.14C3224.47 3351.49 3191.85 3512.46 3135.55 3635.97C3079.26 3759.48 2999.3 3845.49 2896.22 3883.01C2793.13 3920.53 2676.59 3906.03 2554.08 3847.61C2431.56 3789.18 2303.1 3686.84 2176.23 3548.74C1922.48 3272.53 1675.13 2853.35 1494.36 2356.68C1313.58 1860 1233.62 1379.9 1250.46 1005.21C1258.88 817.859 1291.5 656.889 1347.8 533.38C1404.1 409.873 1484.05 323.861 1587.14 286.342C1690.22 248.823 1806.76 263.316 1929.27 321.74C2051.79 380.166 2180.25 482.508 2307.12 620.612C2560.87 896.819 2808.22 1315.99 2988.99 1812.67Z" stroke="black" stroke-opacity="0.07"/>
<path d="M2993.63 1825.76C3165.71 2325.52 3237.28 2806.94 3213.9 3181.28C3202.21 3368.45 3166.79 3528.83 3108.34 3651.33C3049.9 3773.84 2968.45 3858.44 2864.73 3894.16C2761.01 3929.87 2644.74 3913.35 2523.26 3852.79C2401.78 3792.24 2275.13 3687.67 2150.69 3547.37C1901.8 3266.78 1661.8 2843.35 1489.72 2343.59C1317.64 1843.83 1246.07 1362.41 1269.45 988.073C1281.14 800.902 1316.56 640.526 1375.01 518.018C1433.45 395.512 1514.9 310.909 1618.62 275.194C1722.34 239.48 1838.61 256.005 1960.09 316.558C2081.57 377.113 2208.22 481.682 2332.66 621.979C2581.55 902.572 2821.55 1326 2993.63 1825.76Z" stroke="black" stroke-opacity="0.07"/>
<path d="M2998.03 1838.92C3161.36 2341.61 3224.52 2824.2 3194.61 3198.08C3179.66 3385.02 3141.44 3544.75 3080.87 3666.22C3020.29 3787.69 2937.38 3870.86 2833.05 3904.76C2728.72 3938.65 2612.76 3920.1 2492.36 3857.44C2371.96 3794.77 2247.15 3688.01 2125.17 3545.56C1881.22 3260.67 1648.65 2833.12 1485.32 2330.43C1321.99 1827.75 1258.83 1345.15 1288.73 971.273C1303.69 784.334 1341.91 624.601 1402.48 503.132C1463.05 381.664 1545.96 298.496 1650.29 264.597C1754.62 230.698 1870.59 249.249 1990.99 311.914C2111.39 374.58 2236.2 481.343 2358.18 623.791C2602.13 908.684 2834.7 1336.24 2998.03 1838.92Z" stroke="black" stroke-opacity="0.07"/>
<path d="M3002.21 1852.16C3156.74 2357.62 3211.47 2841.24 3175.04 3214.54C3156.83 3401.19 3115.83 3560.23 3053.14 3680.62C2990.46 3801.02 2906.11 3882.72 2801.2 3914.8C2696.29 3946.87 2580.68 3926.3 2461.39 3861.54C2342.09 3796.78 2219.17 3687.86 2099.7 3543.3C1860.75 3254.2 1635.68 2822.65 1481.15 2317.19C1326.61 1811.73 1271.89 1328.11 1308.31 954.81C1326.53 768.16 1367.53 609.118 1430.21 488.725C1492.9 368.333 1577.24 286.624 1682.15 254.551C1787.06 222.478 1902.68 243.051 2021.97 307.807C2141.26 372.564 2264.18 481.489 2383.66 626.044C2622.6 915.152 2847.67 1346.7 3002.21 1852.16Z" stroke="black" stroke-opacity="0.07"/>
<path d="M3006.15 1865.47C3151.84 2373.54 3198.11 2858.05 3155.18 3230.66C3133.71 3416.96 3089.94 3575.26 3025.16 3694.54C2960.39 3813.82 2874.62 3894.05 2769.17 3924.28C2663.72 3954.52 2548.48 3931.93 2430.34 3865.11C2312.2 3798.28 2191.19 3687.22 2074.26 3540.6C1840.4 3247.37 1622.89 2811.96 1477.2 2303.88C1331.51 1795.8 1285.24 1311.3 1328.17 938.692C1349.64 752.389 1393.41 594.086 1458.19 474.805C1522.96 355.526 1608.73 275.301 1714.18 245.064C1819.63 214.827 1934.87 237.414 2053.01 304.243C2171.15 371.072 2292.16 482.126 2409.09 628.744C2642.95 921.978 2860.46 1357.39 3006.15 1865.47Z" stroke="black" stroke-opacity="0.07"/>
<path d="M3009.86 1878.84C3146.66 2389.39 3184.47 2874.63 3135.04 3246.43C3110.32 3432.33 3063.8 3589.84 2996.95 3707.97C2930.1 3826.1 2842.95 3904.82 2736.99 3933.21C2631.03 3961.6 2516.2 3937.01 2399.24 3868.13C2282.28 3799.25 2163.23 3686.1 2048.88 3537.46C1820.17 3240.19 1610.29 2801.05 1473.49 2290.51C1336.69 1779.96 1298.88 1294.72 1348.31 922.926C1373.03 737.025 1419.55 579.511 1486.4 461.378C1553.25 343.248 1640.4 264.532 1746.36 236.14C1852.32 207.748 1967.15 232.343 2084.11 301.223C2201.07 370.104 2320.12 483.253 2434.48 631.889C2663.18 929.16 2873.06 1368.3 3009.86 1878.84Z" stroke="black" stroke-opacity="0.07"/>
<path d="M3013.33 1892.28C3141.2 2405.13 3170.54 2890.96 3114.63 3261.84C3086.67 3447.28 3037.4 3603.96 2968.5 3720.91C2899.6 3837.85 2811.09 3915.03 2704.65 3941.57C2598.21 3968.11 2483.83 3941.52 2368.09 3870.61C2252.35 3799.69 2135.29 3684.48 2023.55 3533.88C1800.06 3232.66 1597.89 2789.92 1470.02 2277.07C1342.15 1764.22 1312.81 1278.39 1368.72 907.511C1396.68 722.07 1445.95 565.391 1514.85 448.444C1583.75 331.498 1672.26 254.315 1778.7 227.776C1885.14 201.238 1999.52 227.833 2115.26 298.744C2231 369.656 2348.06 484.865 2459.8 635.475C2683.29 936.692 2885.46 1379.43 3013.33 1892.28Z" stroke="black" stroke-opacity="0.07"/>
<path d="M3016.57 1905.78C3135.47 2420.78 3156.33 2907.05 3093.95 3276.89C3062.76 3461.82 3010.77 3617.61 2939.84 3733.34C2868.91 3849.07 2779.06 3924.69 2672.18 3949.37C2565.29 3974.05 2451.39 3945.46 2336.9 3872.54C2222.42 3799.62 2107.39 3682.38 1998.29 3529.85C1780.1 3224.78 1585.68 2778.58 1466.78 2263.57C1347.88 1748.56 1327.02 1262.3 1389.4 892.454C1420.59 707.529 1472.59 551.734 1543.52 436.007C1614.45 320.281 1704.29 244.655 1811.18 219.978C1918.07 195.301 2031.97 223.889 2146.45 296.809C2260.93 369.73 2375.96 486.964 2485.06 639.501C2703.26 944.573 2897.67 1390.77 3016.57 1905.78Z" stroke="black" stroke-opacity="0.07"/>
<path d="M3019.58 1919.33C3129.47 2436.33 3141.84 2922.88 3073.01 3291.59C3038.6 3475.94 2983.9 3630.8 2910.96 3745.27C2838.02 3859.74 2746.87 3933.79 2639.57 3956.6C2532.26 3979.41 2418.88 3948.84 2305.68 3873.93C2192.49 3799.02 2079.53 3679.8 1973.11 3525.38C1760.27 3216.55 1573.67 2767.03 1463.78 2250.02C1353.88 1733.02 1341.52 1246.46 1410.34 877.761C1444.75 693.409 1499.46 538.545 1572.4 424.073C1645.33 309.603 1736.48 235.557 1843.79 212.749C1951.09 189.941 2064.47 220.512 2177.67 295.419C2290.86 370.327 2403.82 489.551 2510.24 643.969C2723.08 952.802 2909.68 1402.32 3019.58 1919.33Z" stroke="black" stroke-opacity="0.07"/>
<path d="M3022.34 1932.93C3123.2 2451.77 3127.07 2938.47 3051.82 3305.91C3014.2 3489.64 2956.8 3643.52 2881.87 3756.7C2806.95 3869.88 2714.52 3942.33 2606.84 3963.26C2499.15 3984.19 2386.32 3951.64 2274.45 3874.77C2162.58 3797.9 2051.71 3676.72 1948.01 3520.47C1740.59 3207.97 1561.86 2755.26 1461.01 2236.42C1360.16 1717.58 1356.28 1230.88 1431.53 863.436C1469.15 679.713 1526.55 525.827 1601.48 412.646C1676.41 299.466 1768.83 227.022 1876.52 206.09C1984.2 185.158 2097.04 217.704 2208.9 294.575C2320.77 371.447 2431.64 492.624 2535.35 648.876C2742.76 961.376 2921.49 1414.08 3022.34 1932.93Z" stroke="black" stroke-opacity="0.07"/>
<path d="M3024.87 1946.57C3116.66 2467.1 3112.04 2953.79 3030.39 3319.86C2989.56 3502.9 2929.49 3655.76 2852.6 3767.62C2775.71 3879.48 2682.03 3950.3 2574 3969.34C2465.96 3988.39 2353.71 3953.88 2243.2 3875.07C2132.69 3796.26 2023.96 3673.17 1922.99 3515.13C1721.06 3199.06 1550.26 2743.3 1458.48 2222.77C1366.7 1702.25 1371.32 1215.56 1452.97 849.483C1493.79 666.444 1553.87 513.584 1630.76 401.727C1707.65 289.872 1801.33 219.052 1909.36 200.003C2017.39 180.954 2129.64 215.463 2240.15 294.275C2350.66 373.088 2459.4 496.182 2560.36 654.219C2762.29 970.292 2933.09 1426.05 3024.87 1946.57Z" stroke="black" stroke-opacity="0.07"/>
<path d="M3027.16 1960.27C3109.85 2482.31 3096.73 2968.85 3008.71 3333.44C2964.69 3515.74 2901.96 3667.53 2823.13 3778.03C2744.3 3888.52 2649.4 3957.7 2541.05 3974.86C2432.7 3992.02 2321.07 3955.56 2211.95 3874.83C2102.84 3794.1 1996.27 3669.13 1898.07 3509.35C1701.69 3189.8 1538.87 2731.13 1456.19 2209.08C1373.5 1687.04 1386.62 1200.5 1474.64 835.908C1518.65 653.609 1581.39 501.821 1660.22 391.323C1739.05 280.827 1833.95 211.652 1942.3 194.492C2050.65 177.331 2162.28 213.794 2271.4 294.522C2380.51 375.252 2487.08 500.225 2585.28 660C2781.66 979.549 2944.48 1438.22 3027.16 1960.27Z" stroke="black" stroke-opacity="0.07"/>
<path d="M3029.21 1973.99C3102.77 2497.4 3081.17 2983.64 2986.8 3346.64C2939.61 3528.14 2874.23 3678.81 2793.49 3787.92C2712.74 3897.02 2616.65 3964.53 2508.02 3979.8C2399.38 3995.06 2288.41 3956.66 2180.72 3874.04C2073.02 3791.42 1968.65 3664.6 1873.26 3503.14C1682.49 3180.21 1527.7 2718.77 1454.13 2195.36C1380.57 1671.95 1402.18 1185.71 1496.55 822.711C1543.74 641.209 1609.11 490.539 1689.86 381.433C1770.61 272.33 1866.7 204.822 1975.33 189.555C2083.96 174.288 2194.94 212.694 2302.63 295.314C2410.33 377.936 2514.7 504.749 2610.09 666.214C2800.86 989.142 2955.65 1450.58 3029.21 1973.99Z" stroke="black" stroke-opacity="0.07"/>
<path d="M3031.03 1987.76C3095.44 2512.37 3065.36 2998.15 2964.66 3359.45C2914.31 3540.1 2846.32 3689.61 2763.68 3797.29C2681.04 3904.97 2583.78 3970.79 2474.9 3984.16C2366.02 3997.53 2255.73 3957.19 2149.5 3872.7C2043.26 3788.21 1941.12 3659.6 1848.56 3496.49C1663.45 3170.28 1516.74 2706.21 1452.32 2181.6C1387.91 1656.98 1418 1171.2 1518.69 809.9C1569.04 629.249 1637.03 479.743 1719.67 372.063C1802.31 264.386 1899.57 198.565 2008.45 185.196C2117.33 171.827 2227.62 212.164 2333.85 296.651C2440.09 381.14 2542.23 509.756 2634.79 672.861C2819.9 999.069 2966.61 1463.14 3031.03 1987.76Z" stroke="black" stroke-opacity="0.07"/>
<path d="M3032.6 2001.55C3087.85 2527.2 3049.29 3012.39 2942.3 3371.87C2888.81 3551.62 2818.22 3699.92 2733.71 3806.14C2649.21 3912.36 2550.82 3976.47 2441.72 3987.94C2332.62 3999.4 2223.05 3957.15 2118.31 3870.82C2013.56 3784.49 1913.68 3654.11 1823.98 3489.41C1644.59 3160.03 1506 2693.46 1450.75 2167.8C1395.51 1642.14 1434.06 1156.96 1541.05 797.475C1594.54 617.73 1665.14 469.433 1749.64 363.212C1834.15 256.994 1932.54 192.88 2041.64 181.414C2150.73 169.947 2260.3 212.203 2365.05 298.531C2469.79 384.861 2569.67 515.24 2659.37 679.935C2838.76 1009.32 2977.35 1475.89 3032.6 2001.55Z" stroke="black" stroke-opacity="0.07"/>
<path d="M3033.93 2015.36C3079.99 2541.91 3032.97 3026.34 2919.73 3383.91C2863.11 3562.69 2789.93 3709.73 2703.59 3814.46C2617.24 3919.19 2517.75 3981.58 2408.47 3991.14C2299.18 4000.7 2190.37 3956.54 2087.15 3868.4C1983.93 3780.25 1886.34 3648.15 1799.53 3481.91C1625.91 3149.44 1495.49 2680.53 1449.42 2153.99C1403.35 1627.45 1450.37 1143.01 1563.62 785.445C1620.24 606.661 1693.41 459.618 1779.76 354.889C1866.1 250.161 1965.6 187.775 2074.88 178.214C2184.16 168.653 2292.98 212.814 2396.2 300.957C2499.42 389.102 2597.01 521.204 2683.82 687.44C2857.43 1019.91 2987.86 1488.82 3033.93 2015.36Z" stroke="black" stroke-opacity="0.07"/>
<path d="M3035.02 2029.2C3071.89 2556.47 3016.42 3040.01 2896.95 3395.54C2837.22 3573.31 2761.49 3719.06 2673.33 3822.26C2585.17 3925.47 2484.6 3986.11 2375.17 3993.76C2265.74 4001.41 2157.71 3955.36 2056.05 3865.43C1954.38 3775.49 1859.11 3641.71 1775.21 3473.98C1607.43 3138.53 1485.2 2667.42 1448.33 2140.15C1411.46 1612.89 1466.93 1129.34 1586.4 773.809C1646.13 596.04 1721.86 450.298 1810.02 347.091C1898.18 243.886 1998.75 183.246 2108.18 175.593C2217.61 167.941 2325.64 213.995 2427.3 303.926C2528.97 393.859 2624.24 527.644 2708.14 695.37C2875.92 1030.82 2998.15 1501.93 3035.02 2029.2Z" stroke="black" stroke-opacity="0.07"/>
<path d="M3035.86 2043.05C3063.53 2570.88 2999.63 3053.38 2873.97 3406.78C2811.15 3583.48 2732.89 3727.88 2642.94 3829.53C2552.99 3931.18 2451.38 3990.06 2341.83 3995.8C2232.28 4001.54 2125.07 3953.61 2024.99 3861.91C1924.91 3770.22 1831.99 3634.79 1751.04 3465.63C1589.13 3127.3 1475.15 2654.13 1447.48 2126.3C1419.82 1598.47 1483.72 1115.97 1609.37 762.572C1672.2 585.872 1750.46 441.473 1840.41 339.821C1930.36 238.17 2031.97 179.294 2141.52 173.553C2251.07 167.812 2358.27 215.744 2458.35 307.436C2558.44 399.129 2651.36 534.557 2732.31 703.721C2894.22 1042.05 3008.2 1515.22 3035.86 2043.05Z" stroke="black" stroke-opacity="0.07"/>
<path d="M3036.47 2056.92C3054.91 2585.15 2982.6 3066.46 2850.8 3417.61C2784.9 3593.19 2704.14 3736.2 2612.43 3836.27C2520.72 3936.33 2418.1 3993.43 2308.46 3997.25C2198.83 4001.08 2092.47 3951.29 1994.01 3857.86C1895.54 3764.44 1805 3627.41 1727.01 3456.86C1571.03 3115.76 1465.33 2640.66 1446.88 2112.43C1428.43 1584.2 1500.74 1102.89 1632.54 751.738C1698.45 576.162 1779.21 433.151 1870.92 333.084C1962.63 233.019 2065.25 175.925 2174.89 172.097C2284.52 168.268 2390.87 218.064 2489.34 311.489C2587.8 404.915 2678.35 541.943 2756.34 712.495C2912.31 1053.59 3018.02 1528.69 3036.47 2056.92Z" stroke="black" stroke-opacity="0.07"/>
<path d="M3036.83 2070.8C3046.06 2599.27 2965.36 3079.24 2827.45 3428.04C2758.49 3602.44 2675.24 3744.02 2581.8 3842.47C2488.36 3940.92 2384.76 3996.21 2275.07 3998.13C2165.39 4000.04 2059.92 3948.4 1963.1 3853.27C1866.28 3758.14 1778.14 3619.55 1703.14 3447.67C1553.14 3103.9 1455.74 2627.03 1446.52 2098.55C1437.29 1570.08 1517.99 1090.11 1655.9 741.31C1724.86 566.911 1808.11 425.331 1901.55 326.88C1994.99 228.43 2098.59 173.136 2208.28 171.222C2317.96 169.307 2423.43 220.952 2520.25 316.081C2617.07 411.211 2705.21 549.799 2780.21 721.685C2930.21 1065.46 3027.61 1542.32 3036.83 2070.8Z" stroke="black" stroke-opacity="0.07"/>
<path d="M3036.83 2098.56C3027.61 2627.03 2930.21 3103.9 2780.21 3447.67C2705.21 3619.55 2617.07 3758.14 2520.25 3853.27C2423.43 3948.4 2317.96 4000.04 2208.28 3998.13C2098.59 3996.21 1994.99 3940.92 1901.55 3842.47C1808.11 3744.02 1724.86 3602.44 1655.9 3428.04C1517.99 3079.25 1437.29 2599.27 1446.52 2070.8C1455.74 1542.32 1553.14 1065.46 1703.14 721.686C1778.14 549.8 1866.28 411.211 1963.1 316.081C2059.92 220.953 2165.39 169.308 2275.07 171.222C2384.76 173.137 2488.36 228.431 2581.8 326.881C2675.24 425.332 2758.49 566.912 2827.45 741.311C2965.36 1090.11 3046.06 1570.08 3036.83 2098.56Z" stroke="black" stroke-opacity="0.07"/>
<path d="M3036.47 2112.43C3018.02 2640.66 2912.31 3115.76 2756.34 3456.86C2678.35 3627.41 2587.8 3764.44 2489.34 3857.86C2390.87 3951.29 2284.52 4001.08 2174.89 3997.26C2065.25 3993.43 1962.63 3936.33 1870.92 3836.27C1779.21 3736.2 1698.45 3593.19 1632.55 3417.61C1500.74 3066.46 1428.43 2585.15 1446.88 2056.92C1465.33 1528.69 1571.03 1053.59 1727.01 712.495C1805 541.944 1895.54 404.915 1994.01 311.489C2092.48 218.064 2198.83 168.268 2308.46 172.097C2418.1 175.925 2520.72 233.019 2612.43 333.084C2704.14 433.151 2784.9 576.163 2850.8 751.739C2982.61 1102.89 3054.92 1584.2 3036.47 2112.43Z" stroke="black" stroke-opacity="0.07"/>
<path d="M3035.86 2126.3C3008.2 2654.13 2894.22 3127.3 2732.31 3465.63C2651.36 3634.79 2558.44 3770.22 2458.36 3861.91C2358.28 3953.61 2251.07 4001.54 2141.52 3995.8C2031.97 3990.06 1930.36 3931.18 1840.41 3829.53C1750.46 3727.88 1672.2 3583.48 1609.38 3406.78C1483.72 3053.38 1419.82 2570.88 1447.49 2043.05C1475.15 1515.22 1589.13 1042.05 1751.04 703.72C1831.99 534.556 1924.91 399.129 2025 307.435C2125.08 215.744 2232.28 167.811 2341.83 173.552C2451.38 179.294 2552.99 238.17 2642.94 339.82C2732.89 441.473 2811.15 585.872 2873.97 762.571C2999.63 1115.97 3063.53 1598.47 3035.86 2126.3Z" stroke="black" stroke-opacity="0.07"/>
<path d="M3035.02 2140.15C2998.15 2667.42 2875.92 3138.53 2708.14 3473.98C2624.24 3641.71 2528.97 3775.49 2427.3 3865.43C2325.64 3955.36 2217.61 4001.41 2108.18 3993.76C1998.75 3986.11 1898.18 3925.47 1810.02 3822.26C1721.86 3719.06 1646.13 3573.31 1586.4 3395.54C1466.93 3040.01 1411.46 2556.47 1448.33 2029.2C1485.2 1501.93 1607.43 1030.82 1775.21 695.37C1859.11 527.644 1954.38 393.859 2056.05 303.926C2157.71 213.995 2265.74 167.941 2375.17 175.593C2484.6 183.246 2585.17 243.886 2673.33 347.091C2761.49 450.298 2837.22 596.041 2896.95 773.809C3016.42 1129.34 3071.89 1612.89 3035.02 2140.15Z" stroke="black" stroke-opacity="0.07"/>
<path d="M3033.93 2153.99C2987.86 2680.53 2857.43 3149.44 2683.82 3481.91C2597.01 3648.15 2499.42 3780.25 2396.2 3868.39C2292.98 3956.54 2184.16 4000.7 2074.88 3991.14C1965.6 3981.58 1866.11 3919.19 1779.76 3814.46C1693.41 3709.73 1620.24 3562.69 1563.62 3383.91C1450.38 3026.34 1403.36 2541.91 1449.42 2015.36C1495.49 1488.82 1625.92 1019.91 1799.53 687.439C1886.34 521.203 1983.93 389.1 2087.15 300.956C2190.37 212.813 2299.19 168.651 2408.47 178.212C2517.75 187.773 2617.24 250.159 2703.59 354.887C2789.94 459.617 2863.11 606.659 2919.73 785.443C3032.97 1143.01 3079.99 1627.44 3033.93 2153.99Z" stroke="black" stroke-opacity="0.07"/>
<path d="M3032.6 2167.81C2977.35 2693.47 2838.76 3160.03 2659.37 3489.42C2569.67 3654.11 2469.79 3784.49 2365.04 3870.82C2260.3 3957.15 2150.73 3999.4 2041.63 3987.94C1932.54 3976.47 1834.15 3912.36 1749.64 3806.14C1665.13 3699.92 1594.54 3551.62 1541.05 3371.88C1434.06 3012.39 1395.5 2527.21 1450.75 2001.55C1506 1475.89 1644.59 1009.33 1823.98 679.937C1913.68 515.242 2013.56 384.862 2118.31 298.533C2223.05 212.205 2332.62 169.949 2441.72 181.415C2550.81 192.882 2649.2 256.995 2733.71 363.214C2818.21 469.435 2888.81 617.732 2942.3 797.477C3049.29 1156.97 3087.85 1642.15 3032.6 2167.81Z" stroke="black" stroke-opacity="0.07"/>
<path d="M3031.02 2181.6C2966.61 2706.21 2819.9 3170.28 2634.79 3496.49C2542.23 3659.6 2440.09 3788.21 2333.85 3872.7C2227.62 3957.19 2117.33 3997.52 2008.45 3984.16C1899.56 3970.79 1802.31 3904.97 1719.67 3797.29C1637.03 3689.61 1569.04 3540.1 1518.69 3359.45C1417.99 2998.15 1387.91 2512.37 1452.32 1987.76C1516.74 1463.14 1663.45 999.068 1848.56 672.86C1941.12 509.755 2043.26 381.139 2149.5 296.651C2255.73 212.164 2366.02 171.826 2474.9 185.195C2583.78 198.564 2681.04 264.385 2763.68 372.062C2846.32 479.742 2914.31 629.248 2964.66 809.9C3065.35 1171.2 3095.44 1656.98 3031.02 2181.6Z" stroke="black" stroke-opacity="0.07"/>
<path d="M3029.21 2195.36C2955.65 2718.77 2800.86 3180.21 2610.09 3503.14C2514.7 3664.6 2410.33 3791.42 2302.63 3874.04C2194.94 3956.66 2083.97 3995.06 1975.33 3979.8C1866.7 3964.53 1770.61 3897.02 1689.86 3787.92C1609.12 3678.81 1543.74 3528.14 1496.55 3346.64C1402.18 2983.64 1380.57 2497.41 1454.14 1974C1527.7 1450.58 1682.49 989.143 1873.26 666.215C1968.65 504.75 2073.02 377.937 2180.72 295.315C2288.41 212.695 2399.38 174.289 2508.02 189.556C2616.65 204.823 2712.74 272.331 2793.49 381.434C2874.23 490.54 2939.61 641.21 2986.8 822.712C3081.17 1185.72 3102.78 1671.95 3029.21 2195.36Z" stroke="black" stroke-opacity="0.07"/>
<path d="M3027.16 2209.09C2944.48 2731.13 2781.66 3189.8 2585.28 3509.35C2487.08 3669.13 2380.51 3794.1 2271.4 3874.83C2162.28 3955.56 2050.65 3992.02 1942.3 3974.86C1833.95 3957.7 1739.05 3888.53 1660.22 3778.03C1581.39 3667.53 1518.66 3515.74 1474.64 3333.45C1386.62 2968.85 1373.5 2482.32 1456.19 1960.27C1538.87 1438.22 1701.69 979.551 1898.07 660.003C1996.27 500.227 2102.84 375.254 2211.95 294.525C2321.07 213.797 2432.7 177.333 2541.05 194.494C2649.4 211.655 2744.3 280.829 2823.13 391.325C2901.96 501.823 2964.7 653.611 3008.71 835.91C3096.73 1200.5 3109.85 1687.04 3027.16 2209.09Z" stroke="black" stroke-opacity="0.07"/>
<path d="M3024.87 2222.78C2933.09 2743.3 2762.29 3199.06 2560.36 3515.13C2459.39 3673.17 2350.66 3796.26 2240.15 3875.08C2129.64 3953.89 2017.39 3988.4 1909.36 3969.35C1801.32 3950.3 1707.65 3879.48 1630.76 3767.62C1553.87 3655.77 1493.79 3502.91 1452.96 3319.87C1371.32 2953.79 1366.7 2467.1 1458.48 1946.58C1550.26 1426.05 1721.06 970.295 1922.99 654.222C2023.96 496.184 2132.69 373.09 2243.2 294.277C2353.71 215.466 2465.96 180.956 2573.99 200.005C2682.03 219.055 2775.7 289.875 2852.59 401.73C2929.48 513.587 2989.56 666.446 3030.38 849.485C3112.03 1215.56 3116.65 1702.25 3024.87 2222.78Z" stroke="black" stroke-opacity="0.07"/>
<path d="M3022.34 2236.42C2921.49 2755.27 2742.76 3207.97 2535.35 3520.48C2431.64 3676.73 2320.77 3797.9 2208.9 3874.78C2097.04 3951.65 1984.2 3984.19 1876.52 3963.26C1768.83 3942.33 1676.4 3869.88 1601.48 3756.7C1526.55 3643.52 1469.15 3489.64 1431.53 3305.91C1356.28 2938.47 1360.15 2451.77 1461.01 1932.93C1561.86 1414.09 1740.59 961.379 1948 648.878C2051.71 492.627 2162.58 371.449 2274.45 294.577C2386.32 217.706 2499.15 185.161 2606.84 206.092C2714.52 227.024 2806.95 299.469 2881.87 412.648C2956.8 525.83 3014.2 679.715 3051.82 863.439C3127.07 1230.88 3123.2 1717.58 3022.34 2236.42Z" stroke="black" stroke-opacity="0.07"/>
<path d="M3019.58 2250.02C2909.68 2767.03 2723.08 3216.55 2510.24 3525.38C2403.82 3679.8 2290.86 3799.02 2177.67 3873.93C2064.47 3948.84 1951.09 3979.41 1843.78 3956.6C1736.48 3933.79 1645.33 3859.75 1572.39 3745.28C1499.45 3630.8 1444.75 3475.94 1410.34 3291.59C1341.51 2922.89 1353.88 2436.33 1463.77 1919.33C1573.67 1402.32 1760.27 952.803 1973.11 643.97C2079.53 489.552 2192.49 370.328 2305.68 295.42C2418.88 220.513 2532.26 189.942 2639.56 212.75C2746.87 235.558 2838.02 309.604 2910.95 424.074C2983.89 538.546 3038.6 693.41 3073.01 877.762C3141.84 1246.46 3129.47 1733.02 3019.58 2250.02Z" stroke="black" stroke-opacity="0.07"/>
<path d="M3016.57 2263.57C2897.67 2778.58 2703.25 3224.78 2485.06 3529.85C2375.96 3682.39 2260.93 3799.62 2146.45 3872.54C2031.97 3945.46 1918.06 3974.05 1811.18 3949.37C1704.29 3924.69 1614.45 3849.07 1543.52 3733.34C1472.58 3617.61 1420.59 3461.82 1389.4 3276.9C1327.02 2907.05 1347.88 2420.78 1466.78 1905.78C1585.68 1390.77 1780.1 944.574 1998.29 639.503C2107.39 486.966 2222.42 369.731 2336.9 296.81C2451.38 223.89 2565.29 195.303 2672.17 219.98C2779.06 244.657 2868.91 320.283 2939.83 436.008C3010.77 551.736 3062.76 707.531 3093.95 892.455C3156.33 1262.3 3135.47 1748.57 3016.57 2263.57Z" stroke="black" stroke-opacity="0.07"/>
<path d="M3013.33 2277.07C2885.46 2789.93 2683.29 3232.66 2459.8 3533.88C2348.06 3684.49 2231 3799.69 2115.26 3870.61C1999.52 3941.52 1885.14 3968.11 1778.7 3941.57C1672.26 3915.04 1583.75 3837.85 1514.85 3720.91C1445.95 3603.96 1396.68 3447.28 1368.72 3261.84C1312.81 2890.96 1342.15 2405.13 1470.02 1892.28C1597.89 1379.43 1800.06 936.692 2023.55 635.475C2135.29 484.866 2252.35 369.657 2368.09 298.745C2483.83 227.834 2598.21 201.238 2704.65 227.777C2811.09 254.316 2899.6 331.498 2968.5 448.444C3037.4 565.392 3086.67 722.07 3114.63 907.511C3170.54 1278.39 3141.2 1764.22 3013.33 2277.07Z" stroke="black" stroke-opacity="0.07"/>
<path d="M3009.85 2290.51C2873.05 2801.05 2663.18 3240.19 2434.47 3537.46C2320.12 3686.1 2201.07 3799.25 2084.11 3868.13C1967.15 3937.01 1852.32 3961.6 1746.36 3933.21C1640.4 3904.82 1553.25 3826.1 1486.4 3707.97C1419.55 3589.84 1373.03 3432.33 1348.31 3246.43C1298.88 2874.63 1336.69 2389.39 1473.49 1878.84C1610.29 1368.3 1820.16 929.161 2048.87 631.89C2163.23 483.254 2282.28 370.105 2399.24 301.224C2516.19 232.344 2631.03 207.748 2736.99 236.141C2842.95 264.533 2930.1 343.249 2996.95 461.379C3063.79 579.512 3110.32 737.026 3135.04 922.926C3184.47 1294.73 3146.65 1779.97 3009.85 2290.51Z" stroke="black" stroke-opacity="0.07"/>
<path d="M3006.15 2303.88C2860.46 2811.96 2642.95 3247.37 2409.09 3540.6C2292.16 3687.22 2171.15 3798.28 2053.01 3865.11C1934.87 3931.93 1819.63 3954.52 1714.18 3924.28C1608.73 3894.05 1522.96 3813.82 1458.19 3694.54C1393.41 3575.26 1349.64 3416.96 1328.17 3230.66C1285.24 2858.05 1331.52 2373.55 1477.21 1865.47C1622.89 1357.39 1840.4 921.979 2074.26 628.745C2191.19 482.127 2312.2 371.073 2430.34 304.243C2548.48 237.415 2663.73 214.828 2769.18 245.065C2874.63 275.302 2960.39 355.527 3025.16 474.806C3089.94 594.087 3133.71 752.389 3155.18 938.693C3198.11 1311.3 3151.84 1795.8 3006.15 2303.88Z" stroke="black" stroke-opacity="0.07"/>
<path d="M3002.21 2317.19C2847.67 2822.65 2622.6 3254.2 2383.66 3543.31C2264.18 3687.86 2141.26 3796.79 2021.97 3861.54C1902.68 3926.3 1787.06 3946.87 1682.15 3914.8C1577.25 3882.73 1492.9 3801.02 1430.21 3680.63C1367.53 3560.23 1326.53 3401.19 1308.31 3214.54C1271.89 2841.24 1326.61 2357.62 1481.15 1852.16C1635.68 1346.7 1860.75 915.153 2099.7 626.045C2219.17 481.49 2342.09 372.565 2461.39 307.808C2580.68 243.051 2696.3 222.479 2801.2 254.552C2906.11 286.625 2990.46 368.334 3053.14 488.725C3115.83 609.119 3156.83 768.161 3175.04 954.811C3211.47 1328.11 3156.74 1811.73 3002.21 2317.19Z" stroke="black" stroke-opacity="0.07"/>
<path d="M2998.03 2330.43C2834.7 2833.12 2602.13 3260.67 2358.18 3545.56C2236.2 3688.01 2111.39 3794.77 1990.99 3857.44C1870.59 3920.1 1754.63 3938.65 1650.29 3904.75C1545.96 3870.86 1463.05 3787.69 1402.48 3666.22C1341.91 3544.75 1303.69 3385.02 1288.73 3198.08C1258.83 2824.2 1321.99 2341.61 1485.32 1838.92C1648.65 1336.24 1881.22 908.683 2125.17 623.79C2247.15 481.342 2371.96 374.579 2492.36 311.913C2612.76 249.248 2728.72 230.697 2833.05 264.596C2937.38 298.495 3020.29 381.663 3080.87 503.131C3141.44 624.6 3179.66 784.333 3194.61 971.272C3224.52 1345.15 3161.36 1827.74 2998.03 2330.43Z" stroke="black" stroke-opacity="0.07"/>
<path d="M2993.63 2343.59C2821.55 2843.35 2581.55 3266.78 2332.66 3547.37C2208.22 3687.67 2081.57 3792.24 1960.09 3852.79C1838.61 3913.35 1722.34 3929.87 1618.62 3894.16C1514.9 3858.44 1433.45 3773.84 1375.01 3651.33C1316.56 3528.82 1281.14 3368.45 1269.45 3181.28C1246.07 2806.94 1317.64 2325.52 1489.72 1825.76C1661.81 1326 1901.8 902.571 2150.69 621.978C2275.13 481.681 2401.78 377.112 2523.26 316.558C2644.74 256.004 2761.01 239.479 2864.73 275.193C2968.45 310.908 3049.9 395.511 3108.34 518.017C3166.79 640.525 3202.21 800.901 3213.9 988.073C3237.28 1362.41 3165.71 1843.83 2993.63 2343.59Z" stroke="black" stroke-opacity="0.07"/>
<path d="M2988.99 2356.68C2808.22 2853.35 2560.87 3272.53 2307.12 3548.74C2180.25 3686.84 2051.79 3789.18 1929.27 3847.61C1806.76 3906.03 1690.22 3920.53 1587.14 3883.01C1484.05 3845.49 1404.09 3759.47 1347.8 3635.97C1291.5 3512.46 1258.88 3351.49 1250.46 3164.14C1233.62 2789.45 1313.58 2309.35 1494.36 1812.67C1675.13 1315.99 1922.48 896.818 2176.23 620.612C2303.1 482.508 2431.56 380.166 2554.08 321.74C2676.59 263.316 2793.13 248.822 2896.21 286.342C2999.3 323.861 3079.26 409.873 3135.55 533.38C3191.85 656.889 3224.47 817.859 3232.89 1005.21C3249.73 1379.9 3169.77 1860 2988.99 2356.68Z" stroke="black" stroke-opacity="0.07"/>
<path d="M2984.13 2369.68C2794.72 2863.13 2540.09 3277.92 2281.56 3549.66C2152.3 3685.53 2022.07 3785.61 1898.55 3841.89C1775.04 3898.17 1658.26 3910.62 1555.85 3871.31C1453.44 3832 1374.99 3744.6 1320.86 3620.13C1266.73 3495.66 1236.92 3334.15 1231.77 3146.68C1221.47 2771.75 1309.8 2293.12 1499.22 1799.67C1688.64 1306.22 1943.26 891.43 2201.79 619.695C2331.06 483.826 2461.28 383.741 2584.8 327.463C2708.31 271.185 2825.09 258.728 2927.5 298.041C3029.91 337.354 3108.36 424.748 3162.49 549.218C3216.63 673.691 3246.43 835.206 3251.58 1022.67C3261.88 1397.6 3173.55 1876.23 2984.13 2369.68Z" stroke="black" stroke-opacity="0.07"/>
<path d="M2979.05 2382.59C2781.05 2872.66 2519.22 3282.95 2255.99 3550.13C2124.37 3683.72 1992.42 3781.52 1867.94 3835.63C1743.46 3889.75 1626.49 3900.16 1524.77 3859.07C1423.06 3817.98 1346.16 3729.23 1294.2 3603.83C1242.25 3478.43 1215.27 3316.42 1213.39 3128.89C1209.64 2753.84 1306.31 2276.83 1504.31 1786.76C1702.31 1296.69 1964.13 886.404 2227.36 619.222C2358.98 485.63 2490.93 387.833 2615.41 333.719C2739.89 279.606 2856.87 269.188 2958.58 310.283C3060.29 351.377 3137.2 440.126 3189.15 565.523C3241.1 690.922 3268.08 852.932 3269.96 1040.46C3273.71 1415.51 3177.05 1892.53 2979.05 2382.59Z" stroke="black" stroke-opacity="0.07"/>
<path d="M2973.73 2395.42C2767.21 2881.96 2498.26 3287.61 2230.41 3550.16C2096.48 3681.43 1962.84 3776.91 1837.43 3828.85C1712.03 3880.78 1594.89 3889.15 1493.91 3846.29C1392.93 3803.43 1317.59 3713.35 1267.83 3587.06C1218.07 3460.78 1193.92 3298.32 1195.32 3110.79C1198.11 2735.73 1303.09 2260.47 1509.61 1773.94C1716.14 1287.4 1985.08 881.745 2252.94 619.197C2386.87 487.923 2520.5 392.444 2645.91 340.51C2771.32 288.578 2888.45 280.203 2989.43 323.066C3090.41 365.929 3165.76 456.008 3215.51 582.292C3265.27 708.578 3289.42 871.035 3288.03 1058.57C3285.23 1433.63 3180.25 1908.88 2973.73 2395.42Z" stroke="black" stroke-opacity="0.07"/>
<path d="M2968.2 2408.14C2753.22 2891 2477.23 3291.9 2204.83 3549.74C2068.64 3678.65 1933.35 3771.79 1807.06 3821.52C1680.76 3871.26 1563.5 3877.59 1463.28 3832.97C1363.07 3788.35 1289.31 3696.97 1241.76 3569.84C1194.22 3442.7 1172.9 3279.85 1177.57 3092.37C1186.91 2717.42 1300.17 2244.07 1515.15 1761.21C1730.13 1278.35 2006.12 877.448 2278.51 619.615C2414.71 490.697 2550 397.565 2676.29 347.828C2802.58 298.092 2919.85 291.764 3020.06 336.382C3120.28 381.001 3194.04 472.381 3241.59 599.514C3289.13 726.65 3310.45 889.503 3305.78 1076.98C3296.44 1451.94 3183.18 1925.29 2968.2 2408.14Z" stroke="black" stroke-opacity="0.07"/>
<path d="M2962.44 2420.78C2739.07 2899.81 2456.13 3295.83 2179.27 3548.87C2040.84 3675.39 1903.95 3766.15 1776.81 3813.68C1649.67 3861.2 1532.31 3865.48 1432.89 3819.12C1333.47 3772.76 1261.31 3680.11 1215.99 3552.16C1170.67 3424.22 1152.21 3261.02 1160.15 3073.65C1176.03 2698.91 1297.53 2227.61 1520.91 1748.58C1744.28 1269.54 2027.22 873.523 2304.08 620.483C2442.51 493.962 2579.39 403.205 2706.54 355.68C2833.68 308.156 2951.04 303.875 3050.46 350.236C3149.88 396.597 3222.04 489.25 3267.36 617.193C3312.67 745.139 3331.14 908.34 3323.2 1095.71C3307.32 1470.44 3185.82 1941.74 2962.44 2420.78Z" stroke="black" stroke-opacity="0.07"/>
<path d="M2956.47 2433.3C2724.76 2908.37 2434.96 3299.39 2153.73 3547.56C2013.11 3671.64 1874.66 3760 1746.71 3805.3C1618.76 3850.6 1501.34 3852.83 1402.74 3804.74C1304.15 3756.65 1233.62 3662.75 1190.54 3534.04C1147.46 3405.32 1131.84 3241.82 1143.05 3054.62C1165.47 2680.22 1295.18 2211.11 1526.88 1736.05C1758.59 1260.99 2048.39 869.963 2329.62 621.793C2470.24 497.708 2608.69 409.354 2736.64 364.055C2864.59 318.757 2982.01 316.524 3080.6 364.613C3179.2 412.702 3249.73 506.601 3292.81 635.316C3335.89 764.033 3351.51 927.531 3340.3 1114.73C3317.88 1489.13 3188.17 1958.24 2956.47 2433.3Z" stroke="black" stroke-opacity="0.07"/>
<path d="M2950.27 2445.73C2710.31 2916.67 2413.73 3302.58 2128.21 3545.8C1985.45 3667.41 1845.48 3753.34 1716.75 3796.4C1588.03 3839.46 1470.59 3839.64 1372.85 3789.84C1275.11 3740.03 1206.23 3644.92 1165.4 3515.47C1124.58 3386.02 1111.82 3222.28 1126.29 3035.3C1155.24 2661.35 1293.12 2194.57 1533.07 1723.63C1773.03 1252.68 2069.62 866.775 2355.14 623.552C2497.9 501.939 2637.87 416.015 2766.59 372.956C2895.32 329.898 3012.75 329.715 3110.5 379.517C3208.24 429.32 3277.12 524.435 3317.94 653.882C3358.77 783.332 3371.53 947.077 3357.06 1134.05C3328.11 1508.01 3190.23 1974.78 2950.27 2445.73Z" stroke="black" stroke-opacity="0.07"/>
<path d="M2943.86 2458.04C2695.72 2924.72 2392.45 3305.4 2102.73 3543.6C1957.87 3662.7 1816.42 3746.17 1686.96 3786.98C1557.5 3827.78 1440.08 3825.91 1343.23 3774.41C1246.37 3722.91 1179.16 3626.61 1140.6 3496.47C1102.04 3366.33 1092.14 3202.38 1109.87 3015.69C1145.34 2642.3 1291.34 2178 1539.48 1711.32C1787.63 1244.63 2090.9 863.959 2380.62 625.755C2525.48 506.653 2666.93 423.184 2796.39 382.379C2925.84 341.574 3043.26 343.44 3140.12 394.941C3236.98 446.442 3304.19 542.744 3342.75 672.884C3381.31 803.027 3391.21 966.97 3373.48 1153.67C3338.01 1527.06 3192.01 1991.35 2943.86 2458.04Z" stroke="black" stroke-opacity="0.07"/>
<path d="M2937.24 2470.24C2680.99 2932.52 2371.12 3307.84 2077.29 3540.95C1930.37 3657.51 1787.48 3738.49 1657.33 3777.04C1527.19 3815.57 1409.82 3811.66 1313.87 3758.48C1217.93 3705.29 1152.41 3607.83 1116.13 3477.04C1079.84 3346.24 1072.8 3182.15 1093.8 2995.79C1135.78 2623.08 1289.86 2161.4 1546.11 1699.12C1802.36 1236.83 2112.23 861.512 2406.06 628.402C2552.98 511.846 2695.87 430.858 2826.01 392.318C2956.16 353.779 3073.53 357.694 3169.48 410.878C3265.42 464.061 3330.94 561.522 3367.22 692.315C3403.51 823.111 3410.54 987.202 3389.55 1173.56C3347.57 1546.27 3193.49 2007.95 2937.24 2470.24Z" stroke="black" stroke-opacity="0.07"/>
<path d="M2930.41 2482.32C2666.13 2940.06 2349.75 3309.91 2051.9 3537.86C1902.97 3651.84 1758.69 3730.32 1627.89 3766.58C1497.09 3802.84 1379.81 3796.88 1284.8 3742.03C1189.8 3687.18 1125.99 3588.59 1092 3457.18C1058 3325.77 1053.83 3161.59 1078.07 2975.62C1126.55 2603.7 1288.67 2144.78 1552.94 1687.04C1817.22 1229.3 2133.6 859.44 2431.45 631.493C2580.38 517.519 2724.66 439.038 2855.46 402.775C2986.26 366.512 3103.55 372.476 3198.55 427.325C3293.55 482.175 3357.36 580.764 3391.35 712.171C3425.35 843.58 3429.52 1007.77 3405.28 1193.73C3356.8 1565.66 3194.69 2024.58 2930.41 2482.32Z" stroke="black" stroke-opacity="0.07"/>
<path d="M2923.36 2494.28C2651.14 2947.34 2328.35 3311.61 2026.56 3534.33C1875.67 3645.69 1730.04 3721.64 1598.63 3755.61C1467.22 3789.59 1350.05 3781.58 1256.02 3725.08C1161.99 3668.58 1099.92 3568.89 1068.22 3436.91C1036.52 3304.93 1035.22 3140.69 1062.7 2955.18C1117.66 2584.16 1287.76 2128.14 1559.99 1675.08C1832.21 1222.02 2155 857.741 2456.79 635.027C2607.68 523.669 2753.31 447.718 2884.72 413.744C3016.13 379.77 3133.3 387.779 3227.33 444.278C3321.36 500.778 3383.43 600.465 3415.13 732.446C3446.83 864.428 3448.13 1028.66 3420.65 1214.18C3365.69 1585.2 3195.59 2041.22 2923.36 2494.28Z" stroke="black" stroke-opacity="0.07"/>
<path d="M2916.11 2506.11C2636.02 2954.35 2306.93 3312.94 2001.3 3530.35C1848.48 3639.06 1701.55 3712.46 1569.56 3744.13C1437.58 3775.81 1320.57 3765.75 1227.54 3707.62C1134.51 3649.49 1074.19 3548.74 1044.8 3416.22C1015.41 3283.71 1016.97 3119.47 1047.68 2934.47C1109.11 2564.46 1287.15 2111.48 1567.24 1663.24C1847.33 1215 2176.42 856.413 2482.05 638.999C2634.87 530.292 2781.8 456.894 2913.78 425.218C3045.77 393.543 3162.77 403.596 3255.8 461.727C3348.83 519.859 3409.16 620.615 3438.55 753.128C3467.94 885.644 3466.38 1049.88 3435.66 1234.88C3374.23 1604.89 3196.2 2057.87 2916.11 2506.11Z" stroke="black" stroke-opacity="0.07"/>
<path d="M2908.65 2517.81C2620.78 2961.1 2285.48 3313.89 1976.1 3525.93C1821.41 3631.96 1673.23 3702.78 1540.71 3732.15C1408.19 3761.52 1291.38 3749.42 1199.38 3689.68C1107.37 3629.93 1048.82 3528.14 1021.74 3395.13C994.671 3262.12 999.098 3097.94 1033.04 2913.5C1100.92 2544.62 1286.83 2094.82 1574.7 1651.53C1862.57 1208.25 2197.87 855.46 2507.25 643.414C2661.94 537.39 2810.13 466.568 2942.65 437.2C3075.16 407.833 3191.97 419.926 3283.98 479.673C3375.98 539.42 3434.54 641.213 3461.61 774.219C3488.68 907.227 3484.26 1071.41 3450.32 1255.85C3382.44 1624.73 3196.53 2074.53 2908.65 2517.81Z" stroke="black" stroke-opacity="0.07"/>
<path d="M2900.99 2529.39C2605.43 2967.58 2264.02 3314.47 1950.99 3521.08C1794.47 3624.39 1645.07 3692.62 1512.06 3719.67C1379.05 3746.72 1262.47 3732.59 1171.52 3671.24C1080.58 3609.9 1023.8 3507.1 999.058 3373.64C974.312 3240.18 981.603 3076.1 1018.76 2892.28C1093.06 2524.65 1286.8 2078.15 1582.36 1639.96C1877.92 1201.77 2219.33 854.885 2532.36 648.27C2688.88 544.962 2838.28 476.736 2971.29 449.686C3104.3 422.636 3220.88 436.766 3311.83 498.109C3402.77 559.453 3459.55 662.253 3484.29 795.711C3509.04 929.171 3501.75 1093.25 3464.6 1277.07C3390.29 1644.71 3196.56 2091.2 2900.99 2529.39Z" stroke="black" stroke-opacity="0.07"/>
<path d="M2893.13 2540.83C2589.96 2973.8 2242.55 3314.67 1925.96 3515.79C1767.67 3616.35 1617.1 3681.96 1483.64 3706.68C1350.17 3731.41 1233.86 3715.25 1144 3652.32C1054.13 3589.4 999.164 3485.63 976.751 3351.76C954.337 3217.89 964.49 3053.96 1004.85 2870.82C1085.56 2504.53 1287.05 2061.49 1590.22 1628.52C1893.39 1195.56 2240.8 854.682 2557.38 653.562C2715.68 553.002 2866.25 487.394 2999.71 462.669C3133.18 437.945 3249.49 454.107 3339.35 517.028C3429.21 579.95 3484.19 683.725 3506.6 817.594C3529.01 951.466 3518.86 1115.39 3478.5 1298.54C3397.79 1664.82 3196.3 2107.86 2893.13 2540.83Z" stroke="black" stroke-opacity="0.07"/>
<path d="M2885.07 2552.13C2574.39 2979.74 2221.09 3314.5 1901.04 3510.06C1741.01 3607.84 1589.32 3670.81 1455.44 3693.21C1321.57 3715.6 1205.55 3697.41 1116.8 3632.93C1028.06 3568.45 974.905 3463.73 954.831 3329.49C934.757 3195.25 947.77 3031.52 991.316 2849.11C1078.41 2484.29 1287.6 2044.83 1598.28 1617.22C1908.96 1189.61 2262.26 854.853 2582.31 659.288C2742.34 561.506 2894.03 498.536 3027.91 476.144C3161.78 453.753 3277.8 471.943 3366.55 536.422C3455.3 600.902 3508.45 705.621 3528.52 839.861C3548.59 974.104 3535.58 1137.83 3492.04 1320.24C3404.94 1685.06 3195.75 2124.52 2885.07 2552.13Z" stroke="black" stroke-opacity="0.07"/>
<path d="M2876.32 2563.31C2558.23 2985.43 2199.13 3313.97 1875.72 3503.92C1714.01 3598.9 1561.24 3659.21 1427 3679.26C1292.75 3699.31 1177.07 3679.1 1089.46 3613.08C1001.85 3547.06 950.534 3441.43 932.806 3306.86C915.078 3172.29 930.946 3008.82 977.669 2827.19C1071.11 2463.95 1287.95 2028.21 1606.04 1606.08C1924.13 1183.96 2283.23 855.42 2606.64 665.472C2768.35 570.497 2921.12 510.184 3055.36 490.132C3189.61 470.08 3305.29 490.292 3392.9 556.311C3480.51 622.33 3531.83 727.96 3549.55 862.531C3567.28 997.103 3551.41 1160.58 3504.69 1342.2C3411.25 1705.44 3194.41 2141.18 2876.32 2563.31Z" stroke="black" stroke-opacity="0.07"/>
<path d="M2867.87 2574C2542.46 2990.51 2177.69 3312.73 1851.01 3497.01C1687.66 3589.14 1533.87 3646.78 1399.29 3664.49C1264.72 3682.19 1149.41 3659.97 1062.96 3592.43C976.518 3524.89 927.053 3418.38 911.677 3283.52C896.3 3148.66 915.019 2985.49 964.905 2804.71C1064.67 2443.15 1289.08 2011.26 1614.49 1594.75C1939.9 1178.25 2304.68 856.022 2631.36 671.746C2794.7 579.608 2948.49 521.97 3083.07 504.264C3217.64 486.559 3332.96 508.787 3419.4 576.325C3505.84 643.862 3555.31 750.372 3570.69 885.231C3586.06 1020.09 3567.34 1183.26 3517.46 1364.04C3417.69 1725.6 3193.28 2157.49 2867.87 2574Z" stroke="black" stroke-opacity="0.07"/>
<path d="M2859.23 2584.86C2526.6 2995.63 2156.26 3311.44 1826.41 3489.98C1661.49 3579.26 1506.71 3634.2 1371.84 3649.56C1236.98 3664.91 1122.07 3640.67 1036.82 3571.64C951.569 3502.6 903.971 3395.24 890.951 3260.14C877.93 3125.03 899.494 2962.21 952.527 2782.33C1058.59 2422.57 1290.5 1994.66 1623.13 1583.89C1955.76 1173.13 2326.1 857.319 2655.95 678.773C2820.88 589.499 2975.65 534.555 3110.52 519.2C3245.38 503.846 3360.29 528.083 3445.54 597.119C3530.79 666.155 3578.39 773.512 3591.41 908.619C3604.43 1043.73 3582.87 1206.55 3529.83 1386.43C3423.77 1746.19 3191.86 2174.1 2859.23 2584.86Z" stroke="black" stroke-opacity="0.07"/>
<path d="M2850.4 2595.58C2510.65 3000.47 2134.85 3309.77 1801.94 3482.53C1635.48 3568.91 1479.77 3621.15 1344.66 3634.15C1209.55 3647.15 1095.08 3620.91 1011.05 3550.39C927.013 3479.88 881.295 3371.71 870.635 3236.4C859.974 3101.08 884.376 2938.66 940.54 2759.73C1052.87 2401.88 1292.21 1978.08 1631.96 1573.18C1971.71 1168.29 2347.5 858.99 2680.42 686.228C2846.87 599.846 3002.59 547.611 3137.7 534.612C3272.81 521.614 3387.28 547.853 3471.31 618.367C3555.35 688.88 3601.06 797.051 3611.72 932.365C3622.38 1067.68 3597.98 1230.1 3541.82 1409.03C3429.49 1766.88 3190.15 2190.68 2850.4 2595.58Z" stroke="black" stroke-opacity="0.07"/>
<path d="M2841.38 2606.13C2494.62 3005.04 2113.48 3307.73 1777.61 3474.65C1609.67 3558.12 1453.07 3607.63 1317.75 3618.27C1182.43 3628.9 1068.44 3600.67 985.649 3528.7C902.858 3456.73 859.036 3347.78 850.738 3212.3C842.441 3076.82 869.674 2914.85 928.952 2736.93C1047.51 2381.09 1294.21 1961.54 1640.97 1562.63C1987.74 1163.73 2368.87 861.033 2704.75 694.107C2872.69 610.644 3029.29 561.134 3164.61 550.495C3299.93 539.857 3413.92 568.09 3496.71 640.059C3579.5 712.028 3623.32 820.981 3631.62 956.46C3639.92 1091.94 3612.68 1253.91 3553.41 1431.83C3434.85 1787.67 3188.15 2207.23 2841.38 2606.13Z" stroke="black" stroke-opacity="0.07"/>
<path d="M2832.19 2616.52C2478.52 3009.32 2092.16 3305.31 1753.42 3466.35C1584.05 3546.87 1426.6 3593.64 1291.12 3601.91C1155.64 3610.19 1042.16 3579.97 960.637 3506.57C879.114 3433.17 837.2 3323.46 831.268 3187.86C825.336 3052.26 855.392 2890.79 917.766 2713.93C1042.51 2360.21 1296.5 1945.03 1650.17 1552.23C2003.85 1159.44 2390.21 863.446 2728.95 702.407C2898.32 621.888 3055.76 575.119 3191.24 566.843C3326.72 558.568 3440.2 588.786 3521.73 662.189C3603.25 735.592 3645.16 845.293 3651.1 980.897C3657.03 1116.5 3626.97 1277.97 3564.6 1454.83C3439.85 1808.55 3185.86 2223.73 2832.19 2616.52Z" stroke="black" stroke-opacity="0.07"/>
<path d="M2822.81 2626.75C2462.34 3013.31 2070.87 3302.52 1729.37 3457.62C1558.62 3535.18 1400.39 3579.19 1264.78 3585.1C1129.17 3591.01 1016.24 3558.81 936.009 3484C855.78 3409.18 815.787 3298.77 812.223 3163.08C808.658 3027.39 841.528 2866.48 906.979 2690.73C1037.88 2339.25 1299.08 1928.56 1659.55 1542C2020.02 1155.44 2411.49 866.229 2752.99 711.127C2923.74 633.575 3081.97 589.561 3217.58 583.652C3353.19 577.742 3466.12 609.936 3546.35 684.751C3626.58 759.566 3666.57 869.981 3670.14 1005.67C3673.7 1141.36 3640.83 1302.28 3575.38 1478.02C3444.48 1829.51 3183.28 2240.19 2822.81 2626.75Z" stroke="black" stroke-opacity="0.07"/>
<path d="M2813.26 2636.82C2446.09 3017.03 2049.64 3299.37 1705.48 3448.48C1533.41 3523.04 1374.43 3564.29 1238.74 3567.83C1103.05 3571.37 990.694 3537.21 911.783 3461.01C832.872 3384.81 794.811 3273.71 793.616 3137.98C792.42 3002.25 828.093 2841.93 896.602 2667.36C1033.62 2318.21 1301.94 1912.14 1669.11 1531.93C2036.27 1151.72 2432.73 869.388 2776.88 720.27C2948.96 645.71 3107.94 604.464 3243.63 600.922C3379.31 597.38 3491.67 631.54 3570.58 707.744C3649.49 783.948 3687.55 895.044 3688.75 1030.77C3689.94 1166.5 3654.27 1326.82 3585.76 1501.4C3448.75 1850.55 3180.42 2256.61 2813.26 2636.82Z" stroke="black" stroke-opacity="0.07"/>
<path d="M2804.02 2647.02C2430.28 3020.77 2028.96 3296.13 1682.25 3439.22C1508.9 3510.77 1349.23 3549.23 1213.49 3550.41C1077.77 3551.58 966.023 3515.47 888.453 3437.9C810.884 3360.33 774.769 3248.58 775.942 3112.86C777.115 2977.12 815.581 2817.45 887.126 2644.1C1030.22 2297.39 1305.58 1896.07 1679.33 1522.33C2053.07 1148.58 2454.4 873.214 2801.1 730.125C2974.45 658.579 3134.13 620.114 3269.86 618.941C3405.58 617.768 3517.33 653.883 3594.9 731.452C3672.47 809.022 3708.58 920.766 3707.41 1056.49C3706.24 1192.22 3667.77 1351.9 3596.23 1525.25C3453.14 1871.95 3177.77 2273.28 2804.02 2647.02Z" stroke="black" stroke-opacity="0.07"/>
</svg>
