<svg width="532" height="320" viewBox="0 0 532 320" fill="none" xmlns="http://www.w3.org/2000/svg">
<g opacity="0.7" filter="url(#filter0_f_41_282)">
<ellipse cx="37.5" cy="187" rx="230.5" ry="233" fill="#C1F8BF"/>
</g>
<path d="M334.488 143.207L334.497 143.197L334.506 143.186C340.17 136.389 344.701 128.838 348.099 120.536C351.898 111.794 353.776 101.201 353.776 88.7907C353.776 74.839 350.947 61.6321 345.288 49.1805C339.625 36.7237 331.322 25.9683 320.391 16.9188C309.823 7.48687 296.637 0.149877 280.859 -5.10941C265.059 -10.3761 247.031 -13 226.788 -13C207.644 -13 190.163 -9.99683 174.357 -3.97533L174.349 -3.97239C158.938 2.0419 145.578 10.3178 134.281 20.8597C122.979 31.0328 114.128 43.2766 107.728 57.5803C101.327 71.5145 97.7532 86.5719 97.0011 102.743L96.9574 103.683L97.8925 103.784L201.483 114.983L202.59 115.102V113.988C202.59 105.564 204.786 99.5366 208.986 95.6873C213.368 91.6705 217.43 89.7907 221.189 89.7907C225.701 89.7907 228.901 90.9181 230.981 92.9975C233.06 95.0769 234.187 98.2773 234.187 102.789C234.187 107.212 231.279 112.371 224.994 118.289C218.609 123.924 211.49 131.233 203.638 140.207C195.725 149.25 188.586 160.53 182.21 174.031C175.781 187.27 172.593 203.666 172.593 223.178V224.178H173.593H274.384H275.312L275.381 223.252C276.119 213.292 278.512 204.862 282.525 197.928C286.966 190.527 291.958 183.871 297.5 177.958C303.447 172.012 309.579 166.438 315.896 161.236L315.9 161.232C322.657 155.601 328.854 149.593 334.488 143.207ZM184.632 338.101L184.645 338.115L184.658 338.128C194.947 348.035 208.085 352.966 223.988 352.966C239.891 352.966 252.852 348.035 262.772 338.115C273.058 327.829 278.183 314.686 278.183 298.771C278.183 282.864 273.062 269.904 262.772 259.988C252.856 249.697 239.896 244.576 223.988 244.576C208.074 244.576 194.931 249.701 184.645 259.988C174.724 269.908 169.793 282.869 169.793 298.771C169.793 314.675 174.724 327.813 184.632 338.101Z" stroke="white" stroke-width="2"/>
<defs>
<filter id="filter0_f_41_282" x="-457" y="-310" width="989" height="994" filterUnits="userSpaceOnUse" color-interpolation-filters="sRGB">
<feFlood flood-opacity="0" result="BackgroundImageFix"/>
<feBlend mode="normal" in="SourceGraphic" in2="BackgroundImageFix" result="shape"/>
<feGaussianBlur stdDeviation="132" result="effect1_foregroundBlur_41_282"/>
</filter>
</defs>
</svg>
