<svg width="20" height="20" viewBox="0 0 20 20" fill="none" xmlns="http://www.w3.org/2000/svg">
<path d="M19.041 17.5628L14.4586 12.9804C16.7625 9.98521 16.5321 5.6588 13.7673 2.9196C12.2569 1.40924 10.3112 0.666748 8.3401 0.666748C6.36886 0.666748 4.4233 1.40906 2.9129 2.9196C-0.082296 5.9148 -0.082296 10.7788 2.9129 13.774C4.42326 15.2844 6.369 16.0269 8.3401 16.0269C9.9785 16.0269 11.6169 15.5149 12.9737 14.4653L17.5817 19.0219C17.7865 19.2267 18.0424 19.329 18.324 19.329C18.5801 19.329 18.8617 19.2267 19.0663 19.0219C19.4504 18.638 19.4504 17.9722 19.0408 17.5628L19.041 17.5628ZM8.36575 13.9532C6.8554 13.9532 5.4729 13.3644 4.3977 12.3148C2.22161 10.1387 2.22161 6.58035 4.3977 4.37875C5.44735 3.32911 6.8554 2.74035 8.36575 2.74035C9.8761 2.74035 11.2586 3.32911 12.3338 4.37875C13.409 5.4284 13.9722 6.83645 13.9722 8.3468C13.9722 9.85716 13.3834 11.2397 12.3338 12.3149C11.2842 13.3901 9.8506 13.9533 8.36575 13.9533V13.9532Z" fill="black"/>
</svg>
