<svg width="53" height="53" viewBox="0 0 53 53" fill="none" xmlns="http://www.w3.org/2000/svg">
<circle cx="26.5" cy="26.5" r="26.5" fill="url(#paint0_linear_2_2687)"/>
<path d="M18.4 32H15.9L20.6 19.4H22.8L27.5 32H25L24.1 29.4H19.3L18.4 32ZM23.3 27.2L21.7 22.6L20.1 27.2H23.3ZM32.5063 32.1C31.8263 32.1 31.2063 32 30.6463 31.8C30.0996 31.5867 29.6263 31.3067 29.2263 30.96C28.8396 30.6 28.5396 30.1933 28.3263 29.74C28.1129 29.2867 28.0063 28.8067 28.0063 28.3C28.0063 27.7267 28.1063 27.24 28.3063 26.84C28.5196 26.44 28.7529 26.12 29.0063 25.88C29.2996 25.6 29.6329 25.3733 30.0063 25.2C29.7263 25.0267 29.4729 24.82 29.2463 24.58C29.0596 24.3667 28.8863 24.1067 28.7262 23.8C28.5796 23.4933 28.5063 23.1267 28.5063 22.7C28.5063 22.2467 28.5996 21.82 28.7863 21.42C28.9863 21.0067 29.2596 20.6467 29.6063 20.34C29.9529 20.02 30.3729 19.7667 30.8663 19.58C31.3596 19.3933 31.9063 19.3 32.5063 19.3C33.1063 19.3 33.6529 19.3933 34.1463 19.58C34.6396 19.7667 35.0596 20.02 35.4063 20.34C35.7529 20.6467 36.0196 21.0067 36.2063 21.42C36.4063 21.82 36.5063 22.2467 36.5063 22.7C36.5063 23.1267 36.4263 23.4933 36.2663 23.8C36.1063 24.1067 35.9329 24.3667 35.7463 24.58C35.5196 24.82 35.2729 25.0267 35.0063 25.2C35.3796 25.3733 35.7129 25.6 36.0063 25.88C36.2596 26.12 36.4863 26.44 36.6863 26.84C36.8996 27.24 37.0063 27.7267 37.0063 28.3C37.0063 28.8067 36.8996 29.2867 36.6863 29.74C36.4729 30.1933 36.1663 30.6 35.7663 30.96C35.3796 31.3067 34.9063 31.5867 34.3463 31.8C33.7996 32 33.1863 32.1 32.5063 32.1ZM32.5063 26.4C31.8529 26.4 31.3396 26.5733 30.9663 26.92C30.5929 27.2667 30.4063 27.6933 30.4063 28.2C30.4063 28.7067 30.5929 29.1333 30.9663 29.48C31.3396 29.8267 31.8529 30 32.5063 30C33.1596 30 33.6729 29.8267 34.0463 29.48C34.4196 29.1333 34.6063 28.7067 34.6063 28.2C34.6063 27.6933 34.4196 27.2667 34.0463 26.92C33.6729 26.5733 33.1596 26.4 32.5063 26.4ZM32.5063 24.4C33.0129 24.4 33.4196 24.2533 33.7263 23.96C34.0463 23.6533 34.2063 23.3 34.2063 22.9C34.2063 22.5 34.0463 22.1533 33.7263 21.86C33.4196 21.5533 33.0129 21.4 32.5063 21.4C31.9996 21.4 31.5863 21.5533 31.2663 21.86C30.9596 22.1533 30.8063 22.5 30.8063 22.9C30.8063 23.3 30.9596 23.6533 31.2663 23.96C31.5863 24.2533 31.9996 24.4 32.5063 24.4Z" fill="white"/>
<defs>
<linearGradient id="paint0_linear_2_2687" x1="26.5" y1="0" x2="26.5" y2="53" gradientUnits="userSpaceOnUse">
<stop stop-color="#FF0000"/>
<stop offset="1" stop-color="#FF006B" stop-opacity="0.83"/>
</linearGradient>
</defs>
</svg>
