<svg width="53" height="53" viewBox="0 0 53 53" fill="none" xmlns="http://www.w3.org/2000/svg">
<circle cx="26.5" cy="26.5" r="26.5" fill="url(#paint0_linear_2_2697)"/>
<path d="M14.4 32H11.9L16.6 19.4H18.8L23.5 32H21L20.1 29.4H15.3L14.4 32ZM19.3 27.2L17.7 22.6L16.1 27.2H19.3ZM28.8063 19.4V32H26.4063V22.5L24.9063 23.5L23.7063 21.7L27.0063 19.4H28.8063ZM33.3055 25.7C33.3055 26.38 33.3855 26.9733 33.5455 27.48C33.7055 27.9867 33.9121 28.4133 34.1655 28.76C34.4321 29.1067 34.7321 29.3667 35.0655 29.54C35.4121 29.7133 35.7588 29.8 36.1055 29.8C36.4521 29.8 36.7921 29.7133 37.1255 29.54C37.4721 29.3667 37.7721 29.1067 38.0255 28.76C38.2921 28.4133 38.5055 27.9867 38.6655 27.48C38.8255 26.9733 38.9055 26.38 38.9055 25.7C38.9055 25.02 38.8255 24.4267 38.6655 23.92C38.5055 23.4133 38.2921 22.9867 38.0255 22.64C37.7721 22.2933 37.4721 22.0333 37.1255 21.86C36.7921 21.6867 36.4521 21.6 36.1055 21.6C35.7588 21.6 35.4121 21.6867 35.0655 21.86C34.7321 22.0333 34.4321 22.2933 34.1655 22.64C33.9121 22.9867 33.7055 23.4133 33.5455 23.92C33.3855 24.4267 33.3055 25.02 33.3055 25.7ZM41.3055 25.7C41.3055 26.7 41.1655 27.6 40.8855 28.4C40.6055 29.1867 40.2255 29.8533 39.7455 30.4C39.2788 30.9467 38.7255 31.3667 38.0855 31.66C37.4588 31.9533 36.7988 32.1 36.1055 32.1C35.3988 32.1 34.7321 31.9533 34.1055 31.66C33.4788 31.3667 32.9255 30.9467 32.4455 30.4C31.9788 29.8533 31.6055 29.1867 31.3255 28.4C31.0455 27.6 30.9055 26.7 30.9055 25.7C30.9055 24.7 31.0455 23.8067 31.3255 23.02C31.6055 22.22 31.9788 21.5467 32.4455 21C32.9255 20.4533 33.4788 20.0333 34.1055 19.74C34.7321 19.4467 35.3988 19.3 36.1055 19.3C36.7988 19.3 37.4588 19.4467 38.0855 19.74C38.7255 20.0333 39.2788 20.4533 39.7455 21C40.2255 21.5467 40.6055 22.22 40.8855 23.02C41.1655 23.8067 41.3055 24.7 41.3055 25.7Z" fill="white"/>
<defs>
<linearGradient id="paint0_linear_2_2697" x1="26.5" y1="0" x2="26.5" y2="53" gradientUnits="userSpaceOnUse">
<stop stop-color="#FF0000"/>
<stop offset="1" stop-color="#FF006B" stop-opacity="0.83"/>
</linearGradient>
</defs>
</svg>
