<svg width="53" height="53" viewBox="0 0 53 53" fill="none" xmlns="http://www.w3.org/2000/svg">
<circle cx="26.5" cy="26.5" r="26.5" fill="url(#paint0_linear_2_2692)"/>
<path d="M18.4 32H15.9L20.6 19.4H22.8L27.5 32H25L24.1 29.4H19.3L18.4 32ZM23.3 27.2L21.7 22.6L20.1 27.2H23.3ZM32.6063 19.3C33.2863 19.3 33.9063 19.4133 34.4663 19.64C35.0263 19.8667 35.5063 20.18 35.9063 20.58C36.3196 20.9667 36.6396 21.4267 36.8663 21.96C37.0929 22.4933 37.2063 23.0733 37.2063 23.7C37.2063 24.1267 37.1396 24.5333 37.0063 24.92C36.8863 25.3067 36.7529 25.6467 36.6063 25.94C36.4329 26.2867 36.2329 26.6067 36.0063 26.9C35.8596 27.1133 35.6996 27.3533 35.5263 27.62C35.3529 27.8733 35.1729 28.14 34.9863 28.42C34.7996 28.7 34.6063 28.98 34.4063 29.26C34.2063 29.54 34.0129 29.8133 33.8263 30.08C33.3863 30.7067 32.9463 31.3467 32.5063 32H30.0063L32.7063 28C32.0529 28.08 31.4396 28.02 30.8663 27.82C30.3063 27.6067 29.8129 27.3 29.3863 26.9C28.9596 26.5 28.6196 26.0267 28.3663 25.48C28.1263 24.92 28.0063 24.3267 28.0063 23.7C28.0063 23.0733 28.1196 22.4933 28.3463 21.96C28.5729 21.4267 28.8863 20.9667 29.2863 20.58C29.6996 20.18 30.1863 19.8667 30.7463 19.64C31.3063 19.4133 31.9263 19.3 32.6063 19.3ZM34.8063 23.7C34.8063 23.38 34.7463 23.08 34.6263 22.8C34.5063 22.52 34.3463 22.28 34.1463 22.08C33.9463 21.8667 33.7129 21.7 33.4463 21.58C33.1796 21.46 32.8996 21.4 32.6063 21.4C32.2996 21.4 32.0129 21.46 31.7463 21.58C31.4796 21.7 31.2463 21.8667 31.0463 22.08C30.8463 22.28 30.6863 22.52 30.5663 22.8C30.4596 23.08 30.4063 23.38 30.4063 23.7C30.4063 24.02 30.4596 24.32 30.5663 24.6C30.6863 24.88 30.8463 25.1267 31.0463 25.34C31.2463 25.54 31.4796 25.7 31.7463 25.82C32.0129 25.94 32.2996 26 32.6063 26C32.8996 26 33.1796 25.94 33.4463 25.82C33.7129 25.7 33.9463 25.54 34.1463 25.34C34.3463 25.1267 34.5063 24.88 34.6263 24.6C34.7463 24.32 34.8063 24.02 34.8063 23.7Z" fill="white"/>
<defs>
<linearGradient id="paint0_linear_2_2692" x1="26.5" y1="0" x2="26.5" y2="53" gradientUnits="userSpaceOnUse">
<stop stop-color="#FF0000"/>
<stop offset="1" stop-color="#FF006B" stop-opacity="0.83"/>
</linearGradient>
</defs>
</svg>
