<svg width="558" height="574" viewBox="0 0 558 574" fill="none" xmlns="http://www.w3.org/2000/svg">
<g opacity="0.7" filter="url(#filter0_f_31_2)">
<ellipse cx="494.5" cy="497" rx="230.5" ry="233" fill="#A6DEA4"/>
</g>
<path d="M299.031 283C324.138 283 347.138 303.379 363.92 336.944C380.672 370.448 391.062 416.804 391.062 468.062C391.062 519.321 380.672 565.677 363.92 599.181C347.138 632.746 324.138 653.125 299.031 653.125C273.924 653.125 250.925 632.746 234.143 599.181C217.39 565.677 207 519.321 207 468.062C207 416.804 217.39 370.448 234.143 336.944C250.925 303.379 273.924 283 299.031 283Z" stroke="url(#paint0_linear_31_2)" stroke-width="2"/>
<path d="M309.368 283C334.475 283 357.475 303.379 374.257 336.944C391.009 370.448 401.399 416.804 401.399 468.062C401.399 519.321 391.009 565.677 374.257 599.181C357.475 632.746 334.475 653.125 309.368 653.125C284.261 653.125 261.262 632.746 244.48 599.181C227.727 565.677 217.337 519.321 217.337 468.062C217.337 416.804 227.727 370.448 244.48 336.944C261.262 303.379 284.261 283 309.368 283Z" stroke="url(#paint1_linear_31_2)" stroke-width="2"/>
<path d="M319.705 283C344.812 283 367.811 303.379 384.594 336.944C401.346 370.448 411.736 416.804 411.736 468.062C411.736 519.321 401.346 565.677 384.594 599.181C367.811 632.746 344.812 653.125 319.705 653.125C294.598 653.125 271.599 632.746 254.816 599.181C238.064 565.677 227.674 519.321 227.674 468.062C227.674 416.804 238.064 370.448 254.816 336.944C271.599 303.379 294.598 283 319.705 283Z" stroke="url(#paint2_linear_31_2)" stroke-width="2"/>
<path d="M330.041 283C355.149 283 378.148 303.379 394.93 336.944C411.682 370.448 422.073 416.804 422.073 468.062C422.073 519.321 411.682 565.677 394.93 599.181C378.148 632.746 355.149 653.125 330.042 653.125C304.934 653.125 281.935 632.746 265.153 599.181C248.401 565.677 238.01 519.321 238.01 468.062C238.01 416.804 248.401 370.448 265.153 336.944C281.935 303.379 304.934 283 330.041 283Z" stroke="url(#paint3_linear_31_2)" stroke-width="2"/>
<path d="M340.378 283C365.485 283 388.485 303.379 405.267 336.944C422.019 370.448 432.41 416.804 432.41 468.062C432.41 519.321 422.019 565.677 405.267 599.181C388.485 632.746 365.485 653.125 340.378 653.125C315.271 653.125 292.272 632.746 275.49 599.181C258.738 565.677 248.347 519.321 248.347 468.062C248.347 416.804 258.738 370.448 275.49 336.944C292.272 303.379 315.271 283 340.378 283Z" stroke="url(#paint4_linear_31_2)" stroke-width="2"/>
<path d="M350.715 283C375.822 283 398.822 303.379 415.604 336.944C432.356 370.448 442.747 416.804 442.747 468.062C442.747 519.321 432.356 565.677 415.604 599.181C398.822 632.746 375.822 653.125 350.715 653.125C325.608 653.125 302.609 632.746 285.827 599.181C269.074 565.677 258.684 519.321 258.684 468.062C258.684 416.804 269.074 370.448 285.827 336.944C302.609 303.379 325.608 283 350.715 283Z" stroke="url(#paint5_linear_31_2)" stroke-width="2"/>
<path d="M361.052 283C386.159 283 409.159 303.379 425.941 336.944C442.693 370.448 453.083 416.804 453.083 468.062C453.083 519.321 442.693 565.677 425.941 599.181C409.159 632.746 386.159 653.125 361.052 653.125C335.945 653.125 312.946 632.746 296.164 599.181C279.411 565.677 269.021 519.321 269.021 468.062C269.021 416.804 279.411 370.448 296.164 336.944C312.946 303.379 335.945 283 361.052 283Z" stroke="url(#paint6_linear_31_2)" stroke-width="2"/>
<path d="M371.389 283C396.496 283 419.495 303.379 436.277 336.944C453.03 370.448 463.42 416.804 463.42 468.062C463.42 519.321 453.03 565.677 436.277 599.181C419.495 632.746 396.496 653.125 371.389 653.125C346.282 653.125 323.282 632.746 306.5 599.181C289.748 565.677 279.357 519.321 279.357 468.062C279.357 416.804 289.748 370.448 306.5 336.944C323.282 303.379 346.282 283 371.389 283Z" stroke="url(#paint7_linear_31_2)" stroke-width="2"/>
<path d="M381.726 283C406.833 283 429.832 303.379 446.614 336.944C463.366 370.448 473.757 416.804 473.757 468.062C473.757 519.321 463.366 565.677 446.614 599.181C429.832 632.746 406.833 653.125 381.726 653.125C356.619 653.125 333.619 632.746 316.837 599.181C300.085 565.677 289.694 519.321 289.694 468.062C289.694 416.804 300.085 370.448 316.837 336.944C333.619 303.379 356.619 283 381.726 283Z" stroke="url(#paint8_linear_31_2)" stroke-width="2"/>
<path d="M392.062 283C417.17 283 440.169 303.379 456.951 336.944C473.703 370.448 484.094 416.804 484.094 468.062C484.094 519.321 473.703 565.677 456.951 599.181C440.169 632.746 417.17 653.125 392.062 653.125C366.955 653.125 343.956 632.746 327.174 599.181C310.422 565.677 300.031 519.321 300.031 468.062C300.031 416.804 310.422 370.448 327.174 336.944C343.956 303.379 366.955 283 392.062 283Z" stroke="url(#paint9_linear_31_2)" stroke-width="2"/>
<path d="M402.399 283C427.506 283 450.506 303.379 467.288 336.944C484.04 370.448 494.431 416.804 494.431 468.062C494.431 519.321 484.04 565.677 467.288 599.181C450.506 632.746 427.506 653.125 402.399 653.125C377.292 653.125 354.293 632.746 337.511 599.181C320.759 565.677 310.368 519.321 310.368 468.062C310.368 416.804 320.759 370.448 337.511 336.944C354.293 303.379 377.292 283 402.399 283Z" stroke="url(#paint10_linear_31_2)" stroke-width="2"/>
<path d="M412.736 283C437.843 283 460.843 303.379 477.625 336.944C494.377 370.448 504.768 416.804 504.768 468.062C504.768 519.321 494.377 565.677 477.625 599.181C460.843 632.746 437.843 653.125 412.736 653.125C387.629 653.125 364.63 632.746 347.848 599.181C331.095 565.677 320.705 519.321 320.705 468.062C320.705 416.804 331.095 370.448 347.848 336.944C364.63 303.379 387.629 283 412.736 283Z" stroke="url(#paint11_linear_31_2)" stroke-width="2"/>
<path d="M423.073 283C448.18 283 471.179 303.379 487.961 336.944C504.714 370.448 515.104 416.804 515.104 468.062C515.104 519.321 504.714 565.677 487.961 599.181C471.179 632.746 448.18 653.125 423.073 653.125C397.966 653.125 374.966 632.746 358.184 599.181C341.432 565.677 331.041 519.321 331.041 468.062C331.041 416.804 341.432 370.448 358.184 336.944C374.966 303.379 397.966 283 423.073 283Z" stroke="url(#paint12_linear_31_2)" stroke-width="2"/>
<path d="M433.41 283C458.517 283 481.516 303.379 498.298 336.944C515.051 370.448 525.441 416.804 525.441 468.062C525.441 519.321 515.051 565.677 498.298 599.181C481.516 632.746 458.517 653.125 433.41 653.125C408.303 653.125 385.303 632.746 368.521 599.181C351.769 565.677 341.378 519.321 341.378 468.062C341.378 416.804 351.769 370.448 368.521 336.944C385.303 303.379 408.303 283 433.41 283Z" stroke="url(#paint13_linear_31_2)" stroke-width="2"/>
<path d="M443.747 283C468.854 283 491.853 303.379 508.635 336.944C525.387 370.448 535.778 416.804 535.778 468.062C535.778 519.321 525.387 565.677 508.635 599.181C491.853 632.746 468.854 653.125 443.747 653.125C418.64 653.125 395.64 632.746 378.858 599.181C362.106 565.677 351.715 519.321 351.715 468.062C351.715 416.804 362.106 370.448 378.858 336.944C395.64 303.379 418.64 283 443.747 283Z" stroke="url(#paint14_linear_31_2)" stroke-width="2"/>
<defs>
<filter id="filter0_f_31_2" x="0" y="0" width="989" height="994" filterUnits="userSpaceOnUse" color-interpolation-filters="sRGB">
<feFlood flood-opacity="0" result="BackgroundImageFix"/>
<feBlend mode="normal" in="SourceGraphic" in2="BackgroundImageFix" result="shape"/>
<feGaussianBlur stdDeviation="132" result="effect1_foregroundBlur_31_2"/>
</filter>
<linearGradient id="paint0_linear_31_2" x1="206" y1="468.062" x2="392.062" y2="468.062" gradientUnits="userSpaceOnUse">
<stop stop-color="white"/>
<stop offset="1" stop-color="white"/>
</linearGradient>
<linearGradient id="paint1_linear_31_2" x1="216.337" y1="468.062" x2="402.399" y2="468.062" gradientUnits="userSpaceOnUse">
<stop stop-color="white"/>
<stop offset="1" stop-color="white"/>
</linearGradient>
<linearGradient id="paint2_linear_31_2" x1="226.674" y1="468.062" x2="412.736" y2="468.062" gradientUnits="userSpaceOnUse">
<stop stop-color="white"/>
<stop offset="1" stop-color="white"/>
</linearGradient>
<linearGradient id="paint3_linear_31_2" x1="237.01" y1="468.062" x2="423.073" y2="468.062" gradientUnits="userSpaceOnUse">
<stop stop-color="white"/>
<stop offset="1" stop-color="white"/>
</linearGradient>
<linearGradient id="paint4_linear_31_2" x1="247.347" y1="468.062" x2="433.41" y2="468.062" gradientUnits="userSpaceOnUse">
<stop stop-color="white"/>
<stop offset="1" stop-color="white"/>
</linearGradient>
<linearGradient id="paint5_linear_31_2" x1="257.684" y1="468.062" x2="443.747" y2="468.062" gradientUnits="userSpaceOnUse">
<stop stop-color="white"/>
<stop offset="1" stop-color="white"/>
</linearGradient>
<linearGradient id="paint6_linear_31_2" x1="268.021" y1="468.062" x2="454.083" y2="468.062" gradientUnits="userSpaceOnUse">
<stop stop-color="white"/>
<stop offset="1" stop-color="white"/>
</linearGradient>
<linearGradient id="paint7_linear_31_2" x1="278.357" y1="468.062" x2="464.42" y2="468.062" gradientUnits="userSpaceOnUse">
<stop stop-color="white"/>
<stop offset="1" stop-color="white"/>
</linearGradient>
<linearGradient id="paint8_linear_31_2" x1="288.694" y1="468.062" x2="474.757" y2="468.062" gradientUnits="userSpaceOnUse">
<stop stop-color="white"/>
<stop offset="1" stop-color="white"/>
</linearGradient>
<linearGradient id="paint9_linear_31_2" x1="299.031" y1="468.062" x2="485.094" y2="468.062" gradientUnits="userSpaceOnUse">
<stop stop-color="white"/>
<stop offset="1" stop-color="white"/>
</linearGradient>
<linearGradient id="paint10_linear_31_2" x1="309.368" y1="468.062" x2="495.431" y2="468.062" gradientUnits="userSpaceOnUse">
<stop stop-color="white"/>
<stop offset="1" stop-color="white"/>
</linearGradient>
<linearGradient id="paint11_linear_31_2" x1="319.705" y1="468.062" x2="505.768" y2="468.062" gradientUnits="userSpaceOnUse">
<stop stop-color="white"/>
<stop offset="1" stop-color="white"/>
</linearGradient>
<linearGradient id="paint12_linear_31_2" x1="330.041" y1="468.062" x2="516.104" y2="468.062" gradientUnits="userSpaceOnUse">
<stop stop-color="white"/>
<stop offset="1" stop-color="white"/>
</linearGradient>
<linearGradient id="paint13_linear_31_2" x1="340.378" y1="468.062" x2="526.441" y2="468.062" gradientUnits="userSpaceOnUse">
<stop stop-color="white"/>
<stop offset="1" stop-color="white"/>
</linearGradient>
<linearGradient id="paint14_linear_31_2" x1="350.715" y1="468.062" x2="536.778" y2="468.062" gradientUnits="userSpaceOnUse">
<stop stop-color="white"/>
<stop offset="1" stop-color="white"/>
</linearGradient>
</defs>
</svg>
