<svg width="53" height="53" viewBox="0 0 53 53" fill="none" xmlns="http://www.w3.org/2000/svg">
<circle cx="26.5" cy="26.5" r="26.5" fill="url(#paint0_linear_2_2656)"/>
<path d="M18.4 32H15.9L20.6 19.4H22.8L27.5 32H25L24.1 29.4H19.3L18.4 32ZM23.3 27.2L21.7 22.6L20.1 27.2H23.3ZM36.6063 29.7V32H28.2063V30.3L32.8063 25.5C33.0596 25.2467 33.2929 24.9867 33.5063 24.72C33.6796 24.4933 33.8396 24.24 33.9863 23.96C34.1329 23.6667 34.2063 23.38 34.2063 23.1C34.2063 22.5933 34.0529 22.2 33.7463 21.92C33.4529 21.64 33.0063 21.5 32.4062 21.5C31.8063 21.5 31.3396 21.66 31.0063 21.98C30.6729 22.3 30.5063 22.74 30.5063 23.3H28.1063C28.1063 22.7267 28.2063 22.2 28.4063 21.72C28.6196 21.2267 28.9129 20.8 29.2863 20.44C29.6596 20.08 30.1063 19.8 30.6263 19.6C31.1596 19.4 31.7529 19.3 32.4062 19.3C33.0863 19.3 33.6863 19.3933 34.2063 19.58C34.7396 19.7667 35.1929 20.0267 35.5663 20.36C35.9396 20.6933 36.2196 21.0867 36.4063 21.54C36.6063 21.9933 36.7063 22.48 36.7063 23C36.7063 23.48 36.5863 23.9533 36.3463 24.42C36.1063 24.8733 35.8396 25.2867 35.5463 25.66C35.1996 26.1 34.8196 26.5133 34.4063 26.9L31.7063 29.7H36.6063Z" fill="white"/>
<defs>
<linearGradient id="paint0_linear_2_2656" x1="26.5" y1="0" x2="26.5" y2="53" gradientUnits="userSpaceOnUse">
<stop stop-color="#FF0000"/>
<stop offset="1" stop-color="#FF006B" stop-opacity="0.83"/>
</linearGradient>
</defs>
</svg>
