<svg width="53" height="53" viewBox="0 0 53 53" fill="none" xmlns="http://www.w3.org/2000/svg">
<circle cx="26.5" cy="26.5" r="26.5" fill="url(#paint0_linear_2_2676)"/>
<path d="M18.4 32H15.9L20.6 19.4H22.8L27.5 32H25L24.1 29.4H19.3L18.4 32ZM23.3 27.2L21.7 22.6L20.1 27.2H23.3ZM32.6063 32.1C31.9263 32.1 31.3063 31.9867 30.7463 31.76C30.1863 31.5333 29.6996 31.2267 29.2863 30.84C28.8863 30.44 28.5729 29.9733 28.3463 29.44C28.1196 28.9067 28.0063 28.3267 28.0063 27.7C28.0063 27.2733 28.0663 26.8667 28.1863 26.48C28.3196 26.0933 28.4596 25.7533 28.6063 25.46C28.7796 25.1133 28.9796 24.7933 29.2063 24.5C29.4863 24.0733 29.8196 23.5733 30.2063 23C30.6063 22.4133 30.9929 21.8533 31.3663 21.32C31.8063 20.6933 32.2529 20.0533 32.7063 19.4H35.2063L32.5063 23.4C33.1596 23.32 33.7663 23.3867 34.3263 23.6C34.8996 23.8 35.3996 24.1 35.8263 24.5C36.2529 24.9 36.5863 25.38 36.8263 25.94C37.0796 26.4867 37.2063 27.0733 37.2063 27.7C37.2063 28.3267 37.0929 28.9067 36.8663 29.44C36.6396 29.9733 36.3196 30.44 35.9063 30.84C35.5063 31.2267 35.0263 31.5333 34.4663 31.76C33.9063 31.9867 33.2863 32.1 32.6063 32.1ZM30.4063 27.7C30.4063 28.02 30.4596 28.32 30.5663 28.6C30.6863 28.88 30.8463 29.1267 31.0463 29.34C31.2463 29.54 31.4796 29.7 31.7463 29.82C32.0129 29.94 32.2996 30 32.6063 30C32.8996 30 33.1796 29.94 33.4463 29.82C33.7129 29.7 33.9463 29.54 34.1463 29.34C34.3463 29.1267 34.5063 28.88 34.6263 28.6C34.7463 28.32 34.8063 28.02 34.8063 27.7C34.8063 27.38 34.7463 27.08 34.6263 26.8C34.5063 26.52 34.3463 26.28 34.1463 26.08C33.9463 25.8667 33.7129 25.7 33.4463 25.58C33.1796 25.46 32.8996 25.4 32.6063 25.4C32.2996 25.4 32.0129 25.46 31.7463 25.58C31.4796 25.7 31.2463 25.8667 31.0463 26.08C30.8463 26.28 30.6863 26.52 30.5663 26.8C30.4596 27.08 30.4063 27.38 30.4063 27.7Z" fill="white"/>
<defs>
<linearGradient id="paint0_linear_2_2676" x1="26.5" y1="0" x2="26.5" y2="53" gradientUnits="userSpaceOnUse">
<stop stop-color="#FF0000"/>
<stop offset="1" stop-color="#FF006B" stop-opacity="0.83"/>
</linearGradient>
</defs>
</svg>
