<svg width="53" height="53" viewBox="0 0 53 53" fill="none" xmlns="http://www.w3.org/2000/svg">
<circle cx="26.5" cy="26.5" r="26.5" fill="url(#paint0_linear_2_2661)"/>
<path d="M18.4 32H15.9L20.6 19.4H22.8L27.5 32H25L24.1 29.4H19.3L18.4 32ZM23.3 27.2L21.7 22.6L20.1 27.2H23.3ZM28.1063 22.9C28.1329 22.42 28.2529 21.9667 28.4663 21.54C28.6796 21.1 28.9729 20.72 29.3463 20.4C29.7329 20.0667 30.1796 19.8 30.6863 19.6C31.2063 19.4 31.7796 19.3 32.4062 19.3C33.0329 19.3 33.5996 19.4 34.1063 19.6C34.6263 19.7867 35.0729 20.0467 35.4463 20.38C35.8196 20.7 36.1063 21.0733 36.3063 21.5C36.5063 21.9133 36.6063 22.3467 36.6063 22.8C36.6063 23.2533 36.5196 23.6467 36.3463 23.98C36.1863 24.3 36.0063 24.5667 35.8063 24.78C35.5663 25.02 35.2996 25.2267 35.0063 25.4C35.3529 25.5733 35.6663 25.8 35.9463 26.08C36.1863 26.32 36.4063 26.64 36.6063 27.04C36.8063 27.44 36.9063 27.9267 36.9063 28.5C36.9063 28.9533 36.7996 29.3933 36.5863 29.82C36.3729 30.2467 36.0729 30.6333 35.6863 30.98C35.2996 31.3133 34.8329 31.5867 34.2863 31.8C33.7529 32 33.1596 32.1 32.5063 32.1C31.7996 32.1 31.1729 32.0067 30.6263 31.82C30.0796 31.6333 29.6129 31.3733 29.2263 31.04C28.8529 30.7067 28.5596 30.3133 28.3463 29.86C28.1463 29.4067 28.0329 28.92 28.0063 28.4H30.4063C30.4329 28.5733 30.4996 28.7533 30.6063 28.94C30.7129 29.1133 30.8529 29.2733 31.0263 29.42C31.1996 29.5533 31.3996 29.6667 31.6263 29.76C31.8663 29.8533 32.1263 29.9 32.4062 29.9C33.0063 29.9 33.4863 29.7333 33.8463 29.4C34.2196 29.0533 34.4063 28.6533 34.4063 28.2C34.4063 27.7467 34.2329 27.3667 33.8863 27.06C33.5529 26.7533 33.0596 26.6 32.4062 26.6H31.3063V24.6H32.3063C32.9596 24.6 33.4396 24.4667 33.7463 24.2C34.0529 23.92 34.2063 23.5533 34.2063 23.1C34.2063 22.6467 34.0463 22.2667 33.7263 21.96C33.4063 21.6533 32.9663 21.5 32.4062 21.5C31.8463 21.5 31.3996 21.6467 31.0663 21.94C30.7463 22.2333 30.5596 22.5533 30.5063 22.9H28.1063Z" fill="white"/>
<defs>
<linearGradient id="paint0_linear_2_2661" x1="26.5" y1="0" x2="26.5" y2="53" gradientUnits="userSpaceOnUse">
<stop stop-color="#FF0000"/>
<stop offset="1" stop-color="#FF006B" stop-opacity="0.83"/>
</linearGradient>
</defs>
</svg>
