<svg width="53" height="53" viewBox="0 0 53 53" fill="none" xmlns="http://www.w3.org/2000/svg">
<circle cx="26.5" cy="26.5" r="26.5" fill="url(#paint0_linear_2_2671)"/>
<path d="M18.4 32H15.9L20.6 19.4H22.8L27.5 32H25L24.1 29.4H19.3L18.4 32ZM23.3 27.2L21.7 22.6L20.1 27.2H23.3ZM32.9063 23.4C33.5329 23.4 34.1063 23.5067 34.6263 23.72C35.1596 23.9333 35.6129 24.2333 35.9863 24.62C36.3729 24.9933 36.6729 25.4467 36.8863 25.98C37.0996 26.5 37.2063 27.0733 37.2063 27.7C37.2063 28.3267 37.0929 28.9067 36.8663 29.44C36.6396 29.9733 36.3196 30.44 35.9063 30.84C35.5063 31.2267 35.0263 31.5333 34.4663 31.76C33.9063 31.9867 33.2863 32.1 32.6063 32.1C31.9796 32.1 31.4063 32 30.8863 31.8C30.3663 31.6 29.9129 31.34 29.5263 31.02C29.1529 30.6867 28.8529 30.3067 28.6263 29.88C28.3996 29.44 28.2596 28.98 28.2063 28.5H30.6063C30.6329 28.6467 30.6996 28.8067 30.8063 28.98C30.9129 29.14 31.0529 29.2933 31.2263 29.44C31.3996 29.5733 31.5996 29.6867 31.8263 29.78C32.0663 29.86 32.3263 29.9 32.6063 29.9C33.2596 29.9 33.7863 29.7 34.1863 29.3C34.5996 28.8867 34.8063 28.3533 34.8063 27.7C34.8063 27.0467 34.5996 26.52 34.1863 26.12C33.7863 25.7067 33.2596 25.5 32.6063 25.5C32.2463 25.5 31.9396 25.5733 31.6863 25.72C31.4329 25.8533 31.2263 26 31.0663 26.16C30.8796 26.3467 30.7263 26.56 30.6063 26.8H28.5063L29.3063 19.4H36.3063V21.7H31.3063L31.0063 24C31.1796 23.8933 31.3729 23.7933 31.5863 23.7C31.7596 23.6333 31.9596 23.5667 32.1863 23.5C32.4129 23.4333 32.6529 23.4 32.9063 23.4Z" fill="white"/>
<defs>
<linearGradient id="paint0_linear_2_2671" x1="26.5" y1="0" x2="26.5" y2="53" gradientUnits="userSpaceOnUse">
<stop stop-color="#FF0000"/>
<stop offset="1" stop-color="#FF006B" stop-opacity="0.83"/>
</linearGradient>
</defs>
</svg>
